<svg width="118" height="139" viewBox="0 0 118 139" fill="none" xmlns="http://www.w3.org/2000/svg">
<path opacity="0.4" d="M113.312 25.2248C113.151 25.1852 113.012 25.0866 112.922 24.949C112.833 24.8114 112.8 24.6452 112.83 24.4842C112.86 24.3233 112.951 24.1797 113.084 24.0828C113.217 23.9859 113.383 23.943 113.547 23.9627C113.711 23.9824 113.862 24.0634 113.968 24.189C114.074 24.3147 114.127 24.4756 114.118 24.6389C114.108 24.8023 114.035 24.9558 113.915 25.0682C113.795 25.1806 113.636 25.2434 113.47 25.2438C113.417 25.244 113.364 25.2376 113.312 25.2248ZM115.316 22.8753C115.316 22.6886 115.372 22.5062 115.476 22.351C115.581 22.1958 115.73 22.0749 115.904 22.0035C116.079 21.932 116.27 21.9134 116.455 21.9498C116.64 21.9862 116.81 22.076 116.944 22.208C117.077 22.34 117.168 22.5081 117.205 22.6912C117.242 22.8742 117.223 23.0639 117.151 23.2364C117.078 23.4088 116.956 23.5562 116.799 23.6598C116.642 23.7635 116.458 23.8189 116.269 23.8189C116.144 23.8189 116.02 23.7945 115.904 23.747C115.789 23.6996 115.684 23.6301 115.595 23.5425C115.416 23.3655 115.316 23.1255 115.316 22.8753ZM112.537 1.78016C112.537 1.5436 112.608 1.31241 112.741 1.11584C112.875 0.919273 113.063 0.766145 113.284 0.675822C113.505 0.585499 113.749 0.562039 113.983 0.608407C114.217 0.654776 114.433 0.76889 114.602 0.936321C114.771 1.10375 114.886 1.31698 114.932 1.54904C114.978 1.7811 114.954 2.02156 114.863 2.24003C114.771 2.4585 114.616 2.64516 114.417 2.7764C114.218 2.90764 113.984 2.97757 113.745 2.97735C113.586 2.97735 113.429 2.94637 113.282 2.88618C113.135 2.82598 113.002 2.73776 112.89 2.62657C112.778 2.51537 112.689 2.38337 112.628 2.23813C112.568 2.0929 112.537 1.93727 112.537 1.78016Z" fill="#888888"/>
<path opacity="0.4" d="M106.095 23.8175C112.239 23.8175 117.22 18.8895 117.22 12.8105C117.22 6.73147 112.239 1.80347 106.095 1.80347C99.9507 1.80347 94.9697 6.73147 94.9697 12.8105C94.9697 18.8895 99.9507 23.8175 106.095 23.8175Z" fill="#2F4F4F"/>
<path opacity="0.4" d="M30.0668 132.009C46.6723 132.009 60.1337 118.69 60.1337 102.262C60.1337 85.8328 46.6723 72.5146 30.0668 72.5146C13.4614 72.5146 0 85.8328 0 102.262C0 118.69 13.4614 132.009 30.0668 132.009Z" fill="#2F4F4F"/>
<path opacity="0.4" d="M21.757 136.141C21.757 135.637 21.9081 135.144 22.1911 134.725C22.4741 134.306 22.8763 133.98 23.3469 133.787C23.8175 133.594 24.3354 133.543 24.835 133.642C25.3346 133.74 25.7935 133.983 26.1537 134.339C26.5139 134.695 26.7592 135.149 26.8585 135.644C26.9579 136.138 26.9069 136.65 26.712 137.116C26.517 137.582 26.1869 137.979 25.7634 138.259C25.3399 138.539 24.8419 138.689 24.3325 138.689C23.6495 138.689 22.9944 138.42 22.5114 137.943C22.0284 137.465 21.757 136.817 21.757 136.141ZM30.765 136.263C30.765 135.919 30.8682 135.582 31.0616 135.296C31.2549 135.01 31.5297 134.787 31.8511 134.655C32.1726 134.524 32.5263 134.489 32.8676 134.556C33.2088 134.624 33.5222 134.789 33.7682 135.033C34.0141 135.276 34.1816 135.587 34.2493 135.924C34.3171 136.262 34.2821 136.612 34.1488 136.93C34.0155 137.248 33.7898 137.52 33.5004 137.711C33.211 137.902 32.8708 138.004 32.5229 138.003C32.0566 138.003 31.6095 137.82 31.2798 137.493C30.9502 137.167 30.765 136.724 30.765 136.263ZM7.15454 73.2325C7.15454 72.5932 7.34616 71.9682 7.70518 71.4366C8.0642 70.905 8.57448 70.4907 9.1715 70.2461C9.76852 70.0014 10.4255 69.9374 11.0593 70.0621C11.693 70.1868 12.2752 70.4947 12.7322 70.9468C13.1891 71.3989 13.5003 71.9749 13.6264 72.6019C13.7524 73.229 13.6877 73.8789 13.4404 74.4696C13.1931 75.0602 12.7744 75.5651 12.2371 75.9203C11.6997 76.2755 11.068 76.4651 10.4218 76.4651C9.5553 76.4651 8.72425 76.1245 8.11151 75.5183C7.49877 74.9121 7.15454 74.0899 7.15454 73.2325Z" fill="#888888"/>
<path d="M30.0439 12.9273L30.0439 117.744C30.0439 120.843 32.5827 123.354 35.7144 123.354H98.3714C101.503 123.354 104.042 120.843 104.042 117.744V12.9273C104.042 9.82891 101.503 7.31718 98.3714 7.31718H35.7144C32.5827 7.31718 30.0439 9.82891 30.0439 12.9273Z" fill="#F7F2EC"/>
<path d="M30.8947 12.9275L30.8947 117.744C30.8947 120.378 33.0526 122.513 35.7145 122.513H98.3716C101.033 122.513 103.191 120.378 103.191 117.744V12.9275C103.191 10.2939 101.033 8.15893 98.3716 8.15893H35.7145C33.0526 8.15893 30.8947 10.2939 30.8947 12.9275Z" stroke="#002C27" stroke-width="1.5"/>
<path d="M37.448 19.1224L37.448 111.451C37.448 114.085 39.6059 116.22 42.2679 116.22H92.4488C95.1108 116.22 97.2687 114.085 97.2687 111.451V19.1224C97.2687 16.4887 95.1108 14.3538 92.4488 14.3538H42.2679C39.6059 14.3538 37.448 16.4887 37.448 19.1224Z" stroke="#002C27" stroke-width="1.5" stroke-dasharray="1.5 2"/>
<path d="M71.0588 30.0897H62.7595C62.1628 30.0912 61.5905 30.3288 61.1685 30.7492C60.7465 31.1696 60.5092 31.7386 60.5077 32.3332V38.7852H49.95C49.3532 38.7867 48.7809 39.0242 48.3589 39.4446C47.937 39.865 47.6996 40.4341 47.6981 41.0286V97.3926C47.7002 97.9869 47.9382 98.5563 48.36 98.9765C48.7819 99.3968 49.3534 99.6339 49.95 99.636H84.8536C85.4508 99.636 86.0234 99.3995 86.4457 98.9787C86.868 98.558 87.1054 97.9876 87.1054 97.3926V41.0308C87.1054 40.4358 86.868 39.8654 86.4457 39.4446C86.0234 39.0239 85.4508 38.7874 84.8536 38.7874H73.3129V32.3332C73.3114 31.7382 73.0734 31.1674 72.6509 30.747C72.2285 30.3265 71.656 30.0906 71.0588 30.0897ZM67.404 96.2095C66.6246 96.2095 65.8628 95.9793 65.2148 95.5479C64.5667 95.1165 64.0617 94.5038 63.7634 93.7864C63.4651 93.069 63.387 92.2783 63.5391 91.5167C63.6912 90.7551 64.0666 90.0568 64.6177 89.5077C65.1689 88.9586 65.871 88.5835 66.6354 88.432C67.3998 88.2805 68.1924 88.3583 68.9125 88.6555C69.6326 88.9526 70.2476 89.4558 70.6806 90.1014C71.1136 90.747 71.3447 91.507 71.3447 92.2835C71.3447 92.7993 71.2427 93.31 71.0445 93.7864C70.8463 94.2629 70.5563 94.6947 70.1902 95.0593C69.824 95.4239 69.3887 95.7144 68.9103 95.9115C68.4319 96.1087 67.9195 96.2098 67.4018 96.2095H67.404Z" fill="#3C3C3C"/>
<path d="M47.6981 95.8174H87.1054V100.208C87.1054 101.312 86.21 102.208 85.1054 102.208H49.6981C48.5936 102.208 47.6981 101.312 47.6981 100.208V95.8174Z" fill="#3C3C3C"/>
<path d="M80.1297 96.4746H54.6736C53.1739 96.4746 51.9583 95.1063 51.9583 93.4183V45.7906C51.9583 44.1027 53.1739 42.7343 54.6736 42.7343H80.1297C81.6293 42.7343 82.845 44.1027 82.845 45.7906V93.4183C82.845 95.1063 81.6293 96.4746 80.1297 96.4746Z" fill="#F7F2EC"/>
<path d="M66.7853 80.9092C66.7853 83.0179 66.7863 85.1274 66.7884 87.2378C66.7884 87.2884 66.7928 87.3396 66.7947 87.3903C66.7947 87.3945 66.7891 87.3987 66.7903 87.4023C66.793 87.4098 66.7964 87.4171 66.8004 87.424C66.6095 87.5571 66.3969 87.659 66.1711 87.7254C65.4129 88.0189 64.6729 88.3528 63.9203 88.6584C63.4401 88.8531 62.9644 89.0562 62.4849 89.2521C62.288 89.3335 62.2754 89.3244 62.2754 89.1213C62.2754 88.3619 62.2754 87.6018 62.2754 86.8424C62.2673 86.788 62.2807 86.7327 62.3131 86.6874C62.3455 86.6421 62.3945 86.6101 62.4503 86.5977C63.1186 86.3337 63.7774 86.0492 64.4432 85.7804C64.569 85.7304 64.5426 85.6454 64.5432 85.5628C64.5432 84.3881 64.5615 83.2122 64.5338 82.0393C64.5048 81.8978 64.5339 81.751 64.6152 81.6296C64.6964 81.5082 64.8235 81.4216 64.9699 81.3877C65.5419 81.1882 66.0843 80.914 66.6544 80.7042C66.7173 80.6801 66.7803 80.6205 66.7853 80.7452" fill="#3C3C3C"/>
<path d="M67.909 84.0757C67.909 83.0089 67.909 81.9421 67.909 80.8753C67.909 80.7969 67.8172 80.639 68.0645 80.7427C68.527 80.9368 68.9901 81.1302 69.4488 81.3273C69.6219 81.4078 69.7992 81.4798 69.9799 81.5431C70.0086 81.5469 70.0361 81.5563 70.0608 81.5707C70.0855 81.585 70.1069 81.6041 70.1236 81.6267C70.1404 81.6493 70.1521 81.6749 70.1581 81.702C70.1641 81.7291 70.1643 81.757 70.1586 81.7842C70.1586 83.0427 70.1586 84.3012 70.1523 85.5596C70.1424 85.6196 70.1553 85.6809 70.1885 85.7325C70.2218 85.7842 70.2732 85.8227 70.3336 85.8411C70.8162 86.037 71.2894 86.2522 71.7765 86.4402C71.9696 86.5003 72.1549 86.5812 72.329 86.6813C72.3561 86.6951 72.3782 86.7164 72.3926 86.7424C72.407 86.7684 72.4129 86.7979 72.4095 86.8272C72.4095 87.6107 72.4051 88.3985 72.4127 89.1844C72.4127 89.3652 72.312 89.352 72.2088 89.3002C71.6343 89.009 71.0245 88.7915 70.4267 88.5528C70.1077 88.425 69.7974 88.2773 69.4734 88.1592C68.97 87.9742 68.4779 87.7481 67.982 87.5384C67.9191 87.5107 67.916 87.4528 67.9153 87.3931C67.9153 86.9712 67.9059 86.5493 67.9046 86.1274C67.9046 85.4439 67.9046 84.7604 67.9046 84.0781" fill="#3C3C3C"/>
<path d="M71.7765 90.2785C71.7059 90.3298 71.6297 90.3737 71.5493 90.4093C70.9245 90.616 70.3411 90.9138 69.7295 91.1494C69.0014 91.4303 68.2891 91.7474 67.578 92.0656C67.4869 92.1015 67.3882 92.1166 67.2899 92.1096C67.1916 92.1026 67.0963 92.0737 67.0117 92.0252C66.7084 91.901 66.4101 91.7672 66.1081 91.6401C65.5613 91.4098 65.0195 91.1681 64.4651 90.9554C64.007 90.7794 63.5797 90.5365 63.1027 90.4003C63.0461 90.384 62.8995 90.3599 62.914 90.2592C62.9215 90.2044 63.0474 90.2098 63.1109 90.1791C63.5596 89.9633 64.0328 89.8024 64.4846 89.5914C64.7766 89.4552 65.0868 89.3431 65.3901 89.2225C65.9722 88.9899 66.5568 88.7602 67.1225 88.495C67.2131 88.4575 67.3119 88.4414 67.4105 88.448C67.509 88.4546 67.6045 88.4837 67.6888 88.533C68.0865 88.6933 68.4817 88.8621 68.8756 89.0285C69.5678 89.3202 70.26 89.6065 70.9421 89.9127C71.1856 90.0217 71.4411 90.1061 71.689 90.2068C71.7192 90.2188 71.7752 90.2164 71.7733 90.2791" fill="#3C3C3C"/>
</svg>
