<svg width="125" height="118" viewBox="0 0 125 118" fill="none" xmlns="http://www.w3.org/2000/svg">
<path opacity="0.4" d="M121.422 31.1541C121.28 31.1188 121.158 31.0309 121.079 30.9083C121 30.7856 120.971 30.6375 120.997 30.4941C121.024 30.3507 121.104 30.2227 121.221 30.1364C121.339 30.05 121.485 30.0117 121.63 30.0293C121.774 30.0469 121.907 30.119 122.001 30.231C122.094 30.343 122.141 30.4864 122.133 30.632C122.124 30.7776 122.06 30.9144 121.954 31.0146C121.848 31.1147 121.708 31.1707 121.562 31.1711C121.515 31.1712 121.468 31.1655 121.422 31.1541ZM123.189 29.0601C123.189 28.8938 123.238 28.7312 123.331 28.5929C123.423 28.4546 123.555 28.3468 123.708 28.2831C123.862 28.2195 124.031 28.2028 124.194 28.2353C124.357 28.2677 124.507 28.3478 124.625 28.4654C124.742 28.583 124.822 28.7329 124.855 28.896C124.887 29.0592 124.871 29.2283 124.807 29.3819C124.743 29.5356 124.636 29.6669 124.497 29.7594C124.359 29.8518 124.196 29.9011 124.03 29.9011C123.92 29.9011 123.81 29.8793 123.708 29.8371C123.606 29.7948 123.513 29.7329 123.435 29.6548C123.278 29.497 123.189 29.2831 123.189 29.0601ZM120.739 10.2591C120.739 10.0483 120.802 9.84222 120.919 9.66702C121.037 9.49183 121.203 9.35535 121.398 9.27485C121.593 9.19435 121.807 9.17344 122.014 9.21477C122.221 9.2561 122.411 9.3578 122.559 9.50702C122.708 9.65625 122.81 9.84628 122.851 10.0531C122.892 10.2599 122.87 10.4742 122.789 10.669C122.709 10.8637 122.572 11.03 122.396 11.147C122.221 11.264 122.015 11.3263 121.804 11.3261C121.664 11.3261 121.525 11.2985 121.396 11.2448C121.267 11.1912 121.149 11.1126 121.05 11.0135C120.951 10.9143 120.873 10.7967 120.82 10.6673C120.766 10.5378 120.739 10.3991 120.739 10.2591Z" fill="#888888"/>
<path opacity="0.4" d="M115.059 29.9C120.477 29.9 124.869 25.5079 124.869 20.09C124.869 14.6721 120.477 10.28 115.059 10.28C109.641 10.28 105.249 14.6721 105.249 20.09C105.249 25.5079 109.641 29.9 115.059 29.9Z" fill="#2D6759"/>
<path opacity="0.4" d="M26.512 111.647C41.1542 111.647 53.024 99.7772 53.024 85.135C53.024 70.4929 41.1542 58.623 26.512 58.623C11.8698 58.623 0 70.4929 0 85.135C0 99.7772 11.8698 111.647 26.512 111.647Z" fill="#2D6759"/>
<path opacity="0.4" d="M19.1851 115.33C19.1851 114.881 19.3183 114.442 19.5678 114.068C19.8174 113.695 20.172 113.404 20.587 113.232C21.002 113.06 21.4586 113.015 21.8991 113.103C22.3397 113.19 22.7443 113.407 23.0619 113.724C23.3795 114.042 23.5958 114.446 23.6834 114.887C23.7711 115.328 23.7261 115.784 23.5542 116.199C23.3823 116.614 23.0912 116.969 22.7178 117.218C22.3443 117.468 21.9052 117.601 21.4561 117.601C20.8538 117.601 20.2761 117.362 19.8502 116.936C19.4243 116.51 19.1851 115.932 19.1851 115.33ZM27.1281 115.439C27.1281 115.132 27.2191 114.832 27.3895 114.577C27.56 114.322 27.8023 114.123 28.0858 114.006C28.3692 113.889 28.6811 113.858 28.982 113.918C29.2829 113.978 29.5593 114.126 29.7762 114.343C29.993 114.56 30.1407 114.836 30.2004 115.137C30.2601 115.438 30.2293 115.75 30.1117 116.033C29.9942 116.317 29.7952 116.559 29.54 116.729C29.2849 116.899 28.9849 116.99 28.6781 116.99C28.2669 116.99 27.8727 116.826 27.582 116.535C27.2914 116.245 27.1281 115.85 27.1281 115.439ZM6.30908 59.2631C6.30908 58.6933 6.47805 58.1363 6.79462 57.6625C7.11119 57.1887 7.56114 56.8194 8.08757 56.6014C8.61401 56.3833 9.19328 56.3263 9.75214 56.4374C10.311 56.5486 10.8243 56.823 11.2273 57.2259C11.6302 57.6288 11.9046 58.1422 12.0157 58.701C12.1269 59.2599 12.0698 59.8392 11.8518 60.3656C11.6337 60.892 11.2645 61.342 10.7907 61.6585C10.3169 61.9751 9.75989 62.1441 9.19008 62.1441C8.42599 62.1441 7.6932 61.8405 7.15291 61.3003C6.61262 60.76 6.30908 60.0272 6.30908 59.2631Z" fill="#888888"/>
<path d="M40.0559 5.00011L40.0559 107.412C40.0559 110.174 42.2945 112.412 45.0559 112.412H105.98C108.741 112.412 110.98 110.174 110.98 107.412V5.00011C110.98 2.23869 108.741 0.000106812 105.98 0.000106812H45.0559C42.2945 0.000106812 40.0559 2.23869 40.0559 5.00011Z" fill="#F7F2EC"/>
<path d="M40.8059 5.00011L40.8059 107.412C40.8059 109.759 42.7087 111.662 45.0559 111.662H105.98C108.327 111.662 110.23 109.759 110.23 107.412V5.00011C110.23 2.65289 108.327 0.750107 105.98 0.750107H45.0559C42.7087 0.750107 40.8059 2.65289 40.8059 5.00011Z" stroke="#002C27" stroke-width="1.5"/>
<path d="M58.408 46.4719H55.174V47.9719H54.365V43.9289H55.174V45.4289H58.408V46.4719Z" fill="#F7F2EC"/>
<path d="M54.7909 43.056C54.4729 42.924 54.3169 42.756 54.3169 42.263C54.2919 42.0965 54.3254 41.9264 54.4119 41.782C54.4984 41.6375 54.6324 41.5276 54.7909 41.471L58.4069 39.955V41.047L57.4829 41.411V43.111L58.4069 43.475V44.563L54.7909 43.056ZM56.6969 42.863V41.663L55.4169 42.178C55.3509 42.202 55.2869 42.219 55.2869 42.263C55.2869 42.307 55.3499 42.326 55.4139 42.35L56.6969 42.863Z" fill="#F7F2EC"/>
<path d="M58.4081 39.752H54.9881C54.9046 39.7634 54.8197 39.7556 54.7397 39.7291C54.6598 39.7026 54.5869 39.6582 54.5268 39.5992C54.4667 39.5402 54.4209 39.4683 54.3928 39.3888C54.3648 39.3094 54.3553 39.2246 54.3651 39.141V36.992C54.3651 36.092 54.9261 35.9 55.7341 35.9C56.5421 35.9 57.1151 36.097 57.1151 36.992V38.712H58.4091L58.4081 39.752ZM56.3081 37.529C56.3081 37.096 56.1401 36.963 55.7361 36.963C55.3321 36.963 55.1721 37.095 55.1721 37.529V38.441C55.1721 38.641 55.2421 38.713 55.4441 38.713H56.3051L56.3081 37.529Z" fill="#F7F2EC"/>
<path d="M57.963 35.2358V32.9788C57.963 32.6728 57.749 32.5508 57.397 32.5508C57.183 32.5508 56.969 32.5968 56.836 33.0008L56.304 34.6008C56.2544 34.8192 56.1251 35.0112 55.9415 35.1393C55.7579 35.2675 55.5331 35.3226 55.311 35.2938C55.1849 35.3119 55.0563 35.3008 54.935 35.2614C54.8138 35.2221 54.7032 35.1555 54.6117 35.0668C54.5202 34.9781 54.4502 34.8696 54.4071 34.7497C54.364 34.6297 54.3489 34.5015 54.363 34.3748V32.1848H54.801V34.2768C54.801 34.5818 54.946 34.7328 55.321 34.7328C55.4444 34.752 55.5704 34.7234 55.6734 34.6527C55.7764 34.5821 55.8485 34.4748 55.875 34.3528L56.383 32.8278C56.563 32.2938 56.763 31.9938 57.398 31.9938C57.947 31.9938 58.404 32.2078 58.404 32.8308V35.2358H57.963Z" fill="#F7F2EC"/>
<path d="M58.408 31.384H54.365V30.847H58.408V31.384Z" fill="#F7F2EC"/>
<path d="M57.881 26.6019C58.256 26.6019 58.406 26.7869 58.406 27.1339V28.6009C58.406 29.9129 57.511 30.2129 56.384 30.2129C55.257 30.2129 54.363 29.9129 54.363 28.5259V26.6949H54.801V28.3459C54.801 29.3569 55.287 29.6509 56.384 29.6509C57.481 29.6509 57.963 29.3569 57.963 28.4259V27.4039C57.963 27.2039 57.893 27.1389 57.691 27.1389H56.488V26.6019H57.881Z" fill="#F7F2EC"/>
<path d="M57.9461 22.322C58.0129 22.3136 58.0807 22.3203 58.1447 22.3414C58.2086 22.3625 58.267 22.3976 58.3157 22.4442C58.3644 22.4907 58.402 22.5475 58.426 22.6105C58.4499 22.6734 58.4595 22.7409 58.4541 22.808C58.4588 22.9181 58.4312 23.0271 58.3747 23.1216C58.3182 23.2162 58.2352 23.2921 58.1361 23.34L55.0871 25.245C55.0191 25.286 54.9881 25.32 54.9881 25.361C54.9881 25.384 55.0121 25.442 55.1041 25.442H58.4041V25.967H54.7981C54.7322 25.9714 54.6662 25.9612 54.6047 25.9373C54.5432 25.9134 54.4877 25.8764 54.442 25.8287C54.3964 25.781 54.3617 25.724 54.3405 25.6615C54.3192 25.599 54.3119 25.5326 54.3191 25.467C54.313 25.3613 54.3375 25.256 54.3896 25.1638C54.4418 25.0716 54.5193 24.9964 54.6131 24.947L57.6861 23.028C57.7321 22.999 57.7861 22.975 57.7861 22.918C57.7861 22.861 57.7231 22.848 57.6861 22.848H54.3631V22.323L57.9461 22.322Z" fill="#F7F2EC"/>
<path d="M58.407 21.0049C58.4183 21.0824 58.4112 21.1614 58.3864 21.2357C58.3615 21.3099 58.3196 21.3773 58.2639 21.4323C58.2083 21.4874 58.1405 21.5286 58.066 21.5527C57.9915 21.5768 57.9124 21.583 57.835 21.5709H54.935C54.502 21.5709 54.363 21.3569 54.363 21.0049V18.5049H54.801V20.7709C54.801 20.9949 54.871 21.0339 55.073 21.0339H56.118V18.5629H56.556V21.0339H57.687C57.887 21.0339 57.964 20.9929 57.964 20.7689V18.4829H58.402V21.0049H58.407Z" fill="#F7F2EC"/>
<path d="M54.976 17.9028C54.543 17.9028 54.365 17.6888 54.365 17.3088V15.4368C54.365 14.6908 54.839 14.4548 55.59 14.4548C56.365 14.4548 56.878 14.6738 56.878 15.3738V16.0258H56.907L58.407 14.3678V15.0848L56.988 16.6318C56.9575 16.6723 56.9193 16.7064 56.8755 16.732C56.8317 16.7576 56.7833 16.7742 56.733 16.7808H56.641C56.52 16.7808 56.441 16.6938 56.441 16.5378V15.5508C56.441 15.0598 56.083 15.0138 55.592 15.0138C55.101 15.0138 54.805 15.0968 54.805 15.6388V17.0768C54.805 17.2628 54.865 17.3658 55.082 17.3658H58.409V17.9028H54.976Z" fill="#F7F2EC"/>
<path d="M47.032 11.226L47.032 101.541C47.032 103.888 48.9348 105.791 51.282 105.791H100.249C102.596 105.791 104.499 103.888 104.499 101.541V11.226C104.499 8.8788 102.596 6.97601 100.249 6.97601H51.282C48.9348 6.97601 47.032 8.8788 47.032 11.226Z" stroke="#002C27" stroke-width="1.5" stroke-dasharray="1.5 2"/>
<path d="M98.2791 9.25391H52.9121C51.2553 9.25391 49.9121 10.5971 49.9121 12.2539V98.8709C49.9121 100.528 51.2553 101.871 52.9121 101.871H98.2791C99.936 101.871 101.279 100.528 101.279 98.8709V12.2539C101.279 10.5971 99.936 9.25391 98.2791 9.25391Z" fill="#3C3C3C"/>
<path d="M73.4329 23.9861H58.6919C56.4828 23.9861 54.6919 25.7769 54.6919 27.9861V31.5501C54.6919 33.7592 56.4828 35.5501 58.6919 35.5501H73.4329C75.642 35.5501 77.4329 33.7592 77.4329 31.5501V27.9861C77.4329 25.7769 75.642 23.9861 73.4329 23.9861Z" fill="#F7F2EC"/>
<path d="M93.3879 42.5H57.0249C54.8158 42.5 53.0249 44.2909 53.0249 46.5V93.979C53.0249 96.1881 54.8158 97.979 57.0249 97.979H93.3879C95.597 97.979 97.3879 96.1881 97.3879 93.979V46.5C97.3879 44.2909 95.597 42.5 93.3879 42.5Z" fill="#F7F2EC"/>
<path d="M75.017 48.8921H75.016C72.8671 48.8921 71.125 50.6342 71.125 52.7831V53.5621C71.125 55.711 72.8671 57.4531 75.016 57.4531H75.017C77.1659 57.4531 78.908 55.711 78.908 53.5621V52.7831C78.908 50.6342 77.1659 48.8921 75.017 48.8921Z" fill="#3C3C3C"/>
<path d="M75.017 72.2412H75.016C72.8671 72.2412 71.125 73.9833 71.125 76.1322V76.9112C71.125 79.0602 72.8671 80.8022 75.016 80.8022H75.017C77.1659 80.8022 78.908 79.0602 78.908 76.9112V76.1322C78.908 73.9833 77.1659 72.2412 75.017 72.2412Z" fill="#3C3C3C"/>
<path d="M75.017 83.915H75.016C72.8671 83.915 71.125 85.6571 71.125 87.806V88.585C71.125 90.734 72.8671 92.476 75.016 92.476H75.017C77.1659 92.476 78.908 90.734 78.908 88.585V87.806C78.908 85.6571 77.1659 83.915 75.017 83.915Z" fill="#3C3C3C"/>
<path d="M75.017 60.5671H75.016C72.8671 60.5671 71.125 62.3092 71.125 64.4581V65.2371C71.125 67.3861 72.8671 69.1281 75.016 69.1281H75.017C77.1659 69.1281 78.908 67.3861 78.908 65.2371V64.4581C78.908 62.3092 77.1659 60.5671 75.017 60.5671Z" fill="#3C3C3C"/>
<path d="M86.692 48.8921H86.691C84.5421 48.8921 82.8 50.6342 82.8 52.7831V53.5621C82.8 55.711 84.5421 57.4531 86.691 57.4531H86.692C88.841 57.4531 90.583 55.711 90.583 53.5621V52.7831C90.583 50.6342 88.841 48.8921 86.692 48.8921Z" fill="#3C3C3C"/>
<path d="M86.692 72.2412H86.691C84.5421 72.2412 82.8 73.9833 82.8 76.1322V76.9112C82.8 79.0602 84.5421 80.8022 86.691 80.8022H86.692C88.841 80.8022 90.583 79.0602 90.583 76.9112V76.1322C90.583 73.9833 88.841 72.2412 86.692 72.2412Z" fill="#3C3C3C"/>
<path d="M86.692 83.915H86.691C84.5421 83.915 82.8 85.6571 82.8 87.806V88.585C82.8 90.734 84.5421 92.476 86.691 92.476H86.692C88.841 92.476 90.583 90.734 90.583 88.585V87.806C90.583 85.6571 88.841 83.915 86.692 83.915Z" fill="#3C3C3C"/>
<path d="M86.692 60.5671H86.691C84.5421 60.5671 82.8 62.3092 82.8 64.4581V65.2371C82.8 67.3861 84.5421 69.1281 86.691 69.1281H86.692C88.841 69.1281 90.583 67.3861 90.583 65.2371V64.4581C90.583 62.3092 88.841 60.5671 86.692 60.5671Z" fill="#3C3C3C"/>
<path d="M63.3429 48.8921H63.3419C61.193 48.8921 59.4509 50.6342 59.4509 52.7831V53.5621C59.4509 55.711 61.193 57.4531 63.3419 57.4531H63.3429C65.4919 57.4531 67.2339 55.711 67.2339 53.5621V52.7831C67.2339 50.6342 65.4919 48.8921 63.3429 48.8921Z" fill="#3C3C3C"/>
<path d="M63.3429 72.2412H63.3419C61.193 72.2412 59.4509 73.9833 59.4509 76.1322V76.9112C59.4509 79.0602 61.193 80.8022 63.3419 80.8022H63.3429C65.4919 80.8022 67.2339 79.0602 67.2339 76.9112V76.1322C67.2339 73.9833 65.4919 72.2412 63.3429 72.2412Z" fill="#3C3C3C"/>
<path d="M63.3429 83.915H63.3419C61.193 83.915 59.4509 85.6571 59.4509 87.806V88.585C59.4509 90.734 61.193 92.476 63.3419 92.476H63.3429C65.4919 92.476 67.2339 90.734 67.2339 88.585V87.806C67.2339 85.6571 65.4919 83.915 63.3429 83.915Z" fill="#3C3C3C"/>
<path d="M63.3429 60.5671H63.3419C61.193 60.5671 59.4509 62.3092 59.4509 64.4581V65.2371C59.4509 67.3861 61.193 69.1281 63.3419 69.1281H63.3429C65.4919 69.1281 67.2339 67.3861 67.2339 65.2371V64.4581C67.2339 62.3092 65.4919 60.5671 63.3429 60.5671Z" fill="#3C3C3C"/>
</svg>
