<svg width="106" height="132" viewBox="0 0 106 132" fill="none" xmlns="http://www.w3.org/2000/svg">
<path opacity="0.4" d="M102.348 25.2179C102.223 25.1867 102.114 25.1088 102.044 25.0001C101.974 24.8914 101.948 24.7601 101.971 24.6329C101.995 24.5058 102.066 24.3923 102.17 24.3157C102.274 24.239 102.403 24.205 102.532 24.2206C102.66 24.2361 102.778 24.3 102.861 24.3993C102.944 24.4985 102.985 24.6256 102.978 24.7547C102.97 24.8838 102.914 25.0051 102.82 25.094C102.726 25.1828 102.602 25.2325 102.472 25.2329C102.43 25.233 102.389 25.228 102.348 25.2179ZM103.916 23.3609C103.916 23.2133 103.96 23.0691 104.042 22.9464C104.124 22.8238 104.24 22.7281 104.377 22.6717C104.513 22.6152 104.663 22.6004 104.808 22.6292C104.952 22.658 105.085 22.7291 105.19 22.8334C105.294 22.9377 105.365 23.0706 105.394 23.2153C105.423 23.3601 105.408 23.5101 105.351 23.6464C105.295 23.7827 105.199 23.8992 105.077 23.9812C104.954 24.0631 104.81 24.1069 104.662 24.1069C104.464 24.1069 104.275 24.0283 104.135 23.8884C103.995 23.7485 103.916 23.5587 103.916 23.3609ZM101.742 6.67989C101.742 6.49274 101.798 6.3098 101.902 6.15421C102.006 5.99862 102.153 5.87737 102.326 5.8058C102.499 5.73423 102.69 5.71555 102.873 5.75214C103.057 5.78872 103.225 5.87892 103.357 6.01132C103.49 6.14372 103.58 6.31237 103.616 6.49594C103.653 6.67952 103.634 6.86976 103.562 7.0426C103.49 7.21544 103.369 7.36312 103.213 7.46694C103.057 7.57077 102.874 7.62608 102.687 7.62589C102.563 7.62589 102.44 7.60141 102.325 7.55386C102.211 7.5063 102.106 7.43661 102.019 7.34875C101.931 7.26089 101.861 7.1566 101.814 7.04183C101.766 6.92706 101.742 6.80407 101.742 6.67989Z" fill="#888888"/>
<path opacity="0.4" d="M96.704 24.108C101.511 24.108 105.408 20.211 105.408 15.404C105.408 10.5969 101.511 6.69995 96.704 6.69995C91.8969 6.69995 88 10.5969 88 15.404C88 20.211 91.8969 24.108 96.704 24.108Z" fill="#2D6759"/>
<path opacity="0.4" d="M23.522 125.764C36.5128 125.764 47.044 115.233 47.044 102.242C47.044 89.2511 36.5128 78.72 23.522 78.72C10.5312 78.72 0 89.2511 0 102.242C0 115.233 10.5312 125.764 23.522 125.764Z" fill="#2D6759"/>
<path opacity="0.4" d="M17.0217 129.034C17.0217 128.635 17.1398 128.246 17.3612 127.914C17.5827 127.583 17.8974 127.325 18.2655 127.172C18.6337 127.02 19.0389 126.98 19.4298 127.058C19.8206 127.135 20.1797 127.327 20.4615 127.609C20.7433 127.891 20.9352 128.25 21.0129 128.641C21.0907 129.032 21.0508 129.437 20.8983 129.805C20.7458 130.173 20.4875 130.488 20.1561 130.709C19.8248 130.931 19.4352 131.049 19.0367 131.049C18.5022 131.049 17.9897 130.837 17.6118 130.459C17.234 130.081 17.0217 129.568 17.0217 129.034ZM24.0697 129.134C24.0697 128.862 24.1504 128.596 24.3016 128.369C24.4529 128.143 24.6678 127.967 24.9193 127.863C25.1708 127.758 25.4475 127.731 25.7145 127.784C25.9814 127.838 26.2266 127.969 26.419 128.161C26.6114 128.354 26.7424 128.599 26.7953 128.866C26.8483 129.133 26.8209 129.41 26.7166 129.661C26.6123 129.913 26.4358 130.127 26.2094 130.278C25.983 130.43 25.7168 130.51 25.4447 130.51C25.0797 130.51 24.7297 130.365 24.4717 130.107C24.2136 129.849 24.0697 129.499 24.0697 129.134ZM5.59766 79.2889C5.59785 78.7834 5.74793 78.2893 6.02891 77.8691C6.30988 77.4489 6.70915 77.1215 7.17621 76.9282C7.64328 76.7349 8.15717 76.6844 8.65292 76.7831C9.14867 76.8819 9.60401 77.1254 9.96137 77.4829C10.3187 77.8404 10.5621 78.2958 10.6606 78.7916C10.7592 79.2874 10.7085 79.8013 10.515 80.2683C10.3215 80.7352 9.9939 81.1344 9.57359 81.4152C9.15328 81.696 8.65914 81.8459 8.15366 81.8459C7.81791 81.8459 7.48546 81.7797 7.17529 81.6512C6.86511 81.5227 6.5833 81.3344 6.34594 81.0969C6.10858 80.8594 5.92033 80.5776 5.79193 80.2673C5.66354 79.9571 5.59753 79.6246 5.59766 79.2889Z" fill="#888888"/>
<path d="M38.7637 6.39714L38.7637 120.337C38.7637 123.87 40.2115 126.734 41.9975 126.734H86.7662C88.5522 126.734 90 123.87 90 120.337V6.39714C90 2.86417 88.5522 0.0001297 86.7662 0.0001297H41.9975C40.2115 0.0001297 38.7637 2.86417 38.7637 6.39714Z" fill="#F7F2EC"/>
<path d="M39.248 6.39722L39.248 120.337C39.248 123.34 40.4787 125.774 41.9968 125.774H86.7655C88.2836 125.774 89.5142 123.34 89.5142 120.337V6.39722C89.5142 3.39419 88.2836 0.959755 86.7655 0.959755H41.9968C40.4787 0.959755 39.248 3.39419 39.248 6.39722Z" stroke="#002C27" stroke-width="1.5"/>
<path d="M52.0204 51.907H49.6817V53.584H49.0996V49.069H49.6817V50.746H52.0204V51.907Z" fill="#F7F2EC"/>
<path d="M49.4065 48.0929C49.1776 47.9449 49.0644 47.7569 49.0644 47.2029C49.0464 47.0171 49.0706 46.8273 49.133 46.6661C49.1954 46.5049 49.2921 46.3821 49.4065 46.3189L52.0188 44.6289V45.8489L51.352 46.2549V48.1549L52.0194 48.5639V49.7759L49.4065 48.0929ZM50.7835 47.8759V46.5369L49.8573 47.1119C49.8121 47.1389 49.7655 47.1569 49.7655 47.2029C49.7655 47.2489 49.8108 47.2729 49.8573 47.3029L50.7835 47.8759Z" fill="#F7F2EC"/>
<path d="M52.0193 44.4028H49.5513C49.4907 44.4164 49.429 44.4082 49.3708 44.379C49.3127 44.3497 49.2597 44.3001 49.2159 44.2341C49.1721 44.168 49.1387 44.0873 49.1184 43.9981C49.098 43.9089 49.0913 43.8137 49.0985 43.7198V41.3198C49.0985 40.3198 49.5034 40.0998 50.0874 40.0998C50.6715 40.0998 51.0847 40.3198 51.0847 41.3198V43.2418H52.02V44.4028H52.0193ZM50.5001 41.9188C50.5001 41.4348 50.3785 41.2868 50.0868 41.2868C49.7951 41.2868 49.6806 41.4358 49.6806 41.9188V42.9378C49.6806 43.1638 49.7311 43.2378 49.8747 43.2378H50.4968L50.5001 41.9188Z" fill="#F7F2EC"/>
<path d="M51.7016 39.3591V36.8371C51.7016 36.4951 51.547 36.3591 51.2928 36.3591C51.1383 36.3591 50.9837 36.4101 50.888 36.8591L50.5038 38.6491C50.4674 38.8937 50.3733 39.1085 50.24 39.2516C50.1066 39.3947 49.9436 39.4559 49.7826 39.4231C49.6915 39.4434 49.5986 39.4311 49.511 39.3872C49.4234 39.3434 49.3435 39.269 49.2773 39.17C49.2112 39.0709 49.1606 38.9498 49.1295 38.8158C49.0984 38.6818 49.0875 38.5386 49.0977 38.3971V35.9511H49.414V38.2871C49.414 38.6291 49.5181 38.7971 49.7898 38.7971C49.879 38.8186 49.9701 38.7866 50.0445 38.7076C50.119 38.6286 50.171 38.5086 50.1901 38.3721L50.5568 36.6721C50.6862 36.0721 50.8317 35.7371 51.2909 35.7371C51.6874 35.7371 52.0172 35.9761 52.0172 36.6721V39.3591H51.7016Z" fill="#F7F2EC"/>
<path d="M52.0204 35.0552H49.0996V34.4552H52.0204V35.0552Z" fill="#F7F2EC"/>
<path d="M51.6368 29.714C51.9078 29.714 52.0158 29.921 52.0158 30.308V31.948C52.0158 33.413 51.3691 33.748 50.5554 33.748C49.7418 33.748 49.0957 33.412 49.0957 31.864V29.819H49.412V31.663C49.412 32.792 49.7632 33.12 50.5561 33.12C51.349 33.12 51.6996 32.792 51.6996 31.748V30.61C51.6996 30.384 51.6491 30.31 51.5055 30.31H50.6305V29.71L51.6368 29.714Z" fill="#F7F2EC"/>
<path d="M51.6865 24.9329C51.7347 24.9236 51.7837 24.931 51.8299 24.9547C51.876 24.9783 51.9182 25.0175 51.9533 25.0696C51.9885 25.1216 52.0157 25.185 52.0329 25.2553C52.0502 25.3256 52.0571 25.401 52.0532 25.4759C52.0566 25.5987 52.0367 25.7204 51.9959 25.826C51.9551 25.9315 51.8952 26.0163 51.8236 26.0699L49.6214 28.1989C49.5709 28.2439 49.5502 28.2819 49.5502 28.3279C49.5502 28.3539 49.567 28.4189 49.6337 28.4189H52.0202V29.0049H49.4125C49.365 29.0105 49.3174 28.9999 49.2729 28.9737C49.2285 28.9476 49.1883 28.9066 49.1552 28.8537C49.1222 28.8008 49.0971 28.7372 49.0817 28.6676C49.0664 28.598 49.0612 28.524 49.0664 28.4509C49.0621 28.3328 49.0797 28.2152 49.1173 28.1122C49.155 28.0092 49.2109 27.9251 49.2786 27.8699L51.4983 25.7229C51.5313 25.6909 51.5694 25.6639 51.5694 25.5999C51.5694 25.5359 51.5241 25.5219 51.4983 25.5219H49.0981V24.9349H51.6852L51.6865 24.9329Z" fill="#F7F2EC"/>
<path d="M52.0171 23.4632C52.0246 23.5496 52.019 23.6374 52.0008 23.7199C51.9827 23.8023 51.9523 23.8771 51.9123 23.9384C51.8722 23.9996 51.8235 24.0457 51.77 24.0729C51.7165 24.1001 51.6596 24.1078 51.6038 24.0952H49.509C49.1966 24.0952 49.0957 23.8562 49.0957 23.4632V20.6702H49.412V23.1952C49.412 23.4472 49.4624 23.4952 49.606 23.4952H50.3634V20.7352H50.6796V23.4952H51.4971C51.6433 23.4952 51.697 23.4502 51.697 23.1952V20.6462H52.0139V23.4632H52.0171Z" fill="#F7F2EC"/>
<path d="M49.5413 19.998C49.229 19.998 49.0996 19.759 49.0996 19.334V17.243C49.0996 16.41 49.4417 16.143 49.9844 16.143C50.5438 16.143 50.9144 16.388 50.9144 17.169V17.898H50.9351L52.0204 16.05V16.85L50.994 18.579C50.972 18.6244 50.9443 18.6625 50.9127 18.6912C50.881 18.7199 50.846 18.7385 50.8096 18.746H50.745C50.6577 18.746 50.5988 18.646 50.5988 18.475V17.375C50.5988 16.827 50.3401 16.775 49.985 16.775C49.63 16.775 49.4178 16.866 49.4178 17.475V19.076C49.4172 19.283 49.4592 19.398 49.617 19.398H52.021V19.998H49.5413Z" fill="#F7F2EC"/>
<mask id="path-16-inside-1_1868_1911" fill="white">
<rect x="48" y="8.73438" width="35" height="109" rx="4"/>
</mask>
<rect x="48" y="8.73438" width="35" height="109" rx="4" stroke="#323232" stroke-width="16" mask="url(#path-16-inside-1_1868_1911)"/>
<mask id="path-17-inside-2_1868_1911" fill="white">
<rect x="49" y="59.7344" width="34" height="28" rx="4"/>
</mask>
<rect x="49" y="59.7344" width="34" height="28" rx="4" stroke="#323232" stroke-width="16" mask="url(#path-17-inside-2_1868_1911)"/>
</svg>
