<svg width="124" height="123" viewBox="0 0 124 123" fill="none" xmlns="http://www.w3.org/2000/svg">
<path opacity="0.4" d="M120.72 20.8895C120.585 20.8561 120.469 20.7726 120.394 20.656C120.319 20.5395 120.291 20.3987 120.316 20.2624C120.341 20.126 120.417 20.0044 120.529 19.9222C120.64 19.8401 120.779 19.8036 120.917 19.8203C121.054 19.8369 121.181 19.9054 121.269 20.0118C121.358 20.1182 121.403 20.2545 121.395 20.3929C121.387 20.5313 121.326 20.6614 121.226 20.7567C121.125 20.852 120.992 20.9052 120.853 20.9056C120.808 20.9057 120.764 20.9003 120.72 20.8895ZM122.401 18.8986C122.401 18.7404 122.448 18.5857 122.536 18.4542C122.624 18.3227 122.749 18.2202 122.895 18.1596C123.041 18.0991 123.202 18.0833 123.357 18.1141C123.512 18.145 123.655 18.2212 123.767 18.333C123.878 18.4449 123.955 18.5874 123.985 18.7425C124.016 18.8977 124 19.0585 123.94 19.2046C123.879 19.3508 123.777 19.4757 123.645 19.5636C123.514 19.6515 123.359 19.6984 123.201 19.6984C122.989 19.6984 122.785 19.6141 122.635 19.4641C122.485 19.3141 122.401 19.1107 122.401 18.8986ZM120.07 1.01424C120.07 0.813598 120.13 0.617462 120.241 0.450648C120.353 0.283834 120.511 0.153836 120.697 0.0771023C120.882 0.000368361 121.086 -0.0196543 121.283 0.0195674C121.48 0.0587891 121.66 0.155493 121.802 0.297444C121.944 0.439396 122.04 0.620217 122.079 0.817031C122.118 1.01385 122.098 1.21781 122.021 1.40312C121.944 1.58843 121.814 1.74676 121.647 1.85807C121.48 1.96939 121.284 2.0287 121.083 2.02848C120.95 2.02848 120.819 2.00224 120.696 1.95126C120.573 1.90027 120.461 1.82555 120.367 1.73135C120.273 1.63716 120.198 1.52534 120.147 1.40229C120.096 1.27925 120.07 1.14738 120.07 1.01424Z" fill="#888888"/>
<path opacity="0.4" d="M114.668 19.6993C119.821 19.6993 123.999 15.5212 123.999 10.3674C123.999 5.21352 119.821 1.03549 114.668 1.03549C109.514 1.03549 105.336 5.21352 105.336 10.3674C105.336 15.5212 109.514 19.6993 114.668 19.6993Z" fill="#2D6759"/>
<path opacity="0.4" d="M25.2188 116.482C39.1468 116.482 50.4376 105.191 50.4376 91.2632C50.4376 77.3352 39.1468 66.0444 25.2188 66.0444C11.2908 66.0444 0 77.3352 0 91.2632C0 105.191 11.2908 116.482 25.2188 116.482Z" fill="#2D6759"/>
<path opacity="0.4" d="M18.2491 119.988C18.2491 119.561 18.3758 119.143 18.6132 118.788C18.8505 118.433 19.1879 118.156 19.5827 117.992C19.9775 117.829 20.4118 117.786 20.8309 117.869C21.25 117.953 21.6349 118.159 21.937 118.461C22.2392 118.763 22.4449 119.148 22.5283 119.567C22.6116 119.986 22.5689 120.42 22.4053 120.815C22.2418 121.21 21.9649 121.547 21.6097 121.785C21.2544 122.022 20.8367 122.149 20.4094 122.149C19.8365 122.149 19.287 121.921 18.8818 121.516C18.4767 121.111 18.2491 120.561 18.2491 119.988ZM25.8055 120.096C25.8055 119.804 25.892 119.518 26.0542 119.276C26.2164 119.033 26.4468 118.844 26.7164 118.732C26.9861 118.621 27.2828 118.592 27.569 118.649C27.8552 118.706 28.118 118.846 28.3243 119.053C28.5306 119.259 28.671 119.522 28.7278 119.808C28.7846 120.095 28.7552 120.391 28.6434 120.661C28.5316 120.93 28.3423 121.161 28.0996 121.323C27.8568 121.485 27.5715 121.571 27.2797 121.571C26.8884 121.571 26.5132 121.415 26.2365 121.139C25.9599 120.862 25.8055 120.487 25.8055 120.096ZM6.00098 66.6548C6.00119 66.1129 6.16209 65.5832 6.46334 65.1327C6.76458 64.6821 7.19265 64.3311 7.6934 64.1238C8.19416 63.9166 8.74513 63.8625 9.27664 63.9683C9.80815 64.0742 10.2963 64.3353 10.6795 64.7185C11.0626 65.1018 11.3235 65.5901 11.4292 66.1217C11.5348 66.6532 11.4805 67.2042 11.273 67.7049C11.0656 68.2055 10.7144 68.6335 10.2637 68.9345C9.81309 69.2356 9.28331 69.3963 8.74136 69.3963C8.3814 69.3963 8.02496 69.3254 7.69241 69.1876C7.35986 69.0498 7.05772 68.8479 6.80324 68.5933C6.54876 68.3387 6.34692 68.0365 6.20927 67.7039C6.07161 67.3713 6.00084 67.0148 6.00098 66.6548Z" fill="#888888"/>
<path d="M26.1995 9.93481L26.1995 105.416C26.1995 108.377 28.5995 110.777 31.5601 110.777H105.773C108.734 110.777 111.134 108.377 111.134 105.416V9.93481C111.134 6.97418 108.734 4.57412 105.773 4.57412H31.5601C28.5995 4.57412 26.1995 6.97418 26.1995 9.93481Z" fill="#F7F2EC"/>
<path d="M69.281 72.4592C67.045 76.3317 64.7243 80.1551 62.6119 84.0996C61.5769 86.044 60.7469 86.6365 58.6737 85.2519C55.38 83.0485 51.9513 81.0565 48.4081 79.2876C45.8042 77.9782 45.3062 76.9504 46.9434 74.1908C54.5043 61.4636 61.7852 48.5728 69.1345 35.7212C69.9775 34.2481 71.1981 32.9715 70.5081 30.8568C69.421 27.5212 71.3934 26.7748 74.1762 27.3051C77.4873 27.9122 80.8791 27.9244 84.1944 27.3411C85.5484 27.1185 87.6998 26.4802 88.3085 27.8681C88.7673 28.6179 88.9496 29.506 88.8235 30.3772C88.6973 31.2484 88.2708 32.0473 87.6185 32.6343C86.3491 33.7538 89.1092 41.5512 90.8114 42.6576C92.5137 43.7641 92.3379 48.3698 90.4338 48.6611C88.2466 48.9885 88.6209 50.2128 88.6144 51.5025C88.5949 56.8644 88.6144 62.2264 88.6144 67.5883C88.6144 68.9566 88.4094 70.1219 90.5348 70.3969C92.1849 70.6097 92.5592 75.8276 91.049 76.0109C87.957 76.3906 88.6372 78.3612 88.6242 80.1616C88.5591 88.6726 88.5689 88.6726 80.2171 88.6464C77.0925 88.6464 72.9329 89.7169 71.1037 88.1325C68.9392 86.2535 70.5894 81.9489 70.3974 78.7017C70.2802 76.6787 70.3746 74.6458 70.3746 72.6163L69.3005 72.4559M78.6418 30.7324C75.8003 30.7913 74.199 33.1351 72.7246 35.7048C66.3886 46.7538 60.0406 57.7963 53.6808 68.8322C49.3715 76.3611 49.4268 76.2826 57.0495 80.7116C59.227 81.9751 60.2848 82.0733 61.6908 79.5528C68.7668 66.8779 76.0933 54.3471 83.3059 41.7509C83.9365 40.7014 84.4444 39.5821 84.8193 38.4152C85.076 37.4843 85.1077 36.5051 84.9117 35.5594C84.7156 34.6137 84.2976 33.7288 83.6924 32.9786C83.0873 32.2284 82.3125 31.6346 81.4328 31.2467C80.5531 30.8588 79.5939 30.6881 78.6352 30.7488M83.2798 49.8232C80.3212 54.1246 76.1909 57.8399 75.6474 63.156C75.1884 67.6308 75.7613 72.2038 75.5172 76.7114C75.3447 79.867 77.2422 79.579 79.1332 79.4087C80.8713 79.2549 83.397 80.5872 83.3319 76.8751C83.1789 67.86 83.2798 58.8383 83.2798 49.8232Z" fill="#24292F"/>
<path d="M27.0032 9.93472L27.0032 105.416C27.0032 107.933 29.0432 109.973 31.5598 109.973H105.773C108.29 109.973 110.33 107.933 110.33 105.416V9.93472C110.33 7.41818 108.29 5.37813 105.773 5.37813H31.5598C29.0432 5.37813 27.0032 7.41818 27.0032 9.93472Z" stroke="#002C27" stroke-width="1.5"/>
<path d="M34.4595 17.3913L34.4595 97.9613C34.4595 100.478 36.4995 102.518 39.0161 102.518H98.9099C101.426 102.518 103.467 100.478 103.467 97.9613V17.3913C103.467 14.8747 101.426 12.8347 98.9099 12.8347H39.0161C36.4995 12.8347 34.4595 14.8747 34.4595 17.3913Z" stroke="#002C27" stroke-width="1.5" stroke-dasharray="1.5 2"/>
</svg>
