<svg width="132" height="126" viewBox="0 0 132 126" fill="none" xmlns="http://www.w3.org/2000/svg">
<path opacity="0.4" d="M128.133 33.2717C127.974 33.2341 127.837 33.1402 127.748 33.0092C127.66 32.8782 127.627 32.72 127.657 32.5668C127.686 32.4136 127.776 32.277 127.908 32.1848C128.04 32.0925 128.203 32.0516 128.366 32.0704C128.528 32.0892 128.677 32.1662 128.782 32.2858C128.886 32.4054 128.939 32.5586 128.93 32.7141C128.92 32.8696 128.848 33.0157 128.73 33.1227C128.611 33.2297 128.453 33.2895 128.29 33.2899C128.237 33.29 128.184 33.2839 128.133 33.2717ZM130.114 31.0353C130.114 30.8576 130.169 30.684 130.273 30.5363C130.377 30.3886 130.524 30.2734 130.696 30.2055C130.868 30.1375 131.058 30.1197 131.241 30.1543C131.424 30.189 131.592 30.2745 131.724 30.4002C131.856 30.5258 131.945 30.6858 131.982 30.8601C132.018 31.0343 131.999 31.2149 131.928 31.379C131.857 31.5431 131.736 31.6834 131.581 31.7821C131.426 31.8808 131.243 31.9335 131.057 31.9335C130.933 31.9335 130.811 31.9103 130.696 31.8651C130.582 31.82 130.478 31.7538 130.39 31.6704C130.213 31.502 130.114 31.2735 130.114 31.0353ZM127.367 10.9553C127.367 10.7301 127.438 10.5101 127.569 10.323C127.701 10.1359 127.888 9.9901 128.106 9.90413C128.324 9.81815 128.565 9.79582 128.797 9.83996C129.028 9.88409 129.241 9.99272 129.408 10.1521C129.575 10.3115 129.689 10.5144 129.735 10.7353C129.781 10.9562 129.757 11.1851 129.666 11.3931C129.575 11.601 129.422 11.7787 129.225 11.9036C129.029 12.0285 128.798 12.0951 128.561 12.0949C128.404 12.0949 128.249 12.0654 128.104 12.0081C127.959 11.9508 127.827 11.8668 127.716 11.761C127.605 11.6551 127.517 11.5295 127.457 11.3913C127.398 11.253 127.367 11.1049 127.367 10.9553Z" fill="#888888"/>
<path opacity="0.4" d="M120.999 31.9322C127.073 31.9322 131.997 27.2414 131.997 21.4549C131.997 15.6684 127.073 10.9775 120.999 10.9775C114.924 10.9775 110 15.6684 110 21.4549C110 27.2414 114.924 31.9322 120.999 31.9322Z" fill="#2F4F4F"/>
<path opacity="0.4" d="M29.7244 119.242C46.1407 119.242 59.4488 106.565 59.4488 90.9264C59.4488 75.2881 46.1407 62.6108 29.7244 62.6108C13.3081 62.6108 0 75.2881 0 90.9264C0 106.565 13.3081 119.242 29.7244 119.242Z" fill="#2F4F4F"/>
<path opacity="0.4" d="M21.5104 123.175C21.5104 122.696 21.6597 122.227 21.9395 121.828C22.2193 121.429 22.6169 121.118 23.0822 120.934C23.5474 120.751 24.0594 120.703 24.5533 120.796C25.0472 120.89 25.5009 121.121 25.857 121.46C26.213 121.799 26.4555 122.232 26.5538 122.702C26.652 123.173 26.6016 123.66 26.4089 124.104C26.2162 124.547 25.8898 124.926 25.4711 125.192C25.0524 125.459 24.5601 125.601 24.0565 125.601C23.3813 125.601 22.7336 125.345 22.2561 124.89C21.7786 124.436 21.5104 123.819 21.5104 123.175ZM30.4158 123.292C30.4158 122.964 30.5178 122.644 30.7089 122.371C30.9001 122.099 31.1717 121.887 31.4895 121.761C31.8073 121.636 32.157 121.603 32.4944 121.667C32.8317 121.731 33.1416 121.889 33.3847 122.121C33.6279 122.353 33.7934 122.648 33.8604 122.969C33.9274 123.291 33.8928 123.624 33.761 123.926C33.6292 124.229 33.4061 124.488 33.12 124.67C32.8339 124.851 32.4976 124.948 32.1536 124.948C31.6926 124.948 31.2506 124.773 30.9247 124.463C30.5989 124.152 30.4158 123.731 30.4158 123.292ZM7.07422 63.2943C7.07422 62.6857 7.26366 62.0908 7.61859 61.5848C7.97351 61.0788 8.47798 60.6844 9.0682 60.4515C9.65842 60.2186 10.3079 60.1577 10.9345 60.2764C11.561 60.3951 12.1366 60.6882 12.5883 61.1185C13.0401 61.5488 13.3477 62.0971 13.4723 62.694C13.597 63.2909 13.533 63.9095 13.2885 64.4718C13.044 65.034 12.63 65.5146 12.0988 65.8527C11.5677 66.1908 10.9432 66.3713 10.3043 66.3713C9.44763 66.3713 8.62605 66.0471 8.02029 65.47C7.41453 64.893 7.07422 64.1103 7.07422 63.2943Z" fill="#888888"/>
<path d="M36.9082 5.3402L36.9082 114.719C36.9082 117.668 39.418 120.059 42.514 120.059H110.82C113.916 120.059 116.426 117.668 116.426 114.719L116.426 5.3402C116.426 2.39092 113.916 6.86646e-05 110.82 6.86646e-05H42.514C39.418 6.86646e-05 36.9082 2.39092 36.9082 5.3402Z" fill="#F7F2EC"/>
<path d="M100.773 47.8643C100.773 52.8558 100.498 57.8677 100.83 62.8349C101.31 67.5764 100.77 72.3663 99.2457 76.8796C97.7212 81.3928 95.2482 85.5236 91.9946 88.9917C90.9913 90.0689 90.2024 91.3534 89.2437 92.4793C87.5243 94.5117 86.9539 98.17 84.3001 98.5765C79.766 99.0296 75.2031 99.1193 70.6548 98.8447C69.2834 98.8447 68.535 97.6701 67.9727 96.6335C65.4894 92.4619 62.5783 88.5628 59.2871 85.0001C55.1203 79.9681 52.9162 73.5857 53.0854 67.0419C52.964 53.6851 53.1097 40.3282 53.0005 26.9713C52.9721 23.5488 54.2505 21.9879 57.6851 22.0001C70.4417 22.0461 83.1997 22.0461 95.9591 22.0001C99.3128 22.0001 100.87 23.3293 100.814 26.829C100.692 33.8408 100.777 40.8606 100.777 47.8765M76.8201 32.4669C72.2609 32.4669 67.6976 32.5523 63.1424 32.4303C60.7151 32.3653 59.7766 33.3611 59.7928 35.7553C59.8494 45.0528 59.8494 54.349 59.7928 63.6438C59.7928 65.8957 60.7556 66.8143 62.9118 66.8102C72.1651 66.7912 81.4198 66.7912 90.6757 66.8102C93.014 66.8102 94.0497 65.916 94.0294 63.4487C93.9485 54.2866 93.9485 45.1246 94.0294 35.9626C94.0537 33.3855 93.1273 32.3287 90.4856 32.41C85.9304 32.5523 81.3672 32.4506 76.8079 32.4506" fill="black"/>
<path d="M37.748 5.34044L37.748 114.719C37.748 117.226 39.8814 119.258 42.513 119.258H110.819C113.451 119.258 115.584 117.226 115.584 114.719L115.584 5.34044C115.584 2.83356 113.451 0.801323 110.819 0.801323H42.513C39.8814 0.801323 37.748 2.83356 37.748 5.34044Z" stroke="#002C27" stroke-width="1.5"/>
<path d="M44.7285 11.9898L44.7285 108.449C44.7285 110.956 46.8619 112.988 49.4935 112.988H104.394C107.025 112.988 109.159 110.956 109.159 108.449V11.9898C109.159 9.48296 107.025 7.45072 104.394 7.45072H49.4935C46.8619 7.45072 44.7285 9.48296 44.7285 11.9898Z" stroke="#002C27" stroke-width="1.5" stroke-dasharray="1.5 2"/>
</svg>
