<svg width="22" height="25" viewBox="0 0 22 25" fill="none" xmlns="http://www.w3.org/2000/svg">
<mask id="mask0_396_1349" style="mask-type:luminance" maskUnits="userSpaceOnUse" x="0" y="0" width="22" height="25">
<path d="M21.9693 0.770996H0.841309V24.8632H21.9693V0.770996Z" fill="white"/>
</mask>
<g mask="url(#mask0_396_1349)">
<path d="M10.2342 1.27723C10.2342 5.71638 10.2364 10.1572 10.2407 14.5998C10.2407 14.7063 10.2499 14.8142 10.2538 14.9208C10.2538 14.9297 10.242 14.9385 10.2447 14.9462C10.2503 14.9619 10.2573 14.9772 10.2656 14.9918C9.86805 15.2721 9.42517 15.4865 8.95505 15.6262C7.37579 16.2442 5.83454 16.9471 4.26708 17.5904C3.26711 18.0002 2.27631 18.4278 1.27764 18.8401C0.867426 19.0114 0.841214 18.9924 0.841214 18.5648C0.841214 16.9661 0.841214 15.3661 0.841214 13.7674C0.824343 13.653 0.852405 13.5366 0.91986 13.4412C0.987315 13.3459 1.08926 13.2784 1.20556 13.2523C2.5974 12.6965 3.96958 12.0977 5.35618 11.5318C5.6183 11.4265 5.56325 11.2476 5.56456 11.0737C5.56456 8.60082 5.60257 6.12536 5.54491 3.65625C5.48446 3.35837 5.5452 3.0494 5.71443 2.79383C5.88366 2.53826 6.14831 2.35585 6.45314 2.28466C7.64446 1.86469 8.77419 1.28738 9.96158 0.84583C10.0926 0.795077 10.2237 0.669465 10.2342 0.932109" fill="black"/>
<path d="M12.575 7.94225C12.575 5.69645 12.575 3.45065 12.575 1.20485C12.575 1.0399 12.3837 0.70747 12.8988 0.925706C13.8621 1.33426 14.8266 1.74155 15.7821 2.15646C16.1426 2.3259 16.5118 2.47751 16.8882 2.61069C16.9478 2.61872 17.0051 2.63848 17.0566 2.66874C17.1081 2.699 17.1526 2.73913 17.1875 2.78666C17.2223 2.83419 17.2468 2.88813 17.2593 2.94514C17.2719 3.00216 17.2722 3.06106 17.2604 3.11822C17.2604 5.7675 17.2604 8.41678 17.2473 11.0661C17.2266 11.1922 17.2534 11.3213 17.3226 11.43C17.3919 11.5387 17.4991 11.6198 17.6247 11.6586C18.63 12.071 19.6155 12.5239 20.6299 12.9198C21.0321 13.0463 21.4181 13.2165 21.7806 13.4273C21.8371 13.4564 21.8832 13.5012 21.9131 13.5559C21.9431 13.6107 21.9553 13.6728 21.9484 13.7344C21.9484 15.3838 21.9392 17.0422 21.9549 18.6967C21.9549 19.0774 21.7452 19.0494 21.5303 18.9403C20.3337 18.3275 19.0638 17.8694 17.8187 17.367C17.1542 17.098 16.5081 16.7871 15.8332 16.5385C14.7847 16.1489 13.7598 15.6731 12.7271 15.2316C12.596 15.1732 12.5895 15.0514 12.5882 14.9258C12.5882 14.0376 12.5685 13.1495 12.5659 12.2613C12.5659 10.8225 12.5659 9.38362 12.5659 7.94732" fill="black"/>
<path d="M20.6298 21.0008C20.4828 21.1088 20.3242 21.2011 20.1567 21.2762C18.8553 21.7114 17.6404 22.3382 16.3665 22.8343C14.8501 23.4255 13.3665 24.0929 11.8856 24.7629C11.6957 24.8385 11.4902 24.8702 11.2854 24.8555C11.0807 24.8407 10.8823 24.7799 10.706 24.6779C10.0743 24.4165 9.45313 24.1348 8.82405 23.8671C7.68515 23.3824 6.55673 22.8736 5.40211 22.4257C4.448 22.0552 3.55811 21.5439 2.56469 21.2571C2.44674 21.2229 2.14137 21.1721 2.17151 20.9602C2.18724 20.8448 2.44936 20.8562 2.58173 20.7915C3.51617 20.3373 4.50174 19.9985 5.44274 19.5544C6.05085 19.2676 6.69697 19.0316 7.32867 18.7779C8.54096 18.2881 9.75849 17.8047 10.9367 17.2464C11.1256 17.1674 11.3313 17.1334 11.5365 17.1473C11.7418 17.1612 11.9406 17.2226 12.1162 17.3264C12.9445 17.6639 13.7676 18.0191 14.588 18.3693C16.0296 18.9834 17.4713 19.5861 18.892 20.2307C19.3992 20.4603 19.9313 20.638 20.4476 20.8499C20.5105 20.8752 20.6272 20.8702 20.6232 21.0021" fill="black"/>
</g>
</svg>
