<svg width="25" height="45" viewBox="0 0 25 45" fill="none" xmlns="http://www.w3.org/2000/svg">
<path d="M22.7658 0.000244141H2.65803C1.42411 0.000244141 0.423828 1.00053 0.423828 2.23444V42.0769C0.423828 43.3108 1.42411 44.3111 2.65803 44.3111H22.7658C23.9997 44.3111 25 43.3108 25 42.0769V2.23444C25 1.00053 23.9997 0.000244141 22.7658 0.000244141Z" fill="#041513"/>
<path d="M12.4763 7.04974H3.82999C3.21303 7.04974 2.71289 7.54989 2.71289 8.16684V11.4645C2.71289 12.0815 3.21303 12.5816 3.82999 12.5816H12.4763C13.0933 12.5816 13.5934 12.0815 13.5934 11.4645V8.16684C13.5934 7.54989 13.0933 7.04974 12.4763 7.04974Z" fill="#F7F2EC"/>
<path d="M22.0218 15.9056H3.03116C2.4142 15.9056 1.91406 16.4057 1.91406 17.0227V41.3307C1.91406 41.9477 2.4142 42.4478 3.03116 42.4478H22.0218C22.6388 42.4478 23.1389 41.9477 23.1389 41.3307V17.0227C23.1389 16.4057 22.6388 15.9056 22.0218 15.9056Z" fill="#F7F2EC"/>
<path d="M12.4375 18.9648H12.4353C11.4075 18.9648 10.5742 19.798 10.5742 20.8259V21.199C10.5742 22.2268 11.4075 23.0601 12.4353 23.0601H12.4375C13.4654 23.0601 14.2986 22.2268 14.2986 21.199V20.8259C14.2986 19.798 13.4654 18.9648 12.4375 18.9648Z" fill="#041513"/>
<path d="M12.4375 30.1357H12.4353C11.4075 30.1357 10.5742 30.969 10.5742 31.9968V32.3699C10.5742 33.3978 11.4075 34.231 12.4353 34.231H12.4375C13.4654 34.231 14.2986 33.3978 14.2986 32.3699V31.9968C14.2986 30.969 13.4654 30.1357 12.4375 30.1357Z" fill="#041513"/>
<path d="M12.4375 35.7213H12.4353C11.4075 35.7213 10.5742 36.5545 10.5742 37.5823V37.9555C10.5742 38.9833 11.4075 39.8165 12.4353 39.8165H12.4375C13.4654 39.8165 14.2986 38.9833 14.2986 37.9555V37.5823C14.2986 36.5545 13.4654 35.7213 12.4375 35.7213Z" fill="#041513"/>
<path d="M12.4375 24.5503H12.4353C11.4075 24.5503 10.5742 25.3835 10.5742 26.4114V26.7845C10.5742 27.8123 11.4075 28.6456 12.4353 28.6456H12.4375C13.4654 28.6456 14.2986 27.8123 14.2986 26.7845V26.4114C14.2986 25.3835 13.4654 24.5503 12.4375 24.5503Z" fill="#041513"/>
<path d="M18.0225 18.9648H18.0203C16.9924 18.9648 16.1592 19.798 16.1592 20.8259V21.199C16.1592 22.2268 16.9924 23.0601 18.0203 23.0601H18.0225C19.0504 23.0601 19.8836 22.2268 19.8836 21.199V20.8259C19.8836 19.798 19.0504 18.9648 18.0225 18.9648Z" fill="#041513"/>
<path d="M18.0225 30.1357H18.0203C16.9924 30.1357 16.1592 30.969 16.1592 31.9968V32.3699C16.1592 33.3978 16.9924 34.231 18.0203 34.231H18.0225C19.0504 34.231 19.8836 33.3978 19.8836 32.3699V31.9968C19.8836 30.969 19.0504 30.1357 18.0225 30.1357Z" fill="#041513"/>
<path d="M18.0225 35.7213H18.0203C16.9924 35.7213 16.1592 36.5545 16.1592 37.5823V37.9555C16.1592 38.9833 16.9924 39.8165 18.0203 39.8165H18.0225C19.0504 39.8165 19.8836 38.9833 19.8836 37.9555V37.5823C19.8836 36.5545 19.0504 35.7213 18.0225 35.7213Z" fill="#041513"/>
<path d="M18.0225 24.5503H18.0203C16.9924 24.5503 16.1592 25.3835 16.1592 26.4114V26.7845C16.1592 27.8123 16.9924 28.6456 18.0203 28.6456H18.0225C19.0504 28.6456 19.8836 27.8123 19.8836 26.7845V26.4114C19.8836 25.3835 19.0504 24.5503 18.0225 24.5503Z" fill="#041513"/>
<path d="M6.8516 18.9648H6.84937C5.82152 18.9648 4.98828 19.798 4.98828 20.8259V21.199C4.98828 22.2268 5.82152 23.0601 6.84937 23.0601H6.8516C7.87945 23.0601 8.71269 22.2268 8.71269 21.199V20.8259C8.71269 19.798 7.87945 18.9648 6.8516 18.9648Z" fill="#041513"/>
<path d="M6.8516 30.1357H6.84937C5.82152 30.1357 4.98828 30.969 4.98828 31.9968V32.3699C4.98828 33.3978 5.82152 34.231 6.84937 34.231H6.8516C7.87945 34.231 8.71269 33.3978 8.71269 32.3699V31.9968C8.71269 30.969 7.87945 30.1357 6.8516 30.1357Z" fill="#041513"/>
<path d="M6.8516 35.7213H6.84937C5.82152 35.7213 4.98828 36.5545 4.98828 37.5823V37.9555C4.98828 38.9833 5.82152 39.8165 6.84937 39.8165H6.8516C7.87945 39.8165 8.71269 38.9833 8.71269 37.9555V37.5823C8.71269 36.5545 7.87945 35.7213 6.8516 35.7213Z" fill="#041513"/>
<path d="M6.8516 24.5503H6.84937C5.82152 24.5503 4.98828 25.3835 4.98828 26.4114V26.7845C4.98828 27.8123 5.82152 28.6456 6.84937 28.6456H6.8516C7.87945 28.6456 8.71269 27.8123 8.71269 26.7845V26.4114C8.71269 25.3835 7.87945 24.5503 6.8516 24.5503Z" fill="#041513"/>
</svg>
