<svg width="18" height="24" viewBox="0 0 18 24" fill="none" xmlns="http://www.w3.org/2000/svg">
<path d="M9.10986 17.5971C8.23489 19.0961 7.3268 20.5762 6.50023 22.1031C6.09522 22.8558 5.77045 23.0851 4.95916 22.5491C3.67033 21.6962 2.32867 20.9251 0.942187 20.2404C-0.0767025 19.7335 -0.271571 19.3356 0.369056 18.2674C3.32766 13.3408 6.17673 8.35076 9.05254 3.37595C9.38241 2.80574 9.86002 2.31155 9.59001 1.49298C9.16463 0.201755 9.93643 -0.087153 11.0254 0.118124C12.321 0.353119 13.6483 0.357831 14.9455 0.132055C15.4754 0.0458896 16.3172 -0.2012 16.5554 0.33607C16.7349 0.626296 16.8063 0.970064 16.7569 1.3073C16.7076 1.64454 16.5407 1.9538 16.2854 2.18103C15.7887 2.6144 16.8687 5.63273 17.5348 6.06103C18.2009 6.48932 18.1321 8.27219 17.3871 8.38497C16.5312 8.51168 16.6777 8.9856 16.6751 9.48486C16.6675 11.5604 16.6751 13.636 16.6751 15.7116C16.6751 16.2413 16.5949 16.6924 17.4265 16.7988C18.0723 16.8812 18.2187 18.901 17.6278 18.972C16.4178 19.119 16.684 19.8818 16.6789 20.5787C16.6535 23.8733 16.6573 23.8733 13.3892 23.8631C12.1665 23.8631 10.5389 24.2775 9.82308 23.6642C8.97613 22.9369 9.62185 21.2706 9.54671 20.0136C9.50086 19.2305 9.5378 18.4436 9.5378 17.6579L9.1175 17.5959M12.7728 1.44482C11.6609 1.46763 11.0343 2.3749 10.4573 3.36961C7.97805 7.64665 5.49407 11.9212 3.00543 16.1931C1.31917 19.1076 1.34083 19.0771 4.32363 20.7916C5.17567 21.2807 5.5896 21.3187 6.1398 20.343C8.90863 15.4366 11.7755 10.586 14.5979 5.71003C14.8446 5.30377 15.0433 4.87049 15.1901 4.41881C15.2905 4.05845 15.3029 3.67942 15.2262 3.31334C15.1495 2.94725 14.9859 2.60472 14.7491 2.31431C14.5123 2.0239 14.2092 1.79403 13.8649 1.64389C13.5207 1.49374 13.1453 1.42765 12.7702 1.45115M14.5877 8.83481C13.4299 10.4998 11.8137 11.938 11.601 13.9959C11.4215 15.7281 11.6456 17.4983 11.5501 19.2431C11.4826 20.4647 12.2251 20.3532 12.9651 20.2873C13.6452 20.2277 14.6335 20.7434 14.608 19.3065C14.5482 15.8168 14.5877 12.3245 14.5877 8.83481Z" fill="black"/>
</svg>
