<svg width="15" height="24" viewBox="0 0 15 24" fill="none" xmlns="http://www.w3.org/2000/svg">
<path d="M14.9291 8.0616C14.9291 9.61741 14.8432 11.1795 14.9468 12.7278C15.097 14.2056 14.9282 15.6986 14.4518 17.1053C13.9754 18.512 13.2026 19.7996 12.1858 20.8805C11.8723 21.2163 11.6258 21.6166 11.3261 21.9676C10.7889 22.601 10.6106 23.7413 9.78129 23.868C8.36437 24.0092 6.93848 24.0372 5.51713 23.9516C5.08856 23.9516 4.85469 23.5855 4.67896 23.2624C3.90293 21.9621 2.99323 20.7468 1.96472 19.6364C0.662591 18.068 -0.0261923 16.0787 0.0266917 14.039C-0.0112344 9.87586 0.034277 5.71268 0.000143501 1.5495C-0.00870592 0.482737 0.390782 -0.00377874 1.46409 2.20922e-05C5.45055 0.0143808 9.43742 0.0143808 13.4247 2.20922e-05C14.4727 2.20922e-05 14.9595 0.414317 14.9418 1.50516C14.9038 3.69064 14.9304 5.87864 14.9304 8.06539M7.44377 3.2624C6.01902 3.2624 4.593 3.28902 3.1695 3.25101C2.41098 3.23074 2.11768 3.54114 2.12274 4.28737C2.14044 7.18529 2.14044 10.0828 2.12274 12.9799C2.12274 13.6818 2.42362 13.9681 3.09744 13.9668C5.9891 13.9609 8.88117 13.9609 11.7737 13.9668C12.5044 13.9668 12.828 13.6881 12.8217 12.9191C12.7964 10.0634 12.7964 7.20767 12.8217 4.35197C12.8293 3.54873 12.5398 3.21933 11.7143 3.24467C10.2908 3.28902 8.86474 3.25733 7.43998 3.25733" fill="black"/>
</svg>
