<svg width="14" height="25" viewBox="0 0 14 25" fill="none" xmlns="http://www.w3.org/2000/svg">
<path d="M12.6053 0H1.26053C0.564356 0 0 0.564356 0 1.26053V23.7395C0 24.4356 0.564356 25 1.26053 25H12.6053C13.3014 25 13.8658 24.4356 13.8658 23.7395V1.26053C13.8658 0.564356 13.3014 0 12.6053 0Z" fill="#FDF7F0"/>
<path d="M6.8 3.97729H1.92177C1.57368 3.97729 1.2915 4.25947 1.2915 4.60756V6.46809C1.2915 6.81618 1.57368 7.09836 1.92177 7.09836H6.8C7.14808 7.09836 7.43026 6.81618 7.43026 6.46809V4.60756C7.43026 4.25947 7.14808 3.97729 6.8 3.97729Z" fill="#2D6759"/>
<path d="M12.1855 8.97369H1.47108C1.123 8.97369 0.84082 9.25587 0.84082 9.60396V23.3185C0.84082 23.6666 1.123 23.9487 1.47108 23.9487H12.1855C12.5336 23.9487 12.8158 23.6666 12.8158 23.3185V9.60396C12.8158 9.25587 12.5336 8.97369 12.1855 8.97369Z" fill="#2D6759"/>
<path d="M6.77784 10.6997H6.77658C6.19667 10.6997 5.72656 11.1698 5.72656 11.7497V11.9602C5.72656 12.5401 6.19667 13.0103 6.77658 13.0103H6.77784C7.35775 13.0103 7.82786 12.5401 7.82786 11.9602V11.7497C7.82786 11.1698 7.35775 10.6997 6.77784 10.6997Z" fill="#FDF7F0"/>
<path d="M6.77784 17.0023H6.77658C6.19667 17.0023 5.72656 17.4725 5.72656 18.0524V18.2629C5.72656 18.8428 6.19667 19.3129 6.77658 19.3129H6.77784C7.35775 19.3129 7.82786 18.8428 7.82786 18.2629V18.0524C7.82786 17.4725 7.35775 17.0023 6.77784 17.0023Z" fill="#FDF7F0"/>
<path d="M6.77784 20.1537H6.77658C6.19667 20.1537 5.72656 20.6238 5.72656 21.2037V21.4142C5.72656 21.9941 6.19667 22.4642 6.77658 22.4642H6.77784C7.35775 22.4642 7.82786 21.9941 7.82786 21.4142V21.2037C7.82786 20.6238 7.35775 20.1537 6.77784 20.1537Z" fill="#FDF7F0"/>
<path d="M6.77784 13.851H6.77658C6.19667 13.851 5.72656 14.3211 5.72656 14.901V15.1115C5.72656 15.6914 6.19667 16.1616 6.77658 16.1616H6.77784C7.35775 16.1616 7.82786 15.6914 7.82786 15.1115V14.901C7.82786 14.3211 7.35775 13.851 6.77784 13.851Z" fill="#FDF7F0"/>
<path d="M9.92921 10.6997H9.92795C9.34804 10.6997 8.87793 11.1698 8.87793 11.7497V11.9602C8.87793 12.5401 9.34804 13.0103 9.92795 13.0103H9.92921C10.5091 13.0103 10.9792 12.5401 10.9792 11.9602V11.7497C10.9792 11.1698 10.5091 10.6997 9.92921 10.6997Z" fill="#FDF7F0"/>
<path d="M9.92921 17.0023H9.92795C9.34804 17.0023 8.87793 17.4725 8.87793 18.0524V18.2629C8.87793 18.8428 9.34804 19.3129 9.92795 19.3129H9.92921C10.5091 19.3129 10.9792 18.8428 10.9792 18.2629V18.0524C10.9792 17.4725 10.5091 17.0023 9.92921 17.0023Z" fill="#FDF7F0"/>
<path d="M9.92921 20.1537H9.92795C9.34804 20.1537 8.87793 20.6238 8.87793 21.2037V21.4142C8.87793 21.9941 9.34804 22.4642 9.92795 22.4642H9.92921C10.5091 22.4642 10.9792 21.9941 10.9792 21.4142V21.2037C10.9792 20.6238 10.5091 20.1537 9.92921 20.1537Z" fill="#FDF7F0"/>
<path d="M9.92921 13.851H9.92795C9.34804 13.851 8.87793 14.3211 8.87793 14.901V15.1115C8.87793 15.6914 9.34804 16.1616 9.92795 16.1616H9.92921C10.5091 16.1616 10.9792 15.6914 10.9792 15.1115V14.901C10.9792 14.3211 10.5091 13.851 9.92921 13.851Z" fill="#FDF7F0"/>
<path d="M3.62647 10.6997H3.62521C3.0453 10.6997 2.5752 11.1698 2.5752 11.7497V11.9602C2.5752 12.5401 3.0453 13.0103 3.62521 13.0103H3.62647C4.20638 13.0103 4.67649 12.5401 4.67649 11.9602V11.7497C4.67649 11.1698 4.20638 10.6997 3.62647 10.6997Z" fill="#FDF7F0"/>
<path d="M3.62647 17.0023H3.62521C3.0453 17.0023 2.5752 17.4725 2.5752 18.0524V18.2629C2.5752 18.8428 3.0453 19.3129 3.62521 19.3129H3.62647C4.20638 19.3129 4.67649 18.8428 4.67649 18.2629V18.0524C4.67649 17.4725 4.20638 17.0023 3.62647 17.0023Z" fill="#FDF7F0"/>
<path d="M3.62647 20.1537H3.62521C3.0453 20.1537 2.5752 20.6238 2.5752 21.2037V21.4142C2.5752 21.9941 3.0453 22.4642 3.62521 22.4642H3.62647C4.20638 22.4642 4.67649 21.9941 4.67649 21.4142V21.2037C4.67649 20.6238 4.20638 20.1537 3.62647 20.1537Z" fill="#FDF7F0"/>
<path d="M3.62647 13.851H3.62521C3.0453 13.851 2.5752 14.3211 2.5752 14.901V15.1115C2.5752 15.6914 3.0453 16.1616 3.62521 16.1616H3.62647C4.20638 16.1616 4.67649 15.6914 4.67649 15.1115V14.901C4.67649 14.3211 4.20638 13.851 3.62647 13.851Z" fill="#FDF7F0"/>
</svg>
