<svg width="20" height="25" viewBox="0 0 20 25" fill="none" xmlns="http://www.w3.org/2000/svg">
<path d="M0 16.2905C0.00953036 15.5278 0.220825 14.7813 0.612404 14.1268C2.01739 11.6876 3.41874 9.24681 4.81643 6.80448C5.9725 4.78813 7.12701 2.77178 8.27995 0.755432C8.38605 0.525177 8.55723 0.331024 8.77239 0.196932C8.98755 0.0628412 9.23725 -0.00531938 9.4907 0.000862251C9.69666 -0.00708016 9.90103 0.0399639 10.0828 0.137159C10.2646 0.234355 10.4172 0.378197 10.5249 0.553901C10.8725 1.09439 11.1921 1.65232 11.4826 2.22551C11.6402 2.54159 11.7131 2.89315 11.6942 3.24583C11.6753 3.59851 11.5652 3.94026 11.3748 4.2377L8.49711 9.21817L2.40431 19.7743C2.35744 19.8556 2.3137 19.9306 2.26058 20.0149C2.20425 20.1119 2.12344 20.1923 2.02626 20.2483C1.92907 20.3042 1.8189 20.3336 1.70676 20.3336C1.59463 20.3336 1.48446 20.3042 1.38727 20.2483C1.29008 20.1923 1.20928 20.1119 1.15294 20.0149C0.937919 19.6684 0.756398 19.3023 0.610842 18.9213C0.260383 18.0851 0.0538579 17.1956 0 16.2905Z" fill="#FDF7F0"/>
<path d="M13.5123 22.0865C13.5179 22.6785 13.294 23.2496 12.8874 23.6799C12.6812 23.9018 12.4625 24.1143 12.2438 24.3252C11.9269 24.6675 11.5053 24.8948 11.0452 24.9714C10.5852 25.048 10.1126 24.9697 9.70196 24.7486C8.42404 24.1502 7.14768 23.544 5.87132 22.941C5.61823 22.8207 5.36202 22.7067 5.11362 22.577C4.85234 22.4505 4.62 22.2714 4.43114 22.0509C4.24228 21.8304 4.10097 21.5733 4.01606 21.2957C3.93115 21.0181 3.90446 20.7259 3.93768 20.4375C3.97089 20.1491 4.06328 19.8707 4.20907 19.6196C4.77149 18.6104 5.34952 17.6095 5.94318 16.617C6.07169 16.3822 6.25424 16.1815 6.47575 16.0313C6.69725 15.8811 6.95134 15.7858 7.21698 15.7532C7.48262 15.7207 7.75218 15.7519 8.00338 15.8443C8.25457 15.9366 8.48017 16.0874 8.66151 16.2843C10.0394 17.6497 11.4095 19.0229 12.7827 20.393C13.0114 20.6118 13.1934 20.8746 13.3177 21.1657C13.442 21.4567 13.5061 21.77 13.5061 22.0865" fill="#FDF7F0"/>
<path d="M14.3205 14.3486C15.2578 14.3486 16.1951 14.3346 17.1325 14.3486C17.5388 14.3466 17.9386 14.4502 18.2927 14.6493C18.6469 14.8484 18.9431 15.1362 19.1525 15.4844C19.3751 15.8194 19.4755 16.2208 19.4368 16.6212C19.3981 17.0215 19.2227 17.3963 18.94 17.6825C18.273 18.3714 17.5949 19.051 16.8997 19.7134C16.7179 19.8933 16.5016 20.0347 16.2638 20.1292C16.0261 20.2237 15.7718 20.2693 15.516 20.2633C15.2603 20.2573 15.0083 20.1999 14.7753 20.0944C14.5422 19.9889 14.3328 19.8376 14.1595 19.6494C13.3331 18.8386 12.5192 18.0152 11.7005 17.1966C11.3693 16.8654 11.0334 16.5404 10.7085 16.203C10.5485 16.0504 10.4393 15.8524 10.3957 15.6356C10.3521 15.4189 10.3762 15.194 10.4647 14.9914C10.5532 14.7888 10.7018 14.6183 10.8905 14.503C11.0791 14.3878 11.2987 14.3333 11.5193 14.3471H14.3314" fill="#FDF7F0"/>
<path d="M12.6893 12.8645C12.0347 12.8645 11.3801 12.8645 10.7256 12.8645C10.353 12.8704 9.99173 12.7365 9.71296 12.4893C9.4342 12.242 9.25813 11.8993 9.21951 11.5287C9.18317 11.1885 9.26304 10.8461 9.44607 10.557C9.93141 9.71859 10.4162 8.87967 10.9005 8.04022C11.0568 7.75745 11.2224 7.47 11.3926 7.19192C11.5404 6.92817 11.7559 6.70857 12.0167 6.55573C12.2776 6.40288 12.5744 6.32233 12.8768 6.32233C13.1791 6.32233 13.476 6.40288 13.7368 6.55573C13.9977 6.70857 14.2131 6.92817 14.3609 7.19192C14.965 8.20426 15.5545 9.22545 16.1294 10.2555C16.2917 10.5187 16.3795 10.821 16.3834 11.1301C16.3873 11.4393 16.3072 11.7438 16.1516 12.011C15.9961 12.2782 15.7709 12.4981 15.5 12.6473C15.2292 12.7966 14.923 12.8694 14.614 12.8582C13.9719 12.8582 13.3283 12.8582 12.6862 12.8582" fill="#FDF7F0"/>
</svg>
