<svg width="19" height="25" viewBox="0 0 19 25" fill="none" xmlns="http://www.w3.org/2000/svg">
<path d="M9.62664 18.3347C8.70246 19.8926 7.7392 21.4373 6.87118 23.0288C6.44388 23.8126 6.10083 24.0522 5.24379 23.4926C3.88101 22.6042 2.46241 21.8013 0.996465 21.0886C-0.0803233 20.5649 -0.285426 20.1467 0.386041 19.0334C3.50897 13.9019 6.51713 8.70326 9.55338 3.52143C9.90132 2.92223 10.408 2.41292 10.1211 1.56086C9.67181 0.216268 10.4873 -0.0857222 11.6362 0.122797C13.004 0.367504 14.4052 0.372374 15.7748 0.137179C16.334 0.0473002 17.224 -0.209153 17.4743 0.350494C17.6628 0.6523 17.7375 1.00942 17.6856 1.35974C17.6336 1.71006 17.4582 2.03142 17.1898 2.26792C16.6648 2.71971 17.8002 5.86308 18.5083 6.31008C19.2164 6.75708 19.1383 8.61338 18.352 8.73083C17.4486 8.86624 17.6024 9.35639 17.6012 9.87649C17.5939 12.0336 17.6012 14.2003 17.6012 16.3622C17.6012 16.9134 17.517 17.3832 18.3948 17.4946C19.076 17.5809 19.231 19.6841 18.6072 19.7584C17.329 19.9118 17.611 20.7063 17.6049 21.4361C17.578 24.8611 17.5817 24.8695 14.1316 24.8575C12.8399 24.8575 11.1234 25.289 10.3689 24.6502C9.47404 23.8917 10.1565 22.1564 10.0771 20.8477C10.0283 20.0328 10.0674 19.2131 10.0674 18.3946L9.6242 18.3299M13.4857 1.51173C12.3125 1.53569 11.6545 2.48003 11.044 3.51664C8.42654 7.97145 5.80416 12.4239 3.17689 16.8739C1.39568 19.9046 1.4201 19.8782 4.56867 21.6674C5.46843 22.1779 5.9055 22.2163 6.48662 21.2001C9.40933 16.0901 12.4358 11.0365 15.4171 5.95775C15.6801 5.53307 15.8919 5.07984 16.0483 4.60717C16.1548 4.23107 16.1678 3.83542 16.0864 3.45335C16.005 3.07128 15.8315 2.71393 15.5804 2.41124C15.3293 2.10856 15.008 1.86936 14.6433 1.71369C14.2786 1.55801 13.8813 1.49041 13.4845 1.51653M15.4037 9.20779C14.1828 10.9419 12.4737 12.4434 12.2502 14.5838C12.061 16.3885 12.2978 18.2317 12.1965 20.0496C12.1257 21.3223 12.9095 21.2049 13.6896 21.1378C14.4075 21.0754 15.4501 21.6171 15.4244 20.1155C15.3622 16.4808 15.4037 12.8437 15.4037 9.21018" fill="#FDF7F0"/>
</svg>
