<svg width="16" height="26" viewBox="0 0 16 26" fill="none" xmlns="http://www.w3.org/2000/svg">
<path d="M15.9255 8.73964C15.9255 10.425 15.8345 12.1179 15.9439 13.7945C16.1032 15.3955 15.9222 17.0127 15.4132 18.5362C14.9042 20.0597 14.0791 21.454 12.9939 22.6242C12.6595 22.9883 12.3965 23.4212 12.0781 23.8016C11.5053 24.486 11.3148 25.7159 10.431 25.8573C8.91979 26.0101 7.39899 26.0403 5.88305 25.9474C5.42702 25.9474 5.17627 25.5507 4.98943 25.1966C4.16176 23.7883 3.19156 22.4719 2.0947 21.2691C0.706493 19.5704 -0.0278455 17.416 0.0284378 15.2071C-0.0121253 10.7028 0.0370418 6.18844 0.00016626 1.67912C-0.00966722 0.523015 0.415631 -0.00373368 1.56123 1.99147e-05C5.81257 0.0158684 10.0643 0.0158684 14.3165 1.99147e-05C15.4338 1.99147e-05 15.9525 0.447953 15.9329 1.62658C15.8923 3.99385 15.9206 6.36362 15.9206 8.73214M7.93702 3.52965C6.41774 3.52965 4.89724 3.55842 3.37797 3.51838C2.56302 3.49711 2.25572 3.83245 2.26064 4.64447C2.27949 7.78331 2.27949 10.9222 2.26064 14.061C2.26064 14.8217 2.58146 15.132 3.30053 15.1308C6.38414 15.1241 9.46817 15.1241 12.5526 15.1308C13.3319 15.1308 13.6773 14.828 13.6699 13.9972C13.6437 10.9042 13.6437 7.81124 13.6699 4.71828C13.6773 3.84244 13.3688 3.49087 12.4899 3.51964C10.9719 3.56844 9.45137 3.53341 7.9321 3.53341" fill="#FDF7F0"/>
</svg>
