<svg width="22" height="25" viewBox="0 0 22 25" fill="none" xmlns="http://www.w3.org/2000/svg">
<mask id="mask0_1227_4041" style="mask-type:luminance" maskUnits="userSpaceOnUse" x="0" y="0" width="22" height="25">
<path d="M21.2252 0H0V25H21.2252V0Z" fill="white"/>
</mask>
<g mask="url(#mask0_1227_4041)">
<path d="M9.43664 0.525335C9.43664 5.13175 9.43883 9.73993 9.44322 14.3499C9.44322 14.4605 9.45244 14.5724 9.45639 14.683C9.45639 14.6922 9.44454 14.7014 9.44717 14.7093C9.45279 14.7257 9.45984 14.7415 9.46824 14.7567C9.06882 15.0475 8.6239 15.2699 8.15162 15.415C6.56509 16.0562 5.01674 16.7856 3.44206 17.4531C2.43748 17.8784 1.44212 18.3221 0.438851 18.75C0.0267484 18.9277 0.000416011 18.908 0.000416011 18.4643C0.000416011 16.8054 0.000416011 15.1451 0.000416011 13.4862C-0.0165334 13.3674 0.0116584 13.2466 0.079424 13.1477C0.14719 13.0487 0.249602 12.9787 0.366437 12.9516C1.76469 12.3749 3.14319 11.7535 4.53618 11.1663C4.7995 11.057 4.7442 10.8713 4.74552 10.691C4.74552 8.12487 4.7837 5.55614 4.72577 2.994C4.66505 2.68489 4.72606 2.36428 4.89608 2.09908C5.06609 1.83388 5.33196 1.6446 5.63819 1.57073C6.835 1.13493 7.96992 0.535868 9.16278 0.0776838C9.29444 0.0250189 9.4261 -0.105327 9.43664 0.167214" fill="#041513"/>
<path d="M11.7883 7.44154C11.7883 5.11112 11.7883 2.7807 11.7883 0.450282C11.7883 0.279121 11.5961 -0.0658333 12.1136 0.160625C13.0813 0.584577 14.0503 1.00721 15.0101 1.43775C15.3723 1.61358 15.7432 1.7709 16.1213 1.9091C16.1813 1.91743 16.2388 1.93793 16.2905 1.96933C16.3422 2.00073 16.387 2.04238 16.422 2.0917C16.457 2.14102 16.4816 2.19699 16.4942 2.25615C16.5068 2.31532 16.5072 2.37643 16.4953 2.43575C16.4953 5.18485 16.4953 7.93395 16.4821 10.6831C16.4614 10.814 16.4882 10.9479 16.5578 11.0607C16.6273 11.1735 16.735 11.2577 16.8613 11.2979C17.8711 11.7258 18.8612 12.1959 19.8803 12.6066C20.2843 12.7379 20.6721 12.9146 21.0363 13.1333C21.093 13.1635 21.1394 13.2099 21.1694 13.2667C21.1995 13.3235 21.2118 13.388 21.2048 13.4519C21.2048 15.1635 21.1956 16.8843 21.2114 18.6012C21.2114 18.9962 21.0008 18.9672 20.7848 18.854C19.5827 18.2181 18.3069 17.7428 17.0562 17.2214C16.3886 16.9423 15.7395 16.6197 15.0615 16.3616C14.0082 15.9574 12.9786 15.4637 11.9411 15.0055C11.8094 14.945 11.8028 14.8186 11.8015 14.6882C11.8015 13.7666 11.7818 12.845 11.7791 11.9233C11.7791 10.4303 11.7791 8.93722 11.7791 7.44681" fill="#041513"/>
<path d="M19.8803 20.9922C19.7326 21.1043 19.5733 21.2001 19.405 21.2779C18.0976 21.7295 16.8771 22.3799 15.5974 22.8947C14.074 23.5083 12.5836 24.2008 11.0958 24.896C10.9051 24.9745 10.6986 25.0074 10.4929 24.9921C10.2872 24.9768 10.0879 24.9137 9.91089 24.8078C9.27628 24.5366 8.6522 24.2443 8.02022 23.9665C6.87608 23.4635 5.74247 22.9355 4.58252 22.4708C3.62402 22.0863 2.73004 21.5557 1.73204 21.2582C1.61354 21.2226 1.30677 21.17 1.33705 20.9501C1.35285 20.8303 1.61618 20.8421 1.74915 20.775C2.6879 20.3036 3.678 19.9521 4.62334 19.4913C5.23425 19.1937 5.88334 18.9488 6.51795 18.6855C7.73583 18.1773 8.95897 17.6756 10.1426 17.0963C10.3324 17.0143 10.539 16.9791 10.7452 16.9935C10.9514 17.0079 11.1511 17.0716 11.3276 17.1793C12.1597 17.5295 12.9865 17.8982 13.8107 18.2616C15.259 18.8988 16.7073 19.5242 18.1345 20.193C18.644 20.4313 19.1786 20.6157 19.6973 20.8355C19.7605 20.8619 19.8777 20.8566 19.8738 20.9935" fill="#041513"/>
</g>
</svg>
