<svg width="11" height="25" viewBox="0 0 11 25" fill="none" xmlns="http://www.w3.org/2000/svg">
<path d="M5.38043 25C3.95391 24.9986 2.58624 24.4714 1.57753 23.534C0.568826 22.5966 0.00148365 21.3257 0 20L0 5C0 3.67392 0.566866 2.40215 1.57589 1.46447C2.58492 0.526784 3.95345 0 5.38043 0C6.80741 0 8.17595 0.526784 9.18498 1.46447C10.194 2.40215 10.7609 3.67392 10.7609 5V20C10.7594 21.3257 10.192 22.5966 9.18334 23.534C8.17463 24.4714 6.80696 24.9986 5.38043 25ZM7.49898 18.0948C7.26689 18.0951 7.04439 18.1809 6.88028 18.3334C6.71616 18.4859 6.62384 18.6927 6.62354 18.9083V19.7208C6.62354 19.9366 6.71577 20.1435 6.87995 20.2961C7.04413 20.4487 7.2668 20.5344 7.49898 20.5344C7.73116 20.5344 7.95383 20.4487 8.11801 20.2961C8.28219 20.1435 8.37442 19.9366 8.37442 19.7208V18.9083C8.37442 18.8013 8.35171 18.6953 8.30759 18.5964C8.26347 18.4975 8.1988 18.4076 8.11729 18.332C8.03577 18.2563 7.93901 18.1963 7.83253 18.1555C7.72605 18.1146 7.61195 18.0936 7.49674 18.0938L7.49898 18.0948ZM5.38156 18.0948C5.14947 18.0951 4.92697 18.1809 4.76285 18.3334C4.59874 18.4859 4.50641 18.6927 4.50611 18.9083V19.7208C4.50611 19.9366 4.59835 20.1435 4.76253 20.2961C4.9267 20.4487 5.14937 20.5344 5.38156 20.5344C5.61374 20.5344 5.83641 20.4487 6.00059 20.2961C6.16476 20.1435 6.257 19.9366 6.257 19.7208V18.9083C6.257 18.6923 6.16465 18.4851 6.00026 18.3323C5.83587 18.1796 5.61291 18.0938 5.38043 18.0938L5.38156 18.0948ZM3.26413 18.0948C3.03204 18.0951 2.80954 18.1809 2.64543 18.3334C2.48131 18.4859 2.38899 18.6927 2.38869 18.9083V19.7208C2.38869 19.8277 2.41133 19.9335 2.45533 20.0322C2.49932 20.1309 2.56381 20.2205 2.6451 20.2961C2.72639 20.3716 2.8229 20.4316 2.92911 20.4724C3.03533 20.5133 3.14917 20.5344 3.26413 20.5344C3.37909 20.5344 3.49293 20.5133 3.59915 20.4724C3.70536 20.4316 3.80187 20.3716 3.88316 20.2961C3.96445 20.2205 4.02894 20.1309 4.07293 20.0322C4.11693 19.9335 4.13957 19.8277 4.13957 19.7208V18.9083C4.13957 18.8013 4.11686 18.6953 4.07274 18.5964C4.02862 18.4975 3.96395 18.4076 3.88244 18.332C3.80092 18.2563 3.70416 18.1963 3.59768 18.1555C3.4912 18.1146 3.37709 18.0936 3.26189 18.0938L3.26413 18.0948ZM2.03111 8.34687C1.73383 8.34687 1.44872 8.45662 1.2385 8.65197C1.02829 8.84732 0.91019 9.11227 0.91019 9.38854V15.6115C0.91019 15.8877 1.02829 16.1527 1.2385 16.348C1.44872 16.5434 1.73383 16.6531 2.03111 16.6531H8.72751C9.0248 16.6531 9.30991 16.5434 9.52013 16.348C9.73034 16.1527 9.84844 15.8877 9.84844 15.6115V9.3875C9.84844 9.11123 9.73034 8.84628 9.52013 8.65093C9.30991 8.45558 9.0248 8.34583 8.72751 8.34583L2.03111 8.34687ZM5.38043 3.20417C5.07799 3.20375 4.78221 3.28671 4.53051 3.44253C4.2788 3.59836 4.08249 3.82006 3.96639 4.07959C3.85029 4.33911 3.81963 4.62481 3.87828 4.90053C3.93693 5.17625 4.08226 5.42962 4.29588 5.62857C4.50951 5.82753 4.78183 5.96314 5.0784 6.01825C5.37497 6.07336 5.68247 6.04549 5.962 5.93818C6.24153 5.83086 6.48052 5.64891 6.64876 5.41535C6.817 5.18178 6.90691 4.9071 6.90713 4.62604C6.90713 4.24948 6.74639 3.88829 6.46018 3.62173C6.17396 3.35516 5.78565 3.20499 5.38043 3.20417Z" fill="#041513"/>
</svg>
