<svg width="19" height="24" viewBox="0 0 19 24" fill="none" xmlns="http://www.w3.org/2000/svg">
<path d="M16.625 24H2.375C1.74511 24 1.1412 23.759 0.695801 23.3304C0.250402 22.9017 0 22.3205 0 21.7143V2.28571C0 1.67951 0.250402 1.0983 0.695801 0.669643C1.1412 0.240988 1.74511 0 2.375 0H16.625C17.2549 0 17.8588 0.240988 18.3042 0.669643C18.7496 1.0983 19 1.67951 19 2.28571V21.7143C19 22.3205 18.7496 22.9017 18.3042 23.3304C17.8588 23.759 17.2549 24 16.625 24ZM3.5625 3C3.24756 3 2.9456 3.12049 2.7229 3.33482C2.5002 3.54915 2.375 3.83975 2.375 4.14286V18.9911C2.375 19.2942 2.5002 19.5848 2.7229 19.7991C2.9456 20.0134 3.24756 20.1339 3.5625 20.1339H15.4375C15.7524 20.1339 16.0544 20.0134 16.2771 19.7991C16.4998 19.5848 16.625 19.2942 16.625 18.9911V4.14286C16.625 3.83975 16.4998 3.54915 16.2771 3.33482C16.0544 3.12049 15.7524 3 15.4375 3H3.5625ZM2.96875 1.14509C2.81128 1.14509 2.6603 1.20534 2.54895 1.3125C2.4376 1.41966 2.375 1.56497 2.375 1.71652C2.375 1.86807 2.4376 2.01337 2.54895 2.12054C2.6603 2.2277 2.81128 2.28795 2.96875 2.28795H8.90625C9.06372 2.28795 9.2147 2.2277 9.32605 2.12054C9.4374 2.01337 9.5 1.86807 9.5 1.71652C9.5 1.56497 9.4374 1.41966 9.32605 1.3125C9.2147 1.20534 9.06372 1.14509 8.90625 1.14509H2.96875Z" fill="#041513"/>
</svg>
