<svg width="27" height="17" viewBox="0 0 27 17" fill="none" xmlns="http://www.w3.org/2000/svg">
<path d="M26.334 17H0.630437C0.463345 16.9996 0.3032 16.9331 0.185048 16.815C0.066896 16.6968 0.000359725 16.5367 0 16.3696V0.626352C0.00143401 0.45997 0.0684442 0.30087 0.18648 0.183598C0.304516 0.066327 0.464049 0.000352416 0.630437 0H26.334C26.5002 0.000710017 26.6593 0.0668426 26.7771 0.184076C26.8948 0.301309 26.9616 0.460205 26.9631 0.626352V16.3668C26.9634 16.5342 26.8974 16.6948 26.7795 16.8135C26.6615 16.9322 26.5013 16.9993 26.334 17Z" fill="#041513"/>
<path d="M0.00390625 3.61151H26.9643Z" fill="#FDF7F0"/>
<path d="M0.00390625 3.61151H26.9643" stroke="#FDF7F0" stroke-width="2"/>
</svg>
