<svg width="19" height="17" viewBox="0 0 19 17" fill="none" xmlns="http://www.w3.org/2000/svg">
<path d="M18.7156 10.5562C17.4467 15.1098 12.2915 17.8811 7.201 16.7455C2.11265 15.6103 -0.984944 10.9979 0.284541 6.44468C1.55291 1.89056 6.70813 -0.880887 11.797 0.254349C16.8871 1.38959 19.9847 6.00237 18.7156 10.5562Z" fill="#FFA600"/>
<path d="M14.0092 7.4617C14.199 6.3261 13.2327 5.71567 11.9114 5.30845L12.34 3.77018L11.2935 3.53685L10.8762 5.03462C10.6011 4.97323 10.3185 4.91538 10.0377 4.85802L10.458 3.35037L9.41212 3.11704L8.98324 4.65481C8.75557 4.60843 8.53195 4.56259 8.31499 4.51429L8.3162 4.50945L6.87299 4.18699L6.5946 5.18712C6.5946 5.18712 7.37105 5.34637 7.35468 5.35617C7.77848 5.45081 7.85512 5.70182 7.84239 5.90078L7.35413 7.65323C7.38331 7.65986 7.42116 7.66945 7.46293 7.68447C7.42801 7.67671 7.39086 7.66825 7.35231 7.65999L6.66792 10.1149C6.61613 10.2301 6.48467 10.403 6.18838 10.3374C6.19886 10.351 5.42773 10.1675 5.42773 10.1675L4.90814 11.2394L6.27005 11.5432C6.52341 11.6 6.77169 11.6595 7.0162 11.7154L6.58313 13.2713L7.62847 13.5047L8.05734 11.9653C8.34292 12.0346 8.62005 12.0986 8.89136 12.1589L8.46393 13.6911L9.51053 13.9244L9.94355 12.3714C11.7281 12.6736 13.07 12.5518 13.6348 11.1075C14.0899 9.9447 13.6122 9.274 12.6733 8.83663C13.3571 8.69552 13.8718 8.29298 14.0092 7.4617ZM11.618 10.4617C11.2946 11.6245 9.1065 10.996 8.39708 10.8383L8.97178 8.77703C9.68115 8.93548 11.956 9.24906 11.618 10.4617ZM11.9417 7.44485C11.6467 8.50253 9.82547 7.96518 9.2347 7.83342L9.75573 5.96393C10.3465 6.09569 12.2489 6.34161 11.9417 7.44485Z" fill="#F2EDE6"/>
</svg>
