<svg width="20" height="20" viewBox="0 0 20 20" fill="none" xmlns="http://www.w3.org/2000/svg">
<g clip-path="url(#clip0_461_5944)">
<path d="M6.24281 8.34997L8.22679 6.36596C8.31329 6.28015 8.42072 6.21845 8.5384 6.18688C8.65608 6.15531 8.77997 6.15498 8.89781 6.18597L11.6078 6.91198C11.7256 6.94398 11.833 7.00622 11.9193 7.09252C12.0056 7.17883 12.0678 7.2862 12.0998 7.40399L12.8258 10.114C12.8568 10.2318 12.8565 10.3557 12.8249 10.4734C12.7934 10.5911 12.7316 10.6985 12.6458 10.785L10.6618 12.769C10.5753 12.8548 10.4679 12.9165 10.3502 12.9481C10.2325 12.9797 10.1086 12.98 9.99079 12.949L7.2808 12.223C7.16302 12.191 7.05564 12.1287 6.96934 12.0424C6.88303 11.9561 6.82079 11.8487 6.7888 11.731L6.06281 9.02099C6.03182 8.90315 6.03213 8.77924 6.0637 8.66155C6.09527 8.54387 6.157 8.43648 6.24281 8.34997Z" fill="#F6F2ED"/>
<path d="M19.8898 8.40298L19.1089 5.48794C19.077 5.37028 19.0149 5.26302 18.9288 5.17672C18.8426 5.09043 18.7355 5.02809 18.6179 4.99594L15.7019 4.21493C15.584 4.18394 15.4601 4.18428 15.3424 4.21584C15.2248 4.24741 15.1174 4.30918 15.0309 4.39498L12.8969 6.52896C12.8111 6.61546 12.7493 6.72286 12.7178 6.84054C12.6862 6.95822 12.6859 7.08214 12.7169 7.19998L13.4978 10.115C13.5298 10.2327 13.5921 10.3401 13.6784 10.4264C13.7647 10.5127 13.8721 10.575 13.9898 10.607L16.9059 11.388C17.0237 11.419 17.1476 11.4186 17.2653 11.387C17.383 11.3555 17.4903 11.2938 17.5769 11.208L19.7109 9.07394C19.7965 8.98733 19.8581 8.87991 19.8894 8.76223C19.9208 8.64455 19.921 8.52073 19.8898 8.40298Z" fill="#F6F2ED"/>
<path d="M10.4228 14.075C10.3908 13.9575 10.3286 13.8504 10.2425 13.7643C10.1564 13.6782 10.0493 13.6161 9.93183 13.584L7.01582 12.803C6.89798 12.772 6.7741 12.7723 6.65641 12.8039C6.53873 12.8354 6.43133 12.8972 6.34483 12.983L4.21082 15.117C4.12502 15.2035 4.06329 15.3109 4.03172 15.4286C4.00015 15.5463 3.99984 15.6702 4.03083 15.788L4.81184 18.704C4.84384 18.8218 4.90608 18.9292 4.99238 19.0155C5.07868 19.1018 5.18606 19.164 5.30384 19.196L8.21983 19.977C8.33766 20.008 8.46155 20.0077 8.57923 19.9761C8.69692 19.9445 8.80431 19.8828 8.89082 19.797L11.0248 17.663C11.1106 17.5765 11.1724 17.4691 11.204 17.3514C11.2355 17.2337 11.2358 17.1099 11.2048 16.992L10.4228 14.075Z" fill="#F6F2ED"/>
<path opacity="0.4" d="M15.8839 12.424C15.8517 12.3064 15.7894 12.1992 15.7031 12.1131C15.6168 12.0269 15.5095 11.9649 15.3919 11.9329L13.5259 11.4329C13.4081 11.402 13.2842 11.4023 13.1665 11.4339C13.0488 11.4654 12.9414 11.5272 12.8549 11.613L11.4889 12.979C11.4031 13.0655 11.3414 13.1729 11.3098 13.2906C11.2782 13.4082 11.2779 13.5322 11.3089 13.65L11.8089 15.515C11.8408 15.6326 11.9029 15.7399 11.989 15.8262C12.0751 15.9125 12.1823 15.9748 12.2999 16.007L14.1659 16.507C14.2837 16.538 14.4076 16.5376 14.5253 16.5061C14.643 16.4745 14.7504 16.4128 14.8369 16.327L16.2029 14.961C16.2887 14.8745 16.3504 14.7671 16.382 14.6494C16.4136 14.5317 16.4139 14.4078 16.3829 14.2899L15.8839 12.424Z" fill="#F6F2ED"/>
<path opacity="0.4" d="M5.79887 12.072C5.88467 11.9855 5.94644 11.8781 5.97801 11.7604C6.00958 11.6427 6.00988 11.5188 5.97889 11.401L5.47889 9.535C5.44674 9.4174 5.38443 9.3102 5.29814 9.22408C5.21184 9.13797 5.10455 9.07588 4.98689 9.04397L3.12089 8.54397C3.00305 8.51298 2.87917 8.51332 2.76148 8.54489C2.6438 8.57645 2.53637 8.63816 2.44987 8.72396L1.08387 10.09C0.998065 10.1765 0.936333 10.2839 0.904764 10.4016C0.873194 10.5193 0.872889 10.6432 0.903879 10.761L1.40388 12.626C1.43588 12.7438 1.49812 12.8512 1.58442 12.9375C1.67073 13.0238 1.7781 13.086 1.89588 13.118L3.76188 13.618C3.87972 13.649 4.0036 13.6487 4.12129 13.6171C4.23897 13.5855 4.34636 13.5238 4.43287 13.438L5.79887 12.072Z" fill="#F6F2ED"/>
<path opacity="0.4" d="M9.03401 5.04397C9.06592 5.16163 9.128 5.26895 9.21412 5.35525C9.30024 5.44154 9.4074 5.50382 9.525 5.53597L11.391 6.03597C11.509 6.06715 11.6331 6.06694 11.751 6.03536C11.8688 6.00379 11.9764 5.94196 12.063 5.85598L13.429 4.49001C13.5148 4.40351 13.5766 4.29605 13.6081 4.17837C13.6397 4.06069 13.64 3.93683 13.609 3.81899L13.109 1.95297C13.0769 1.83537 13.0146 1.72823 12.9283 1.64211C12.842 1.55599 12.7347 1.49391 12.617 1.462L10.751 0.961999C10.6332 0.931009 10.5093 0.931284 10.3916 0.962854C10.2739 0.994423 10.1665 1.05619 10.08 1.14199L8.71403 2.50796C8.62822 2.59446 8.56646 2.70192 8.53489 2.8196C8.50332 2.93729 8.50302 3.06114 8.53401 3.17898L9.03401 5.04397Z" fill="#F6F2ED"/>
<path d="M2.1319 7.42901L5.04789 8.21002C5.16572 8.24101 5.28961 8.24073 5.40729 8.20916C5.52497 8.17759 5.6324 8.11583 5.71891 8.03002L7.85291 5.89599C7.93871 5.80948 8.00045 5.70209 8.03202 5.58441C8.06359 5.46672 8.06389 5.34287 8.0329 5.22503L7.2519 2.30999C7.21975 2.19239 7.15743 2.08526 7.07114 1.99914C6.98485 1.91302 6.87756 1.85094 6.75989 1.81902L3.84488 1.03802C3.72705 1.00703 3.60316 1.0073 3.48548 1.03887C3.36779 1.07044 3.2604 1.1322 3.17389 1.21801L1.03989 3.35204C0.953914 3.43865 0.892082 3.54618 0.860507 3.66406C0.828933 3.78193 0.828721 3.90606 0.859897 4.02404L1.6409 6.93902C1.67312 7.05632 1.73535 7.16322 1.82144 7.24914C1.90754 7.33506 2.01454 7.39704 2.1319 7.42901Z" fill="#F6F2ED"/>
</g>
<defs>
<clipPath id="clip0_461_5944">
<rect width="20" height="20" fill="white"/>
</clipPath>
</defs>
</svg>
