<svg width="144" height="130" viewBox="0 0 144 130" fill="none" xmlns="http://www.w3.org/2000/svg">
<g opacity="0.272">
<path d="M32.0693 121.535C46.1171 121.535 57.5051 110.147 57.5051 96.0988C57.5051 82.0511 46.1171 70.6631 32.0693 70.6631C18.0215 70.6631 6.63354 82.0511 6.63354 96.0988C6.63354 110.147 18.0215 121.535 32.0693 121.535Z" fill="#2F4F4F"/>
<path d="M39.0388 128.629C39.3738 128.9 39.7817 129.066 40.211 129.105C40.6402 129.144 41.0715 129.056 41.4503 128.85C41.8291 128.644 42.1384 128.331 42.339 127.949C42.5397 127.568 42.6227 127.135 42.5775 126.707C42.5324 126.278 42.3611 125.872 42.0854 125.541C41.8097 125.21 41.4419 124.968 41.0285 124.845C40.6152 124.723 40.1749 124.726 39.7633 124.854C39.3516 124.982 38.9872 125.229 38.7161 125.564C38.3527 126.013 38.1825 126.589 38.243 127.163C38.3036 127.738 38.5898 128.265 39.0388 128.629Z" fill="#2F4F4F"/>
<path d="M46.8669 124.028C47.0956 124.213 47.374 124.326 47.6669 124.353C47.9599 124.38 48.2543 124.32 48.5128 124.179C48.7714 124.039 48.9825 123.825 49.1196 123.565C49.2566 123.304 49.3134 123.009 49.2828 122.717C49.2521 122.424 49.1354 122.147 48.9473 121.921C48.7593 121.695 48.5084 121.529 48.2264 121.446C47.9443 121.362 47.6438 121.364 47.3628 121.451C47.0818 121.538 46.8329 121.706 46.6476 121.935C46.3993 122.241 46.2828 122.634 46.324 123.027C46.3651 123.419 46.5604 123.779 46.8669 124.028Z" fill="#2F4F4F"/>
<path d="M2.76338 89.0306C3.30993 89.0306 3.8442 88.8685 4.29864 88.5649C4.75308 88.2612 5.10727 87.8296 5.31642 87.3247C5.52557 86.8198 5.5803 86.2641 5.47367 85.7281C5.36705 85.192 5.10386 84.6997 4.71739 84.3132C4.33093 83.9267 3.83854 83.6635 3.30249 83.5569C2.76645 83.4503 2.21083 83.505 1.70588 83.7142C1.20094 83.9233 0.769358 84.2775 0.465714 84.7319C0.162069 85.1864 0 85.7207 0 86.2672C0 87.0001 0.291141 87.703 0.809377 88.2212C1.32761 88.7394 2.03049 89.0306 2.76338 89.0306Z" fill="#2F4F4F"/>
</g>
<path d="M82.4406 123.424C116.003 123.424 143.211 96.2164 143.211 62.654C143.211 29.0917 116.003 1.88406 82.4406 1.88406C48.8783 1.88406 21.6707 29.0917 21.6707 62.654C21.6707 96.2164 48.8783 123.424 82.4406 123.424Z" fill="#F9F4F0"/>
<path d="M82.4407 122.011C115.223 122.011 141.797 95.4358 141.797 62.654C141.797 29.8722 115.223 3.29732 82.4407 3.29732C49.6589 3.29732 23.084 29.8722 23.084 62.654C23.084 95.4358 49.6589 122.011 82.4407 122.011Z" stroke="#0E2B27" stroke-width="3"/>
<path d="M88.3211 117.549L87.8425 113.718C89.04 113.598 90.3571 113.359 91.5546 113.119L92.2726 116.951C90.9545 117.19 89.6373 117.31 88.3211 117.549ZM96.2231 115.993L95.2649 112.282L98.8564 111.204L100.175 114.915C98.7377 115.274 97.4202 115.634 96.2231 115.993ZM103.766 113.355L102.21 109.763C103.407 109.285 104.485 108.686 105.562 108.207L107.358 111.679C106.195 112.31 104.996 112.871 103.766 113.359V113.355ZM110.947 109.766L108.912 106.414C109.993 105.806 111.031 105.126 112.021 104.379L114.296 107.488C113.225 108.329 112.027 109.048 110.947 109.766ZM117.412 105.097L114.904 102.104C115.863 101.265 116.82 100.427 117.658 99.5889L120.296 102.343C119.426 103.35 118.461 104.272 117.415 105.097H117.412ZM123.279 99.4692L120.406 96.8312C121.244 95.873 122.082 94.9157 122.801 93.9575L125.91 96.3525C125.08 97.4342 124.12 98.512 123.282 99.4692H123.279ZM128.188 93.1237L124.955 90.969C125.673 89.8911 126.275 88.8142 126.871 87.7364L130.223 89.6518C129.616 90.8494 128.937 92.0089 128.189 93.1237H128.188ZM132.14 86.179L128.668 84.5029C129.219 83.3763 129.7 82.2165 130.106 81.03L133.698 82.4668C133.283 83.745 132.764 84.9869 132.146 86.1799L132.14 86.179ZM135.133 78.636L131.422 77.4385C131.781 76.241 132.14 75.0435 132.38 73.8469L136.211 74.6855L135.133 78.636ZM136.929 70.8536L133.097 70.2554C133.336 69.0579 133.456 67.7407 133.575 66.5432L137.407 66.9022C137.29 68.0997 137.051 69.5355 136.931 70.8546L136.929 70.8536ZM137.527 62.832H133.696V62.4693C133.716 61.3505 133.676 60.2315 133.576 59.117L137.408 58.8777C137.528 60.0752 137.528 61.2727 137.528 62.4693L137.527 62.832ZM33.124 46.3092L29.4128 45.1117C29.786 43.7972 30.2665 42.5156 30.8497 41.2799L34.4412 42.7167C33.9635 43.9142 33.484 45.1117 33.124 46.3092ZM35.9977 39.3644L32.5258 37.5687C33.1241 36.3712 33.7233 35.1737 34.4412 33.9771L37.7934 36.0122C37.1275 37.0921 36.5272 38.2115 35.9977 39.3644ZM39.8295 33.0189L36.5969 30.7436C37.3148 29.6657 38.1534 28.5888 38.9919 27.511L41.9852 29.906C41.2672 30.9829 40.4278 31.943 39.8295 33.0189ZM44.4989 27.152L41.6252 24.5139L44.4989 21.6403L47.1369 24.5139C46.1759 25.3553 45.3365 26.3135 44.4989 27.152ZM50.0068 22.1237L47.6127 19.1294C48.6906 18.2909 49.7675 17.4533 50.8453 16.7345L53.0038 19.968C51.9305 20.5767 50.9257 21.3 50.0068 22.1237ZM56.113 17.8104L54.1976 14.4582C55.3951 13.7402 56.5926 13.1391 57.7891 12.5427L59.4662 16.0203C58.2687 16.6148 57.1908 17.214 56.113 17.8104ZM62.8175 14.5778L61.3807 10.9863C62.6322 10.475 63.9114 10.0346 65.2125 9.66723L66.41 13.3784C65.1792 13.6703 63.9771 14.0723 62.8184 14.5797L62.8175 14.5778ZM70.0015 12.3025L69.0433 8.47067C70.3624 8.11171 71.6814 7.87239 72.9948 7.63214L73.5931 11.4639C72.3965 11.7061 71.199 11.9454 70.0015 12.3053V12.3025Z" fill="#002C27" stroke="#F6F2ED" stroke-width="0.7"/>
<path opacity="0.3" d="M60.1221 25.9662H104.753C105.302 25.9662 105.83 26.1846 106.218 26.5733C106.607 26.9621 106.825 27.4893 106.825 28.039V97.5712C106.825 98.1209 106.607 98.6481 106.218 99.0368C105.83 99.4256 105.302 99.644 104.753 99.644H60.1221C59.5724 99.644 59.0451 99.4256 58.6564 99.0368C58.2677 98.6481 58.0493 98.1209 58.0493 97.5712V28.039C58.0493 27.4893 58.2677 26.9621 58.6564 26.5733C59.0451 26.1846 59.5724 25.9662 60.1221 25.9662Z" fill="#2F4F4F"/>
<path d="M106.487 96.8648C106.849 96.8648 107.195 96.7213 107.451 96.4658C107.706 96.2103 107.85 95.8638 107.85 95.5024V29.0785C107.85 28.0068 107.429 26.9779 106.678 26.2135C105.927 25.449 104.906 25.0101 103.834 24.9914H61.1106C60.0266 24.9914 58.987 25.422 58.2205 26.1885C57.454 26.9549 57.0234 27.9945 57.0234 29.0785V98.2507C57.0589 99.3109 57.5051 100.316 58.2678 101.053C59.0305 101.79 60.0499 102.202 61.1106 102.201H103.903C104.951 102.166 105.946 101.73 106.681 100.982C107.417 100.234 107.836 99.2317 107.854 98.1829V95.3903C107.854 95.2111 107.818 95.0336 107.749 94.8681C107.681 94.7025 107.58 94.5522 107.453 94.4256C107.326 94.2991 107.176 94.1988 107.01 94.1306C106.844 94.0623 106.667 94.0274 106.487 94.0279L105.125 93.9884V98.1829C105.109 98.5209 104.967 98.8407 104.728 99.08C104.488 99.3193 104.168 99.461 103.83 99.4774H61.1106C60.7607 99.4779 60.4241 99.3437 60.1704 99.1027C59.9168 98.8617 59.7656 98.5323 59.7482 98.1829V29.0785C59.7482 28.7172 59.8917 28.3706 60.1472 28.1152C60.4027 27.8597 60.7492 27.7161 61.1106 27.7161H103.903C104.24 27.7503 104.552 27.9088 104.779 28.1607C105.005 28.4126 105.13 28.7398 105.128 29.0785V95.5015C105.128 95.8625 105.271 96.2088 105.526 96.4644C105.78 96.7201 106.126 96.8641 106.487 96.8648Z" fill="#162A27"/>
<path d="M85.1623 36.9915C85.5236 36.9915 85.8701 36.848 86.1256 36.5925C86.3811 36.337 86.5246 35.9905 86.5246 35.6292C86.5246 35.2678 86.3811 34.9213 86.1256 34.6658C85.8701 34.4103 85.5236 34.2668 85.1623 34.2668H79.7137C79.5348 34.2668 79.3576 34.302 79.1923 34.3705C79.027 34.439 78.8769 34.5393 78.7503 34.6658C78.6238 34.7923 78.5235 34.9425 78.455 35.1078C78.3866 35.2731 78.3513 35.4503 78.3513 35.6292C78.3513 35.8081 78.3866 35.9852 78.455 36.1505C78.5235 36.3158 78.6238 36.466 78.7503 36.5925C78.8769 36.719 79.027 36.8194 79.1923 36.8878C79.3576 36.9563 79.5348 36.9915 79.7137 36.9915H85.1623Z" fill="#162A27"/>
<path d="M102.773 30.0226H62.105V97.156H102.773V30.0226Z" stroke="#1B2927" stroke-width="2" stroke-dasharray="2 2"/>
<path d="M114.945 41.4555C126.393 41.4555 135.673 32.1754 135.673 20.7277C135.673 9.28013 126.393 0 114.945 0C103.498 0 94.2175 9.28013 94.2175 20.7277C94.2175 32.1754 103.498 41.4555 114.945 41.4555Z" fill="#F6F2ED"/>
<path d="M114.946 38.3929C124.703 38.3929 132.612 30.4837 132.612 20.7272C132.612 10.9707 124.703 3.06151 114.946 3.06151C105.19 3.06151 97.2805 10.9707 97.2805 20.7272C97.2805 30.4837 105.19 38.3929 114.946 38.3929Z" fill="#ED835E" stroke="#1B2927" stroke-width="2.5"/>
<path d="M113.613 25.4918L112.041 11.9836C111.958 11.2842 112.165 10.6175 112.662 9.98361C113.186 9.32787 113.972 9 115.02 9C116.151 9 116.937 9.32787 117.379 9.98361C117.848 10.6175 118.041 11.2842 117.958 11.9836L116.427 25.4918H113.613ZM114.979 33C114.179 33 113.475 32.7486 112.868 32.2459C112.289 31.7432 112 31.1421 112 30.4426C112 29.7432 112.303 29.1421 112.91 28.6393C113.517 28.1366 114.22 27.8852 115.02 27.8852C115.875 27.8852 116.579 28.1366 117.131 28.6393C117.71 29.1421 118 29.7432 118 30.4426C118 31.1421 117.696 31.7432 117.089 32.2459C116.482 32.7486 115.779 33 114.979 33Z" fill="#F6F2ED"/>
</svg>
