<svg width="157" height="135" viewBox="0 0 157 135" fill="none" xmlns="http://www.w3.org/2000/svg">
<g opacity="0.272">
<path d="M33.1254 126.256C47.6358 126.256 59.3988 114.493 59.3988 99.9826C59.3988 85.4722 47.6358 73.7092 33.1254 73.7092C18.6151 73.7092 6.85211 85.4722 6.85211 99.9826C6.85211 114.493 18.6151 126.256 33.1254 126.256Z" fill="#2D6759"/>
<path d="M40.3245 133.583C40.6705 133.863 41.0918 134.035 41.5352 134.075C41.9786 134.116 42.4241 134.025 42.8154 133.812C43.2066 133.6 43.5261 133.276 43.7334 132.882C43.9406 132.488 44.0263 132.041 43.9797 131.598C43.9331 131.155 43.7562 130.736 43.4714 130.394C43.1866 130.052 42.8067 129.802 42.3797 129.675C41.9527 129.549 41.4979 129.552 41.0728 129.684C40.6476 129.817 40.2712 130.072 39.9911 130.418C39.6157 130.882 39.4399 131.476 39.5025 132.07C39.565 132.663 39.8607 133.208 40.3245 133.583Z" fill="#888888"/>
<path d="M48.4102 128.831C48.6463 129.022 48.9339 129.139 49.2365 129.167C49.5391 129.195 49.8432 129.132 50.1103 128.987C50.3773 128.842 50.5955 128.622 50.737 128.353C50.8786 128.084 50.9372 127.779 50.9056 127.477C50.8739 127.174 50.7533 126.888 50.5591 126.655C50.3649 126.421 50.1057 126.25 49.8144 126.164C49.5231 126.077 49.2126 126.079 48.9224 126.169C48.6321 126.259 48.375 126.433 48.1836 126.669C47.9271 126.986 47.8069 127.392 47.8493 127.797C47.8918 128.202 48.0936 128.574 48.4102 128.831Z" fill="#888888"/>
<path d="M2.85426 92.6814C3.4188 92.6814 3.97066 92.514 4.44006 92.2004C4.90946 91.8867 5.27532 91.4409 5.49136 90.9194C5.7074 90.3978 5.76393 89.8239 5.65379 89.2702C5.54365 88.7165 5.2718 88.2079 4.87261 87.8087C4.47342 87.4095 3.96481 87.1376 3.41112 87.0275C2.85742 86.9174 2.2835 86.9739 1.76193 87.1899C1.24036 87.406 0.79457 87.7718 0.480927 88.2412C0.167284 88.7106 -0.00012207 89.2625 -0.00012207 89.827C-0.00012207 90.5841 0.300606 91.3101 0.835906 91.8454C1.37121 92.3807 2.09723 92.6814 2.85426 92.6814Z" fill="#888888"/>
</g>
<path d="M93.229 128.208C127.897 128.208 156 100.105 156 65.4373C156 30.7698 127.897 2.66626 93.229 2.66626C58.5616 2.66626 30.458 30.7698 30.458 65.4373C30.458 100.105 58.5616 128.208 93.229 128.208Z" fill="#F6F2ED"/>
<path d="M93.2288 126.748C127.09 126.748 154.54 99.298 154.54 65.4367C154.54 31.5755 127.09 4.12549 93.2288 4.12549C59.3675 4.12549 31.9175 31.5755 31.9175 65.4367C31.9175 99.298 59.3675 126.748 93.2288 126.748Z" stroke="#0E2B27" stroke-width="3"/>
<path d="M99.3035 122.14L98.8091 118.182C100.046 118.059 101.407 117.811 102.644 117.564L103.385 121.522C102.024 121.768 100.663 121.893 99.3035 122.14ZM107.466 120.533L106.476 116.699L110.186 115.586L111.548 119.419C110.063 119.79 108.702 120.161 107.466 120.533ZM115.257 117.808L113.649 114.098C114.886 113.603 116 112.984 117.112 112.49L118.967 116.076C117.766 116.729 116.527 117.308 115.257 117.811V117.808ZM122.675 114.101L120.573 110.638C121.689 110.01 122.762 109.307 123.784 108.536L126.133 111.747C125.027 112.617 123.79 113.359 122.675 114.101ZM129.353 109.278L126.762 106.186C127.752 105.32 128.741 104.454 129.607 103.588L132.332 106.433C131.432 107.473 130.436 108.426 129.356 109.278H129.353ZM135.413 103.465L132.445 100.74C133.311 99.75 134.176 98.7612 134.919 97.7714L138.13 100.245C137.273 101.363 136.281 102.476 135.416 103.465H135.413ZM140.483 96.9102L137.144 94.6845C137.886 93.5711 138.507 92.4588 139.123 91.3455L142.585 93.324C141.959 94.561 141.257 95.7586 140.484 96.9102H140.483ZM144.565 89.7368L140.979 88.0055C141.548 86.8418 142.044 85.6438 142.465 84.4183L146.174 85.9024C145.746 87.2226 145.21 88.5054 144.572 89.7377L144.565 89.7368ZM147.657 81.9454L143.823 80.7084C144.194 79.4715 144.566 78.2346 144.813 76.9986L148.77 77.8648L147.657 81.9454ZM149.512 73.9068L145.554 73.2888C145.801 72.0519 145.924 70.6913 146.048 69.4544L150.006 69.8252C149.885 71.0621 149.638 72.5453 149.514 73.9078L149.512 73.9068ZM150.13 65.621H146.173V65.2463C146.193 64.0907 146.152 62.9349 146.049 61.7837L150.007 61.5365C150.131 62.7735 150.131 64.0104 150.131 65.2463L150.13 65.621ZM42.2889 48.5541L38.4555 47.3172C38.8409 45.9594 39.3373 44.6356 39.9396 43.3592L43.6494 44.8433C43.156 46.0802 42.6607 47.3172 42.2889 48.5541ZM45.2572 41.3807L41.6709 39.5258C42.2889 38.2889 42.9079 37.0519 43.6494 35.816L47.1121 37.9181C46.4242 39.0335 45.8041 40.1898 45.2572 41.3807ZM49.2151 34.8262L45.8761 32.476C46.6177 31.3626 47.4838 30.2503 48.35 29.1369L51.4418 31.6108C50.7002 32.7232 49.8331 33.7148 49.2151 34.8262ZM54.0383 28.7662L51.07 26.0412L54.0383 23.073L56.7632 26.0412C55.7706 26.9103 54.9035 27.9 54.0383 28.7662ZM59.7276 23.5722L57.2547 20.4794C58.368 19.6133 59.4804 18.7481 60.5937 18.0055L62.8233 21.3455C61.7146 21.9743 60.6767 22.7215 59.7276 23.5722ZM66.0349 19.1169L64.0564 15.6543C65.2933 14.9127 66.5302 14.2918 67.7662 13.6758L69.4985 17.2679C68.2615 17.8819 67.1482 18.5009 66.0349 19.1169ZM72.9601 15.7779L71.476 12.0681C72.7687 11.5399 74.0901 11.0851 75.434 10.7056L76.6709 14.539C75.3996 14.8404 74.1579 15.2557 72.9611 15.7798L72.9601 15.7779ZM80.3807 13.4276L79.391 9.46966C80.7534 9.09887 82.1159 8.85168 83.4726 8.60352L84.0905 12.5615C82.8546 12.8116 81.6176 13.0588 80.3807 13.4306V13.4276Z" fill="#002C27" stroke="#F6F2ED" stroke-width="0.7"/>
<path d="M70.1767 27.5408H116.277C116.845 27.5408 117.389 27.7663 117.791 28.1679C118.192 28.5694 118.418 29.114 118.418 29.6818V101.504C118.418 102.071 118.192 102.616 117.791 103.017C117.389 103.419 116.845 103.645 116.277 103.645H70.1767C69.6089 103.645 69.0643 103.419 68.6628 103.017C68.2613 102.616 68.0357 102.071 68.0357 101.504V29.6818C68.0357 29.114 68.2613 28.5694 68.6628 28.1679C69.0643 27.7663 69.6089 27.5408 70.1767 27.5408Z" fill="#DDBF9B"/>
<path d="M118.07 100.775C118.443 100.775 118.801 100.626 119.065 100.362C119.329 100.098 119.477 99.7405 119.477 99.3673V30.7561C119.477 29.6492 119.042 28.5864 118.267 27.7968C117.491 27.0072 116.436 26.5538 115.329 26.5344H71.1986C70.079 26.5344 69.0052 26.9792 68.2134 27.7709C67.4217 28.5627 66.9769 29.6365 66.9769 30.7561V102.206C67.0136 103.301 67.4745 104.339 68.2622 105.101C69.05 105.862 70.103 106.287 71.1986 106.287H115.4C116.483 106.251 117.511 105.8 118.27 105.027C119.03 104.254 119.463 103.219 119.481 102.136V99.2515C119.481 99.0664 119.444 98.8831 119.373 98.7121C119.302 98.5411 119.198 98.3858 119.067 98.255C118.936 98.1243 118.781 98.0207 118.609 97.9503C118.438 97.8798 118.255 97.8437 118.07 97.8443L116.662 97.8034V102.136C116.645 102.485 116.499 102.816 116.252 103.063C116.005 103.31 115.674 103.456 115.325 103.473H71.1986C70.8373 103.474 70.4895 103.335 70.2276 103.086C69.9656 102.837 69.8094 102.497 69.7914 102.136V30.7561C69.7914 30.3829 69.9397 30.025 70.2036 29.7611C70.4675 29.4972 70.8254 29.3489 71.1986 29.3489H115.4C115.748 29.3842 116.071 29.5479 116.305 29.8081C116.538 30.0683 116.667 30.4063 116.665 30.7561V99.3663C116.665 99.7392 116.813 100.097 117.076 100.361C117.339 100.625 117.697 100.774 118.07 100.775Z" fill="#162A27"/>
<path d="M96.0425 38.93C96.4158 38.93 96.7737 38.7817 97.0376 38.5178C97.3015 38.2539 97.4498 37.8959 97.4498 37.5227C97.4498 37.1495 97.3015 36.7916 97.0376 36.5276C96.7737 36.2637 96.4158 36.1155 96.0425 36.1155H90.4146C90.2298 36.1155 90.0468 36.1519 89.876 36.2226C89.7053 36.2933 89.5502 36.397 89.4195 36.5276C89.2888 36.6583 89.1852 36.8135 89.1144 36.9842C89.0437 37.1549 89.0073 37.3379 89.0073 37.5227C89.0073 37.7075 89.0437 37.8905 89.1144 38.0612C89.1852 38.232 89.2888 38.3871 89.4195 38.5178C89.5502 38.6485 89.7053 38.7521 89.876 38.8228C90.0468 38.8936 90.2298 38.93 90.4146 38.93H96.0425Z" fill="#162A27"/>
<path d="M114.232 31.731H72.2253V101.075H114.232V31.731Z" stroke="#1B2927" stroke-width="2" stroke-dasharray="2 2"/>
<path d="M126.804 43.5403C138.629 43.5403 148.214 33.9546 148.214 22.13C148.214 10.3054 138.629 0.719727 126.804 0.719727C114.98 0.719727 105.394 10.3054 105.394 22.13C105.394 33.9546 114.98 43.5403 126.804 43.5403Z" fill="#F5F2ED"/>
<path d="M126.804 41.594C137.554 41.594 146.268 32.8797 146.268 22.1301C146.268 11.3805 137.554 2.66626 126.804 2.66626C116.055 2.66626 107.34 11.3805 107.34 22.1301C107.34 32.8797 116.055 41.594 126.804 41.594Z" fill="#ED835E"/>
<path d="M126.804 40.3769C136.882 40.3769 145.052 32.2072 145.052 22.1295C145.052 12.0517 136.882 3.88208 126.804 3.88208C116.726 3.88208 108.557 12.0517 108.557 22.1295C108.557 32.2072 116.726 40.3769 126.804 40.3769Z" stroke="#1B2927" stroke-width="2.5"/>
<path d="M123.457 11.0264L124.013 25.7722H128.772L129.332 11.0264H123.457ZM128.772 33.4702V28.6217H124.013V33.4702H128.772Z" fill="#F6F2ED"/>
</svg>
