<svg width="41" height="40" viewBox="0 0 41 40" fill="none" xmlns="http://www.w3.org/2000/svg">
<rect x="0.5" width="40" height="40" rx="20" fill="#0F7A60" fill-opacity="0.05"/>
<path d="M17.5896 22.1748C17.5396 22.12 17.4785 22.0765 17.4104 22.0471C17.3423 22.0176 17.2688 22.0029 17.1946 22.004H13.5117C13.4375 22.0029 13.364 22.0176 13.2959 22.0471C13.2278 22.0765 13.1668 22.12 13.1167 22.1748L12.5026 22.8492C12.4161 22.9435 12.3682 23.0668 12.3682 23.1947C12.3682 23.3227 12.4161 23.446 12.5026 23.5403L15.4144 26.8372L15.6859 26.5153L18.2136 23.5443C18.2942 23.4466 18.3374 23.3235 18.3356 23.1969C18.3338 23.0703 18.287 22.9485 18.2038 22.8531L17.5896 22.1748Z" fill="#3E524D"/>
<path d="M27.4387 13.2835H27.3578C27.1569 13.2836 26.9592 13.3344 26.7832 13.4313C26.6071 13.5281 26.4583 13.6678 26.3506 13.8374C26.2566 13.9939 26.1983 14.1692 26.1798 14.3509C26.1716 14.3905 26.1683 14.4309 26.1699 14.4713V20.6149C26.1571 20.8034 26.0728 20.9799 25.9343 21.1083C25.7957 21.2368 25.6134 21.3075 25.4245 21.306C25.2245 21.3047 25.0332 21.2248 24.8918 21.0834C24.7504 20.942 24.6704 20.7506 24.6691 20.5507V11.9604C24.6699 11.661 24.5532 11.3733 24.3441 11.159C24.135 10.9447 23.8502 10.8209 23.5509 10.8143C23.2516 10.8078 22.9616 10.9188 22.7433 11.1237C22.525 11.3286 22.3957 11.6109 22.3833 11.9101V11.9199C22.3833 11.9397 22.3734 11.9505 22.3734 11.9604V19.4932C22.3734 19.6935 22.2939 19.8857 22.1522 20.0273C22.0105 20.169 21.8184 20.2485 21.6181 20.2485C21.4178 20.2485 21.2256 20.169 21.084 20.0273C20.9423 19.8857 20.8627 19.6935 20.8627 19.4932V11.1586C20.8633 10.853 20.7428 10.5596 20.5276 10.3426C20.3124 10.1255 20.02 10.0025 19.7144 10.0004C19.6606 9.99872 19.6067 10.002 19.5535 10.0103C19.4566 10.0265 19.3618 10.0537 19.2711 10.0913C19.2636 10.0924 19.2567 10.0959 19.2513 10.1012C19.048 10.1935 18.8753 10.3421 18.7539 10.5296C18.6324 10.717 18.5672 10.9353 18.5661 11.1586V18.0279C18.5661 18.2282 18.4865 18.4204 18.3448 18.562C18.2032 18.7037 18.011 18.7833 17.8107 18.7833C17.6104 18.7833 17.4183 18.7037 17.2766 18.562C17.1349 18.4204 17.0554 18.2282 17.0554 18.0279V14.5118C17.0542 14.3159 17.0061 14.123 16.9151 13.9495C16.824 13.776 16.6927 13.6268 16.532 13.5146C16.3288 13.3621 16.0811 13.2806 15.8271 13.2825H15.8172C15.4916 13.2838 15.1798 13.4138 14.9497 13.6441C14.7196 13.8744 14.5899 14.1863 14.5889 14.5118V20.4964H17.7613C17.8663 20.4963 17.9701 20.5188 18.0656 20.5622C18.1612 20.6057 18.2463 20.6691 18.3153 20.7482L20.0778 22.6815C20.2009 22.8178 20.2698 22.9945 20.2717 23.1782C20.2735 23.3619 20.208 23.54 20.0876 23.6787L16.613 27.7744C17.2462 28.471 18.0171 29.0285 18.877 29.4116C19.7368 29.7947 20.6669 29.9951 21.6082 30C23.5287 29.9368 25.3459 29.115 26.6616 27.7145C27.9773 26.314 28.6843 24.4492 28.6276 22.5284V14.4733C28.6273 14.158 28.502 13.8557 28.2791 13.6326C28.0563 13.4096 27.754 13.284 27.4387 13.2835Z" fill="#3E524D"/>
</svg>
