<svg width="21" height="21" viewBox="0 0 21 21" fill="none" xmlns="http://www.w3.org/2000/svg">
<path opacity="0.2" d="M13.4901 2.625H7.5099C7.42372 2.625 7.33838 2.64197 7.25876 2.67495C7.17914 2.70793 7.1068 2.75627 7.04586 2.81721L2.81721 7.04586C2.75627 7.1068 2.70793 7.17914 2.67495 7.25876C2.64197 7.33838 2.625 7.42372 2.625 7.5099V13.4901C2.625 13.5763 2.64197 13.6616 2.67495 13.7412C2.70793 13.8209 2.75627 13.8932 2.81721 13.9541L7.04586 18.1828C7.1068 18.2437 7.17914 18.2921 7.25876 18.325C7.33838 18.358 7.42372 18.375 7.5099 18.375H13.4901C13.5763 18.375 13.6616 18.358 13.7412 18.325C13.8209 18.2921 13.8932 18.2437 13.9541 18.1828L18.1828 13.9541C18.2437 13.8932 18.2921 13.8209 18.325 13.7412C18.358 13.6616 18.375 13.5763 18.375 13.4901V7.5099C18.375 7.42372 18.358 7.33838 18.325 7.25876C18.2921 7.17914 18.2437 7.1068 18.1828 7.04586L13.9541 2.81721C13.8932 2.75627 13.8209 2.70793 13.7412 2.67495C13.6616 2.64197 13.5763 2.625 13.4901 2.625Z" fill="white"/>
<path d="M10.5 6.5625V11.1562" stroke="white" stroke-width="1.5" stroke-linecap="round" stroke-linejoin="round"/>
<path d="M13.4901 2.625H7.5099C7.42372 2.625 7.33838 2.64197 7.25876 2.67495C7.17914 2.70793 7.1068 2.75627 7.04586 2.81721L2.81721 7.04586C2.75627 7.1068 2.70793 7.17914 2.67495 7.25876C2.64197 7.33838 2.625 7.42372 2.625 7.5099V13.4901C2.625 13.5763 2.64197 13.6616 2.67495 13.7412C2.70793 13.8209 2.75627 13.8932 2.81721 13.9541L7.04586 18.1828C7.1068 18.2437 7.17914 18.2921 7.25876 18.325C7.33838 18.358 7.42372 18.375 7.5099 18.375H13.4901C13.5763 18.375 13.6616 18.358 13.7412 18.325C13.8209 18.2921 13.8932 18.2437 13.9541 18.1828L18.1828 13.9541C18.2437 13.8932 18.2921 13.8209 18.325 13.7412C18.358 13.6616 18.375 13.5763 18.375 13.4901V7.5099C18.375 7.42372 18.358 7.33838 18.325 7.25876C18.2921 7.17914 18.2437 7.1068 18.1828 7.04586L13.9541 2.81721C13.8932 2.75627 13.8209 2.70793 13.7412 2.67495C13.6616 2.64197 13.5763 2.625 13.4901 2.625Z" stroke="white" stroke-width="1.5" stroke-miterlimit="10"/>
<path d="M10.5 15.0938C11.0437 15.0938 11.4844 14.653 11.4844 14.1094C11.4844 13.5657 11.0437 13.125 10.5 13.125C9.95634 13.125 9.51562 13.5657 9.51562 14.1094C9.51562 14.653 9.95634 15.0938 10.5 15.0938Z" fill="white"/>
</svg>
