<svg width="17" height="21" viewBox="0 0 17 21" fill="none" xmlns="http://www.w3.org/2000/svg">
<path fill-rule="evenodd" clip-rule="evenodd" d="M6.22036 2.25999L5.33678 1.53886L6.49362 0L9.11163 2.12356C9.26401 2.24989 9.37464 2.42222 9.42817 2.61663C9.48171 2.81105 9.47548 3.0179 9.41037 3.20848C9.34526 3.39906 9.22449 3.56393 9.06481 3.6802C8.90514 3.79646 8.71448 3.85837 8.5193 3.85732C7.66573 3.8442 6.81803 4.00543 6.02465 4.33179C5.23126 4.65815 4.50774 5.14325 3.89544 5.75935C3.28313 6.37546 2.79404 7.1105 2.45611 7.92247C2.11819 8.73444 1.93805 9.60742 1.926 10.4915C1.92861 11.5305 2.16859 12.554 2.62631 13.4785C3.08404 14.403 3.74651 15.2021 4.55956 15.8106C4.83716 16.0182 5.12952 16.2037 5.43414 16.3656L4.56856 18.0918C4.16813 17.8808 3.78506 17.6362 3.42318 17.3605L3.96887 16.5715L3.41418 17.3511C2.36003 16.5619 1.50117 15.5256 0.907796 14.3267C0.314424 13.1279 0.00339046 11.8006 0.00012207 10.4534C0.0109048 8.56907 0.617198 6.74026 1.7263 5.24656C2.83541 3.75287 4.38629 2.6765 6.14182 2.18203L6.22036 2.25999ZM15.1273 10.5212C15.1202 9.30261 14.789 8.10964 14.1701 7.07325C13.5512 6.03685 12.6686 5.19712 11.6192 4.64623L12.475 2.91248C13.9681 3.69217 15.1965 4.92443 15.9966 6.44519C16.7968 7.96596 17.1307 9.70309 16.954 11.4253C16.7773 13.1476 16.0984 14.7732 15.0075 16.0858C13.9166 17.3985 12.4657 18.3358 10.8477 18.7731L11.7133 19.4747L10.5524 21L7.9278 18.8764C7.77304 18.7504 7.66003 18.5776 7.60446 18.382C7.54889 18.1864 7.55353 17.9777 7.61773 17.785C7.6776 17.5913 7.79573 17.4225 7.95485 17.3032C8.11397 17.184 8.30574 17.1206 8.50212 17.1223C10.2258 17.145 11.8875 16.4578 13.1222 15.2119C14.3569 13.9659 15.0634 12.2632 15.0864 10.478L15.1273 10.5212Z" fill="#2D6759"/>
<path fill-rule="evenodd" clip-rule="evenodd" d="M7.13365 5.65593C7.00977 5.65469 6.88688 5.67904 6.77219 5.72757C6.6575 5.77611 6.5533 5.84784 6.46569 5.93858C6.37809 6.02932 6.30883 6.13724 6.26197 6.25604C6.21512 6.37483 6.1916 6.50211 6.19281 6.63043V7.98625H4.78235C4.65906 7.98468 4.53671 8.00853 4.42241 8.05641C4.30811 8.10429 4.20415 8.17526 4.11658 8.26516C4.02902 8.35507 3.9596 8.46212 3.91238 8.58009C3.86515 8.69805 3.84106 8.82457 3.8415 8.95228V11.7571C3.84107 11.8852 3.86511 12.0122 3.91224 12.1306C3.95937 12.249 4.02865 12.3566 4.11611 12.4472C4.20356 12.5378 4.30745 12.6096 4.42179 12.6584C4.53614 12.7072 4.65867 12.7321 4.78235 12.7316H6.19281V14.0875C6.19237 14.2156 6.21641 14.3425 6.26354 14.4609C6.31067 14.5793 6.37996 14.6869 6.46741 14.7775C6.55486 14.8681 6.65875 14.9399 6.7731 14.9887C6.88744 15.0375 7.00998 15.0624 7.13365 15.062H9.95538C10.2047 15.0613 10.4436 14.9584 10.6199 14.7758C10.7963 14.5932 10.8956 14.3457 10.8962 14.0875V12.7232H12.3075C12.5568 12.7225 12.7958 12.6196 12.9721 12.437C13.1484 12.2544 13.2477 12.0069 13.2484 11.7487V8.94296C13.2488 8.81486 13.2247 8.68794 13.1776 8.5695C13.1305 8.45107 13.0612 8.34346 12.9738 8.25288C12.8863 8.1623 12.7824 8.09054 12.6681 8.04172C12.5537 7.99291 12.4312 7.96801 12.3075 7.96846H10.8962V6.60501C10.8967 6.47691 10.8726 6.34999 10.8255 6.23155C10.7784 6.11312 10.7091 6.00552 10.6216 5.91494C10.5342 5.82436 10.4303 5.75259 10.3159 5.70378C10.2016 5.65496 10.0791 5.63006 9.95538 5.63051H7.13365V5.65593Z" fill="#2D6759"/>
</svg>
