<svg width="17" height="21" viewBox="0 0 17 21" fill="none" xmlns="http://www.w3.org/2000/svg">
<g clip-path="url(#clip0_461_5981)">
<path fill-rule="evenodd" clip-rule="evenodd" d="M6.22024 2.25999L5.33666 1.53886L6.4935 0L9.11151 2.12356C9.26389 2.24989 9.37452 2.42222 9.42805 2.61663C9.48159 2.81105 9.47536 3.0179 9.41025 3.20848C9.34514 3.39906 9.22437 3.56393 9.06469 3.6802C8.90502 3.79646 8.71436 3.85837 8.51918 3.85732C7.66561 3.8442 6.81791 4.00543 6.02453 4.33179C5.23114 4.65815 4.50762 5.14325 3.89532 5.75935C3.28301 6.37546 2.79392 7.1105 2.45599 7.92247C2.11807 8.73444 1.93793 9.60742 1.92588 10.4915C1.92849 11.5305 2.16847 12.554 2.62619 13.4785C3.08392 14.403 3.74639 15.2021 4.55944 15.8106C4.83704 16.0182 5.1294 16.2037 5.43402 16.3656L4.56844 18.0918C4.16801 17.8808 3.78494 17.6362 3.42306 17.3605L3.96875 16.5715L3.41406 17.3511C2.35991 16.5619 1.50105 15.5256 0.907674 14.3267C0.314302 13.1279 0.00326839 11.8006 0 10.4534C0.0107827 8.56907 0.617076 6.74026 1.72618 5.24656C2.83529 3.75287 4.38617 2.6765 6.1417 2.18203L6.22024 2.25999ZM15.1272 10.5212C15.1201 9.30261 14.7889 8.10964 14.17 7.07325C13.5511 6.03685 12.6685 5.19712 11.6191 4.64623L12.4749 2.91248C13.968 3.69217 15.1964 4.92443 15.9965 6.44519C16.7967 7.96596 17.1306 9.70309 16.9539 11.4253C16.7772 13.1476 16.0983 14.7732 15.0074 16.0858C13.9165 17.3985 12.4656 18.3358 10.8476 18.7731L11.7132 19.4747L10.5523 21L7.92768 18.8764C7.77292 18.7504 7.65991 18.5776 7.60434 18.382C7.54877 18.1864 7.55341 17.9777 7.61761 17.785C7.67748 17.5913 7.79561 17.4225 7.95473 17.3032C8.11385 17.184 8.30562 17.1206 8.502 17.1223C10.2257 17.145 11.8874 16.4578 13.1221 15.2119C14.3568 13.9659 15.0633 12.2632 15.0863 10.478L15.1272 10.5212Z" fill="#2F4F4F"/>
<path fill-rule="evenodd" clip-rule="evenodd" d="M7.13371 5.65593C7.00983 5.65469 6.88694 5.67904 6.77225 5.72757C6.65756 5.77611 6.55336 5.84784 6.46575 5.93858C6.37815 6.02932 6.30889 6.13724 6.26203 6.25604C6.21518 6.37483 6.19166 6.50211 6.19287 6.63043V7.98625H4.78241C4.65912 7.98468 4.53677 8.00853 4.42247 8.05641C4.30817 8.10429 4.20421 8.17526 4.11664 8.26516C4.02908 8.35507 3.95966 8.46212 3.91244 8.58009C3.86521 8.69805 3.84112 8.82457 3.84156 8.95228V11.7571C3.84113 11.8852 3.86517 12.0122 3.9123 12.1306C3.95943 12.249 4.02871 12.3566 4.11617 12.4472C4.20362 12.5378 4.30751 12.6096 4.42185 12.6584C4.5362 12.7072 4.65873 12.7321 4.78241 12.7316H6.19287V14.0875C6.19243 14.2156 6.21647 14.3425 6.2636 14.4609C6.31073 14.5793 6.38002 14.6869 6.46747 14.7775C6.55492 14.8681 6.65881 14.9399 6.77316 14.9887C6.8875 15.0375 7.01004 15.0624 7.13371 15.062H9.95544C10.2048 15.0613 10.4437 14.9584 10.62 14.7758C10.7964 14.5932 10.8957 14.3457 10.8963 14.0875V12.7232H12.3076C12.5569 12.7225 12.7959 12.6196 12.9722 12.437C13.1485 12.2544 13.2478 12.0069 13.2485 11.7487V8.94296C13.2489 8.81486 13.2248 8.68794 13.1777 8.5695C13.1306 8.45107 13.0613 8.34346 12.9739 8.25288C12.8864 8.1623 12.7825 8.09054 12.6682 8.04172C12.5538 7.99291 12.4313 7.96801 12.3076 7.96846H10.8963V6.60501C10.8968 6.47691 10.8727 6.34999 10.8256 6.23155C10.7785 6.11312 10.7092 6.00552 10.6217 5.91494C10.5343 5.82436 10.4304 5.75259 10.316 5.70378C10.2017 5.65496 10.0792 5.63006 9.95544 5.63051H7.13371V5.65593Z" fill="#2F4F4F"/>
</g>
<defs>
<clipPath id="clip0_461_5981">
<rect width="17" height="21" fill="white"/>
</clipPath>
</defs>
</svg>
