<svg width="40" height="40" viewBox="0 0 40 40" fill="none" xmlns="http://www.w3.org/2000/svg">
<rect width="40" height="40" rx="20" fill="#0F7A60" fill-opacity="0.05"/>
<path d="M21.9238 17.6135C21.9238 17.7905 21.2957 18.3989 19.7435 18.8708C18.6807 19.1994 17.5757 19.3716 16.4633 19.382H15.8931C12.2196 19.382 10 18.105 10 17.5949C10 17.0847 12.1813 15.7871 15.8941 15.7871H17.3873C18.8424 15.8542 20.2559 16.2939 21.4923 17.064C21.6598 17.2274 21.8049 17.4121 21.9238 17.6135Z" fill="#3E524D" stroke="#3E524D" stroke-width="1.5"/>
<path d="M20.568 21.7001C21.0302 21.5585 21.483 21.3878 21.9236 21.189V22.3086C21.9236 22.5052 21.2365 23.1923 19.4287 23.6838C18.2851 23.9673 17.1104 24.1064 15.9322 24.0977C12.6126 24.0977 10.4716 23.1157 10.0391 22.409V21.25C11.9066 22.0229 13.9112 22.41 15.9322 22.3883H16.6389C17.9728 22.3288 19.2934 22.0976 20.568 21.7001Z" fill="#3E524D" stroke="#3E524D" stroke-width="1.5"/>
<path d="M20.1365 26.5305C20.7477 26.3683 21.3453 26.1583 21.9235 25.9023V27.1989C21.9235 27.6128 19.9574 28.986 15.9321 28.986C11.9068 28.986 10.04 27.6108 10.04 27.1989V25.9023C11.9063 26.6795 13.9117 27.0669 15.9331 27.0406C17.3499 27.0442 18.7617 26.8729 20.1365 26.5305Z" fill="#3E524D" stroke="#3E524D" stroke-width="1.5"/>
<path d="M29.9996 12.8007C29.9996 13.2726 27.8193 14.6075 24.1065 14.6075H22.9269C21.4939 13.7571 19.8907 13.2338 18.232 13.075C18.1736 13.0515 18.1217 13.0143 18.0807 12.9666C18.0396 12.9189 18.0106 12.862 17.9961 12.8007C18.0944 12.2896 20.2944 11.0137 23.9875 11.0137C27.6807 11.0137 29.8961 12.2906 29.9996 12.8007Z" fill="#3E524D" stroke="#3E524D" stroke-width="1.5"/>
<path d="M24.8311 17.5155C26.6056 17.4669 28.3563 17.0942 29.9967 16.4155V17.5155C29.9967 17.9874 28.0306 19.107 24.8311 19.2633V17.5155Z" fill="#3E524D" stroke="#3E524D" stroke-width="1.5"/>
<path d="M24.8311 22.2103C26.6059 22.1639 28.357 21.7911 29.9967 21.1104V22.4069C29.9967 22.8002 28.249 23.9984 24.8311 24.1547V22.2103Z" fill="#3E524D" stroke="#3E524D" stroke-width="1.5"/>
</svg>
