<svg width="166" height="132" viewBox="0 0 166 132" fill="none" xmlns="http://www.w3.org/2000/svg">
<g opacity="0.272">
<path d="M37.4651 122.038C53.8761 122.038 67.1799 108.644 67.1799 92.1224C67.1799 75.6004 53.8761 62.2066 37.4651 62.2066C21.054 62.2066 7.75024 75.6004 7.75024 92.1224C7.75024 108.644 21.054 122.038 37.4651 122.038Z" fill="url(#paint0_linear_461_5992)"/>
<path d="M45.6102 130.386C46.002 130.705 46.4791 130.9 46.9811 130.947C47.4832 130.993 47.9876 130.888 48.4305 130.646C48.8734 130.404 49.235 130.034 49.4694 129.585C49.7038 129.136 49.8005 128.626 49.7473 128.122C49.6941 127.617 49.4934 127.139 49.1706 126.75C48.8478 126.36 48.4173 126.075 47.9337 125.932C47.4502 125.788 46.9352 125.792 46.454 125.944C45.9728 126.095 45.547 126.387 45.2305 126.782C44.8068 127.311 44.6088 127.987 44.68 128.663C44.7512 129.339 45.0857 129.958 45.6102 130.386Z" fill="url(#paint1_linear_461_5992)"/>
<path d="M54.755 124.972C55.0221 125.19 55.3475 125.323 55.6898 125.355C56.0322 125.386 56.3762 125.315 56.6784 125.15C56.9805 124.985 57.2272 124.733 57.3873 124.427C57.5474 124.121 57.6136 123.773 57.5777 123.429C57.5418 123.085 57.4052 122.759 57.1854 122.493C56.9656 122.227 56.6723 122.032 56.3426 121.934C56.013 121.836 55.6618 121.838 55.3334 121.941C55.0051 122.043 54.7144 122.242 54.498 122.511C54.2079 122.871 54.0719 123.333 54.1201 123.795C54.1683 124.257 54.3967 124.68 54.755 124.972Z" fill="url(#paint2_linear_461_5992)"/>
<path d="M3.22841 83.8098C3.86693 83.8098 4.49111 83.6192 5.02201 83.262C5.55292 82.9049 5.96672 82.3973 6.21107 81.8034C6.45542 81.2095 6.51935 80.5559 6.39478 79.9254C6.27021 79.295 5.96274 78.7158 5.51124 78.2613C5.05974 77.8067 4.48449 77.4972 3.85824 77.3717C3.23199 77.2463 2.58286 77.3107 1.99295 77.5567C1.40303 77.8027 0.898827 78.2193 0.544085 78.7538C0.189343 79.2883 0 79.9167 0 80.5595C0 81.4216 0.340134 82.2483 0.945578 82.8578C1.55102 83.4673 2.37218 83.8098 3.22841 83.8098Z" fill="url(#paint3_linear_461_5992)"/>
</g>
<g opacity="0.272">
<path d="M152.714 31.6638C157.569 27.9795 158.546 21.036 154.894 16.1552C151.242 11.2743 144.345 10.3043 139.489 13.9886C134.633 17.6729 133.657 24.6163 137.309 29.4972C140.961 34.3781 147.858 35.3481 152.714 31.6638Z" fill="url(#paint4_linear_461_5992)"/>
<path d="M152.16 35.9632C152.114 36.1453 152.017 36.3099 151.879 36.4362C151.741 36.5625 151.569 36.6448 151.385 36.6727C151.2 36.7006 151.012 36.6728 150.844 36.5929C150.676 36.513 150.535 36.3845 150.439 36.2238C150.343 36.063 150.297 35.8772 150.306 35.6897C150.315 35.5023 150.379 35.3217 150.49 35.1707C150.601 35.0198 150.754 34.9053 150.929 34.8418C151.104 34.7782 151.294 34.7684 151.475 34.8137C151.717 34.8744 151.925 35.0296 152.054 35.2451C152.182 35.4607 152.22 35.719 152.16 35.9632Z" fill="url(#paint5_linear_461_5992)"/>
<path d="M148.257 36.4157C148.226 36.5402 148.16 36.6526 148.065 36.7389C147.971 36.8252 147.854 36.8814 147.728 36.9005C147.602 36.9195 147.474 36.9005 147.358 36.846C147.243 36.7914 147.147 36.7036 147.082 36.5937C147.016 36.4839 146.985 36.3569 146.991 36.2288C146.997 36.1008 147.041 35.9774 147.117 35.8743C147.193 35.7711 147.297 35.6929 147.417 35.6495C147.536 35.6061 147.666 35.5994 147.79 35.6303C147.955 35.6718 148.097 35.7778 148.185 35.9251C148.273 36.0724 148.299 36.2489 148.257 36.4157Z" fill="url(#paint6_linear_461_5992)"/>
<path d="M154.383 12.6903C154.194 12.8337 153.967 12.9176 153.731 12.9313C153.495 12.945 153.26 12.8879 153.056 12.7672C152.853 12.6466 152.689 12.4678 152.587 12.2535C152.484 12.0392 152.447 11.799 152.48 11.5633C152.514 11.3276 152.615 11.1069 152.773 10.9292C152.931 10.7515 153.137 10.6247 153.366 10.5649C153.595 10.5051 153.836 10.515 154.06 10.5933C154.283 10.6716 154.478 10.8148 154.62 11.0048C154.81 11.2595 154.893 11.5802 154.848 11.8963C154.804 12.2124 154.636 12.498 154.383 12.6903Z" fill="url(#paint7_linear_461_5992)"/>
</g>
<path d="M90.6221 117.671C122.624 117.671 148.566 91.5534 148.566 59.3356C148.566 27.1177 122.624 1 90.6221 1C58.6207 1 32.6785 27.1177 32.6785 59.3356C32.6785 91.5534 58.6207 117.671 90.6221 117.671Z" fill="#F6F2ED"/>
<path d="M90.622 116.844C122.17 116.844 147.744 91.0964 147.744 59.3356C147.744 27.5747 122.17 1.82745 90.622 1.82745C59.0745 1.82745 33.5002 27.5747 33.5002 59.3356C33.5002 91.0964 59.0745 116.844 90.622 116.844Z" stroke="#272421" stroke-width="2"/>
<path d="M144.27 59.9156C144.281 67.0673 142.878 74.1496 140.143 80.75C137.408 87.3504 133.396 93.3369 128.34 98.3608C123.405 103.309 117.547 107.227 111.103 109.888C104.658 112.549 97.755 113.901 90.7897 113.866C80.1866 113.887 69.8158 110.741 60.9896 104.825C52.1635 98.9099 45.2788 90.4914 41.2068 80.6351C37.1349 70.7789 36.0588 59.9281 38.1147 49.4559C40.1705 38.9837 45.266 29.3608 52.7562 21.8052C60.2464 14.2497 69.7946 9.10104 80.1924 7.01084C90.5903 4.92063 101.37 5.98284 111.168 10.0631C120.966 14.1433 129.342 21.0582 135.234 29.9325C141.127 38.8068 144.273 49.2416 144.273 59.9164L144.27 59.9156Z" fill="url(#paint8_linear_461_5992)"/>
<path d="M90.6221 96.9848C111.275 96.9848 128.018 80.1287 128.018 59.3356C128.018 38.5425 111.275 21.6864 90.6221 21.6864C69.9687 21.6864 53.2258 38.5425 53.2258 59.3356C53.2258 80.1287 69.9687 96.9848 90.6221 96.9848Z" fill="#F6F2ED"/>
<path d="M90.622 96.1573C110.821 96.1573 127.196 79.6717 127.196 59.3356C127.196 38.9995 110.821 22.5138 90.622 22.5138C70.4225 22.5138 54.0476 38.9995 54.0476 59.3356C54.0476 79.6717 70.4225 96.1573 90.622 96.1573Z" stroke="#272421" stroke-width="2"/>
<path d="M90.6219 81.235C86.3982 81.235 82.2694 79.9741 78.7576 77.6116C75.2457 75.2492 72.5085 71.8914 70.8922 67.9628C69.2759 64.0343 68.8529 59.7114 69.6769 55.5408C70.5009 51.3703 72.5348 47.5394 75.5214 44.5326C78.508 41.5258 82.3132 39.4782 86.4557 38.6486C90.5982 37.819 94.8921 38.2448 98.7943 39.872C102.696 41.4993 106.032 44.255 108.378 47.7906C110.725 51.3262 111.977 55.483 111.977 59.7352C111.968 65.4344 109.715 70.8973 105.712 74.9272C101.709 78.9571 96.2828 81.2254 90.6219 81.235ZM90.6219 39.5999C86.6663 39.5999 82.7995 40.7809 79.5105 42.9933C76.2215 45.2058 73.6581 48.3505 72.1443 52.0298C70.6306 55.709 70.2345 59.7576 71.0062 63.6634C71.7779 67.5693 73.6827 71.1571 76.4798 73.973C79.2768 76.789 82.8405 78.7067 86.7201 79.4836C90.5998 80.2606 94.6211 79.8618 98.2756 78.3378C101.93 76.8138 105.054 74.233 107.251 70.9218C109.449 67.6106 110.622 63.7176 110.622 59.7352C110.622 57.091 110.105 54.4726 109.1 52.0295C108.095 49.5865 106.622 47.3667 104.765 45.4969C102.907 43.6272 100.702 42.144 98.2759 41.1322C95.8493 40.1204 93.2484 39.5997 90.6219 39.5999Z" fill="#272421"/>
<path d="M90.6225 78.8784C90.1704 78.8784 89.7184 78.8784 89.2253 78.837L89.3074 77.5131C89.965 77.5545 90.6225 77.5545 91.28 77.5545L91.3211 78.8784H90.6225ZM92.7594 78.7957L92.595 77.4717C93.006 77.4304 93.4572 77.3476 93.8681 77.2649L94.1147 78.5888C93.661 78.6716 93.2098 78.7129 92.7578 78.7957H92.7594ZM87.8724 78.7129L86.5171 78.4647L86.8048 77.1408C87.2157 77.2235 87.6267 77.3063 88.0779 77.389L87.8724 78.7129ZM95.47 78.2578L95.1413 76.9761L96.3741 76.6037L96.8261 77.8855C96.3314 78.0096 95.8788 78.1337 95.4684 78.2578H95.47ZM85.1618 78.0923C84.7098 77.9682 84.2996 77.8027 83.8468 77.6372L84.3399 76.3961C84.7508 76.5615 85.1618 76.6857 85.5727 76.8098L85.1618 78.0923ZM98.0573 77.3476L97.5231 76.1064C97.9341 75.941 98.3031 75.7341 98.6738 75.5686L99.2902 76.7676C98.8907 76.986 98.4784 77.18 98.0557 77.3485L98.0573 77.3476ZM82.6156 77.0994L81.3827 76.4788L82.0402 75.3204C82.4111 75.5381 82.7954 75.7316 83.1909 75.8996L82.6156 77.0994ZM100.521 76.1064L99.8236 74.948C100.195 74.7381 100.552 74.5034 100.892 74.2455L101.672 75.3212C101.3 75.6116 100.89 75.8599 100.52 76.1081L100.521 76.1064ZM80.1926 75.7341C79.8228 75.4859 79.4126 75.1962 79.0839 74.9488L79.9058 73.8731C80.2345 74.1214 80.6036 74.3696 80.9323 74.6179L80.1926 75.7341ZM102.739 74.4929L101.877 73.4594C102.205 73.1698 102.534 72.8802 102.821 72.5914L103.725 73.5422C103.427 73.8908 103.096 74.21 102.737 74.4954L102.739 74.4929ZM78.0162 74.0378C77.6875 73.7482 77.3587 73.4172 77.03 73.0871L77.9743 72.1363C78.262 72.4259 78.5907 72.7569 78.9187 73.0465L78.0162 74.0378ZM104.752 72.5484L103.765 71.6382C104.053 71.3072 104.341 70.9762 104.587 70.6452L105.656 71.4727C105.366 71.8492 105.037 72.2215 104.75 72.5525L104.752 72.5484ZM76.0864 72.0519C75.7988 71.6796 75.5111 71.3494 75.2243 70.9762L76.2927 70.191C76.5393 70.522 76.827 70.8935 77.0727 71.2245L76.0864 72.0519ZM106.436 70.3565L105.327 69.6118C105.574 69.2394 105.779 68.867 105.985 68.4955L107.135 69.1575C106.926 69.5726 106.691 69.9744 106.433 70.3606L106.436 70.3565ZM74.4434 69.8186C74.1969 69.4463 73.9914 69.0334 73.7457 68.6196L74.9366 67.999C75.1421 68.3714 75.3475 68.7437 75.5941 69.1153L74.4434 69.8186ZM107.79 67.9577L106.599 67.3785C106.788 66.9895 106.953 66.5891 107.092 66.1795L108.325 66.6759C108.182 67.119 108.002 67.5494 107.789 67.9626L107.79 67.9577ZM73.1703 67.3371C73.006 66.9234 72.8005 66.4691 72.6772 66.0554L73.9503 65.6002C74.0761 66.009 74.2271 66.4094 74.4024 66.7992L73.1703 67.3371ZM108.818 65.3512L107.544 64.9375C107.668 64.5237 107.791 64.11 107.873 63.6963L109.188 63.9859L108.818 65.3512ZM72.2671 64.7306C72.1438 64.2755 72.0616 63.8204 71.9383 63.3661L73.2533 63.1179C73.3355 63.5316 73.4177 63.9453 73.541 64.3591L72.2671 64.7306ZM109.433 62.662L108.118 62.4551C108.2 62.0414 108.241 61.5871 108.283 61.1734L109.598 61.2975C109.555 61.7195 109.473 62.216 109.432 62.6711L109.433 62.662ZM71.7328 62L71.6096 60.6355L72.9246 60.5941C72.9249 61.0244 72.9662 61.4536 73.0479 61.8759L71.7328 62ZM109.639 59.8916H108.324V59.7675C108.33 59.3809 108.317 58.9942 108.283 58.6091L109.598 58.5263C109.639 58.9401 109.639 59.3538 109.639 59.7675V59.8916ZM72.9229 59.2802L71.6079 59.2388C71.6079 58.7837 71.649 58.3286 71.6901 57.8321L73.0051 57.9562C72.9632 58.4121 72.9632 58.8673 72.9229 59.2802ZM108.118 57.2943C108.077 56.8805 107.995 56.4263 107.913 56.0125L109.228 55.7229L109.474 57.0874L108.118 57.2943ZM73.2106 56.715L71.8956 56.4668C71.9778 56.0117 72.06 55.5566 72.1832 55.1023L73.4564 55.4333C73.3742 55.8487 73.2517 56.3038 73.2098 56.7167L73.2106 56.715ZM107.585 54.7722C107.461 54.3584 107.338 53.9447 107.174 53.531L108.407 53.0759C108.571 53.4896 108.694 53.9439 108.859 54.3998L107.585 54.7722ZM73.827 54.193L72.5539 53.7792C72.682 53.3251 72.8469 52.8823 73.047 52.4553L74.2799 52.9518C74.113 53.368 73.9487 53.7817 73.827 54.1946V54.193ZM106.723 52.332C106.558 51.9597 106.353 51.5468 106.147 51.1736L107.298 50.5116L107.914 51.7528L106.723 52.332ZM74.8133 51.7966L73.6224 51.1761C73.8278 50.7623 74.0333 50.3486 74.2799 49.9349L75.4305 50.6374C75.2015 51.0108 74.9954 51.3979 74.8133 51.7966ZM105.491 50.1012C105.245 49.7288 104.998 49.3987 104.752 49.0255L105.82 48.198C106.104 48.5677 106.364 48.9546 106.6 49.3565L105.491 50.1012ZM76.1283 49.6055L75.0196 48.8203C75.2662 48.4479 75.5538 48.0756 75.8415 47.7041L76.868 48.5315C76.6215 48.9022 76.3305 49.2332 76.1283 49.6055ZM103.931 48.0334C103.644 47.7024 103.356 47.4128 103.069 47.0826L104.014 46.1319C104.342 46.4629 104.671 46.7939 104.958 47.1248L103.931 48.0334ZM77.7302 47.5783L76.7439 46.6681L77.7302 45.6751L78.6343 46.6681C78.3023 46.9593 78.0146 47.2903 77.7269 47.5799L77.7302 47.5783ZM102.084 46.2138C101.755 45.9242 101.426 45.676 101.098 45.4286L101.878 44.3529C102.247 44.6425 102.617 44.9321 102.946 45.2209L102.084 46.2138ZM79.6165 45.8464L78.7946 44.8129C79.1644 44.5233 79.5343 44.2337 79.9033 43.9855L80.643 45.1017C80.2753 45.3122 79.9312 45.5619 79.6165 45.8464ZM100.027 44.688C99.6576 44.4397 99.2877 44.2329 98.9187 44.026L99.5351 42.827C99.9459 43.0366 100.344 43.2712 100.726 43.5295L100.027 44.688ZM81.7107 44.357L81.0531 43.1986C81.4641 42.9503 81.875 42.7435 82.286 42.5366L82.8613 43.7356C82.4495 43.9433 82.0805 44.1477 81.7107 44.357ZM97.768 43.4468C97.3982 43.2813 96.9881 43.1158 96.5771 42.9503L97.0292 41.6686C97.4636 41.8228 97.8887 42.0024 98.3023 42.2064L97.768 43.4468ZM84.0103 43.2399L83.5172 41.9988C83.9467 41.8223 84.3857 41.6703 84.8322 41.5437L85.2432 42.8254C84.8207 42.9255 84.4081 43.0637 84.0103 43.2383V43.2399ZM95.3451 42.578C94.9341 42.4539 94.5232 42.3711 94.1122 42.2884L94.3588 40.9644C94.8109 41.0472 95.2629 41.1713 95.7141 41.2954L95.3451 42.578ZM86.4744 42.4539L86.1456 41.1299C86.5977 41.0058 87.0497 40.9231 87.5009 40.8403L87.7064 42.1642C87.2954 42.2462 86.8853 42.3289 86.4744 42.4539ZM92.84 42.0815C92.429 42.0401 91.9778 41.9988 91.5668 41.9574L91.649 40.6335L93.0043 40.7576L92.84 42.0815ZM88.977 42.0401L88.8538 40.7162C89.3058 40.6748 89.7578 40.6335 90.251 40.6335L90.2921 41.9574C89.8417 41.9574 89.4315 41.9979 88.9795 42.0401H88.977Z" fill="#272421"/>
<path d="M90.6079 68.1513C95.1657 68.1513 98.8605 64.4315 98.8605 59.8428C98.8605 55.2542 95.1657 51.5343 90.6079 51.5343C86.0501 51.5343 82.3552 55.2542 82.3552 59.8428C82.3552 64.4315 86.0501 68.1513 90.6079 68.1513Z" fill="url(#paint9_linear_461_5992)"/>
<path d="M94.1932 56.1143L88.8509 61.4166L86.3975 58.8101L85.1096 60.0389L88.1843 63.3065C88.2655 63.3927 88.3629 63.4618 88.4708 63.5097C88.5788 63.5576 88.6951 63.5833 88.8131 63.5854H88.8279C89.0608 63.5852 89.2843 63.4927 89.4501 63.328L95.44 57.3861L94.1932 56.1143Z" fill="#F6F2ED"/>
<defs>
<linearGradient id="paint0_linear_461_5992" x1="37.4651" y1="62.2066" x2="37.4651" y2="122.038" gradientUnits="userSpaceOnUse">
<stop stop-color="#58A4A4"/>
<stop offset="1" stop-color="#073E39"/>
</linearGradient>
<linearGradient id="paint1_linear_461_5992" x1="48.8171" y1="126.399" x2="45.5841" y2="130.364" gradientUnits="userSpaceOnUse">
<stop stop-color="#58A4A4"/>
<stop offset="1" stop-color="#073E39"/>
</linearGradient>
<linearGradient id="paint2_linear_461_5992" x1="56.9429" y1="122.252" x2="54.7371" y2="124.958" gradientUnits="userSpaceOnUse">
<stop stop-color="#58A4A4"/>
<stop offset="1" stop-color="#073E39"/>
</linearGradient>
<linearGradient id="paint3_linear_461_5992" x1="3.22841" y1="77.3093" x2="3.22841" y2="83.8098" gradientUnits="userSpaceOnUse">
<stop stop-color="#58A4A4"/>
<stop offset="1" stop-color="#073E39"/>
</linearGradient>
<linearGradient id="paint4_linear_461_5992" x1="139.489" y1="13.9886" x2="152.832" y2="31.574" gradientUnits="userSpaceOnUse">
<stop stop-color="#58A4A4"/>
<stop offset="1" stop-color="#073E39"/>
</linearGradient>
<linearGradient id="paint5_linear_461_5992" x1="150.562" y1="34.5849" x2="151.949" y2="36.8733" gradientUnits="userSpaceOnUse">
<stop stop-color="#00836A"/>
<stop offset="1" stop-color="#073E39"/>
</linearGradient>
<linearGradient id="paint6_linear_461_5992" x1="147.166" y1="35.474" x2="148.113" y2="37.0375" gradientUnits="userSpaceOnUse">
<stop stop-color="#00836A"/>
<stop offset="1" stop-color="#073E39"/>
</linearGradient>
<linearGradient id="paint7_linear_461_5992" x1="152.946" y1="10.7693" x2="154.396" y2="12.6806" gradientUnits="userSpaceOnUse">
<stop stop-color="#58A4A4"/>
<stop offset="1" stop-color="#073E39"/>
</linearGradient>
<linearGradient id="paint8_linear_461_5992" x1="90.6853" y1="5.96646" x2="90.6853" y2="113.867" gradientUnits="userSpaceOnUse">
<stop stop-color="#58A4A4"/>
<stop offset="1" stop-color="#073E39"/>
</linearGradient>
<linearGradient id="paint9_linear_461_5992" x1="90.6079" y1="51.5343" x2="90.6079" y2="68.1513" gradientUnits="userSpaceOnUse">
<stop stop-color="#58A4A4"/>
<stop offset="1" stop-color="#073E39"/>
</linearGradient>
</defs>
</svg>
