<svg width="166" height="132" viewBox="0 0 166 132" fill="none" xmlns="http://www.w3.org/2000/svg">
<g opacity="0.272">
<path d="M37.4651 122.038C53.8761 122.038 67.1799 108.644 67.1799 92.1223C67.1799 75.6003 53.8761 62.2065 37.4651 62.2065C21.054 62.2065 7.75024 75.6003 7.75024 92.1223C7.75024 108.644 21.054 122.038 37.4651 122.038Z" fill="url(#paint0_linear_1436_3879)"/>
<path d="M45.61 130.386C46.0018 130.705 46.4789 130.9 46.9809 130.947C47.4829 130.993 47.9873 130.888 48.4303 130.646C48.8732 130.403 49.2347 130.034 49.4691 129.585C49.7035 129.136 49.8003 128.626 49.7471 128.122C49.6939 127.617 49.4932 127.139 49.1704 126.75C48.8475 126.36 48.4171 126.075 47.9335 125.932C47.4499 125.788 46.935 125.792 46.4538 125.944C45.9726 126.095 45.5468 126.387 45.2303 126.782C44.8066 127.311 44.6086 127.987 44.6798 128.663C44.751 129.338 45.0855 129.958 45.61 130.386Z" fill="url(#paint1_linear_1436_3879)"/>
<path d="M54.7549 124.972C55.0221 125.19 55.3475 125.323 55.6898 125.355C56.0322 125.386 56.3762 125.315 56.6783 125.15C56.9805 124.985 57.2272 124.733 57.3873 124.427C57.5473 124.121 57.6136 123.773 57.5777 123.429C57.5417 123.085 57.4052 122.759 57.1854 122.493C56.9655 122.227 56.6722 122.032 56.3426 121.934C56.0129 121.836 55.6617 121.838 55.3334 121.941C55.0051 122.043 54.7143 122.242 54.498 122.511C54.2078 122.871 54.0719 123.333 54.1201 123.795C54.1683 124.257 54.3966 124.68 54.7549 124.972Z" fill="url(#paint2_linear_1436_3879)"/>
<path d="M3.22841 83.8098C3.86693 83.8098 4.49111 83.6192 5.02201 83.262C5.55292 82.9049 5.96672 82.3973 6.21107 81.8034C6.45542 81.2095 6.51935 80.556 6.39478 79.9255C6.27021 79.295 5.96274 78.7159 5.51124 78.2613C5.05974 77.8067 4.48449 77.4972 3.85824 77.3718C3.23199 77.2464 2.58286 77.3107 1.99295 77.5567C1.40303 77.8027 0.898827 78.2193 0.544085 78.7538C0.189343 79.2883 0 79.9167 0 80.5596C0 81.4216 0.340134 82.2483 0.945578 82.8578C1.55102 83.4674 2.37218 83.8098 3.22841 83.8098Z" fill="url(#paint3_linear_1436_3879)"/>
</g>
<g opacity="0.272">
<path d="M152.714 31.6636C157.569 27.9793 158.545 21.0359 154.894 16.155C151.242 11.2741 144.345 10.3041 139.489 13.9884C134.633 17.6727 133.657 24.6162 137.309 29.497C140.961 34.3779 147.858 35.3479 152.714 31.6636Z" fill="url(#paint4_linear_1436_3879)"/>
<path d="M152.159 35.963C152.114 36.1451 152.016 36.3097 151.878 36.436C151.74 36.5623 151.569 36.6446 151.384 36.6725C151.2 36.7004 151.012 36.6726 150.844 36.5927C150.675 36.5128 150.534 36.3843 150.439 36.2236C150.343 36.0628 150.297 35.8769 150.306 35.6895C150.315 35.5021 150.379 35.3215 150.49 35.1705C150.601 35.0196 150.754 34.9051 150.929 34.8415C151.104 34.778 151.294 34.7682 151.475 34.8135C151.717 34.8741 151.925 35.0293 152.054 35.2449C152.182 35.4605 152.22 35.7188 152.159 35.963Z" fill="url(#paint5_linear_1436_3879)"/>
<path d="M148.257 36.4157C148.226 36.5402 148.159 36.6526 148.065 36.7389C147.971 36.8252 147.853 36.8814 147.728 36.9005C147.602 36.9195 147.473 36.9006 147.358 36.846C147.243 36.7914 147.147 36.7036 147.082 36.5938C147.016 36.4839 146.985 36.3569 146.991 36.2289C146.997 36.1008 147.041 35.9774 147.117 35.8743C147.192 35.7711 147.297 35.6929 147.416 35.6495C147.536 35.6061 147.666 35.5994 147.789 35.6303C147.955 35.6718 148.097 35.7778 148.185 35.9251C148.273 36.0724 148.299 36.2489 148.257 36.4157Z" fill="url(#paint6_linear_1436_3879)"/>
<path d="M154.383 12.6901C154.194 12.8335 153.967 12.9174 153.731 12.9311C153.495 12.9448 153.26 12.8877 153.056 12.7671C152.853 12.6464 152.689 12.4676 152.587 12.2533C152.484 12.039 152.447 11.7988 152.48 11.5631C152.513 11.3274 152.615 11.1067 152.773 10.929C152.93 10.7513 153.137 10.6245 153.366 10.5647C153.595 10.505 153.836 10.5148 154.059 10.5931C154.283 10.6714 154.478 10.8146 154.62 11.0046C154.81 11.2593 154.892 11.58 154.848 11.8961C154.804 12.2122 154.636 12.4978 154.383 12.6901Z" fill="url(#paint7_linear_1436_3879)"/>
</g>
<path d="M90.622 117.671C122.623 117.671 148.566 91.5534 148.566 59.3356C148.566 27.1177 122.623 1 90.622 1C58.6206 1 32.6783 27.1177 32.6783 59.3356C32.6783 91.5534 58.6206 117.671 90.622 117.671Z" fill="#F7F2EC"/>
<path d="M90.622 116.844C122.17 116.844 147.744 91.0964 147.744 59.3355C147.744 27.5747 122.17 1.82739 90.622 1.82739C59.0745 1.82739 33.5002 27.5747 33.5002 59.3355C33.5002 91.0964 59.0745 116.844 90.622 116.844Z" stroke="#002C27" stroke-width="2"/>
<path d="M144.27 59.9157C144.281 67.0674 142.878 74.1497 140.143 80.7501C137.408 87.3505 133.396 93.337 128.34 98.3609C123.405 103.309 117.547 107.227 111.103 109.888C104.658 112.549 97.755 113.901 90.7897 113.867C80.1866 113.887 69.8158 110.741 60.9896 104.825C52.1635 98.91 45.2788 90.4915 41.2068 80.6352C37.1349 70.779 36.0588 59.9282 38.1147 49.456C40.1705 38.9838 45.266 29.3609 52.7562 21.8053C60.2464 14.2498 69.7946 9.10114 80.1924 7.01093C90.5903 4.92073 101.37 5.98294 111.168 10.0632C120.966 14.1434 129.342 21.0583 135.234 29.9326C141.127 38.8069 144.273 49.2418 144.273 59.9165L144.27 59.9157Z" fill="url(#paint8_linear_1436_3879)"/>
<path d="M90.6221 96.9847C111.275 96.9847 128.018 80.1286 128.018 59.3355C128.018 38.5424 111.275 21.6863 90.6221 21.6863C69.9687 21.6863 53.2258 38.5424 53.2258 59.3355C53.2258 80.1286 69.9687 96.9847 90.6221 96.9847Z" fill="#F7F2EC"/>
<path d="M90.6221 96.1572C110.822 96.1572 127.196 79.6715 127.196 59.3354C127.196 38.9993 110.822 22.5137 90.6221 22.5137C70.4226 22.5137 54.0477 38.9993 54.0477 59.3354C54.0477 79.6715 70.4226 96.1572 90.6221 96.1572Z" stroke="#002C27" stroke-width="2"/>
<path d="M90.6218 81.2349C86.3981 81.2349 82.2693 79.9739 78.7574 77.6115C75.2456 75.2491 72.5084 71.8913 70.8921 67.9627C69.2757 64.0342 68.8528 59.7113 69.6768 55.5407C70.5008 51.3702 72.5347 47.5393 75.5213 44.5325C78.5079 41.5257 82.3131 39.478 86.4556 38.6485C90.5981 37.8189 94.892 38.2447 98.7941 39.8719C102.696 41.4992 106.032 44.2549 108.378 47.7905C110.725 51.3261 111.977 55.4829 111.977 59.7351C111.968 65.4343 109.715 70.8972 105.712 74.9271C101.709 78.957 96.2827 81.2253 90.6218 81.2349ZM90.6218 39.5998C86.6662 39.5998 82.7994 40.7807 79.5104 42.9932C76.2214 45.2057 73.658 48.3504 72.1442 52.0297C70.6305 55.7089 70.2344 59.7575 71.0061 63.6633C71.7778 67.5692 73.6826 71.157 76.4797 73.9729C79.2767 76.7889 82.8404 78.7066 86.72 79.4835C90.5996 80.2604 94.621 79.8617 98.2755 78.3377C101.93 76.8137 105.054 74.2329 107.251 70.9217C109.449 67.6105 110.622 63.7175 110.622 59.7351C110.622 57.0909 110.105 54.4724 109.1 52.0294C108.095 49.5864 106.622 47.3666 104.764 45.4968C102.907 43.6271 100.702 42.1439 98.2757 41.1321C95.8491 40.1203 93.2483 39.5996 90.6218 39.5998Z" fill="#002C27"/>
<path d="M90.6224 78.8783C90.1703 78.8783 89.7183 78.8783 89.2251 78.8369L89.3073 77.513C89.9648 77.5543 90.6224 77.5543 91.2799 77.5543L91.321 78.8783H90.6224ZM92.7593 78.7955L92.5949 77.4716C93.0059 77.4302 93.4571 77.3475 93.868 77.2647L94.1146 78.5887C93.6609 78.6714 93.2097 78.7128 92.7576 78.7955H92.7593ZM87.8723 78.7128L86.517 78.4645L86.8046 77.1406C87.2156 77.2234 87.6265 77.3061 88.0778 77.3888L87.8723 78.7128ZM95.4699 78.2577L95.1411 76.9759L96.374 76.6036L96.826 77.8853C96.3312 78.0094 95.8787 78.1336 95.4683 78.2577H95.4699ZM85.1617 78.0922C84.7096 77.9681 84.2995 77.8026 83.8466 77.6371L84.3398 76.3959C84.7507 76.5614 85.1617 76.6855 85.5726 76.8096L85.1617 78.0922ZM98.0572 77.3475L97.523 76.1063C97.9339 75.9408 98.303 75.7339 98.6736 75.5684L99.2901 76.7674C98.8906 76.9859 98.4783 77.1799 98.0556 77.3483L98.0572 77.3475ZM82.6154 77.0992L81.3826 76.4786L82.0401 75.3202C82.4109 75.5379 82.7953 75.7314 83.1908 75.8994L82.6154 77.0992ZM100.521 76.1063L99.8235 74.9479C100.195 74.7379 100.552 74.5032 100.892 74.2453L101.672 75.321C101.3 75.6115 100.889 75.8597 100.52 76.1079L100.521 76.1063ZM80.1925 75.7339C79.8226 75.4857 79.4125 75.1961 79.0838 74.9487L79.9057 73.873C80.2344 74.1212 80.6034 74.3695 80.9322 74.6177L80.1925 75.7339ZM102.739 74.4928L101.877 73.4593C102.205 73.1697 102.534 72.88 102.821 72.5913L103.725 73.542C103.427 73.8906 103.096 74.2098 102.737 74.4952L102.739 74.4928ZM78.0161 74.0377C77.6874 73.7481 77.3586 73.4171 77.0298 73.0869L77.9742 72.1362C78.2619 72.4258 78.5906 72.7568 78.9186 73.0464L78.0161 74.0377ZM104.752 72.5482L103.765 71.638C104.053 71.3071 104.341 70.9761 104.587 70.6451L105.656 71.4725C105.366 71.849 105.037 72.2214 104.75 72.5524L104.752 72.5482ZM76.0863 72.0518C75.7986 71.6794 75.511 71.3493 75.2241 70.9761L76.2926 70.1908C76.5392 70.5218 76.8268 70.8933 77.0726 71.2243L76.0863 72.0518ZM106.436 70.3563L105.327 69.6116C105.573 69.2392 105.779 68.8669 105.984 68.4954L107.135 69.1573C106.926 69.5724 106.691 69.9742 106.433 70.3604L106.436 70.3563ZM74.4433 69.8185C74.1968 69.4461 73.9913 69.0332 73.7455 68.6195L74.9365 67.9989C75.1419 68.3712 75.3474 68.7436 75.594 69.1151L74.4433 69.8185ZM107.79 67.9575L106.599 67.3783C106.788 66.9894 106.953 66.5889 107.092 66.1793L108.325 66.6758C108.182 67.1188 108.002 67.5492 107.788 67.9625L107.79 67.9575ZM73.1702 67.3369C73.0058 66.9232 72.8004 66.4689 72.6771 66.0552L73.9502 65.6001C74.076 66.0088 74.2269 66.4093 74.4022 66.7991L73.1702 67.3369ZM108.817 65.351L107.544 64.9373C107.668 64.5236 107.791 64.1099 107.873 63.6961L109.188 63.9857L108.817 65.351ZM72.267 64.7304C72.1437 64.2753 72.0615 63.8202 71.9382 63.366L73.2532 63.1177C73.3354 63.5315 73.4176 63.9452 73.5409 64.3589L72.267 64.7304ZM109.433 62.6618L108.118 62.4549C108.2 62.0412 108.241 61.5869 108.282 61.1732L109.597 61.2973C109.555 61.7193 109.473 62.2158 109.431 62.6709L109.433 62.6618ZM71.7327 61.9998L71.6094 60.6354L72.9245 60.594C72.9248 61.0242 72.9661 61.4534 73.0477 61.8757L71.7327 61.9998ZM109.639 59.8915H108.324V59.7674C108.33 59.3808 108.317 58.9941 108.282 58.6089L109.597 58.5262C109.639 58.9399 109.639 59.3536 109.639 59.7674V59.8915ZM72.9228 59.28L71.6078 59.2386C71.6078 58.7835 71.6489 58.3284 71.69 57.832L73.005 57.9561C72.9631 58.412 72.9631 58.8671 72.9228 59.28ZM108.118 57.2941C108.077 56.8804 107.995 56.4261 107.913 56.0124L109.228 55.7228L109.474 57.0872L108.118 57.2941ZM73.2105 56.7149L71.8955 56.4667C71.9776 56.0116 72.0598 55.5565 72.1831 55.1022L73.4562 55.4332C73.374 55.8485 73.2516 56.3036 73.2097 56.7165L73.2105 56.7149ZM107.585 54.772C107.461 54.3583 107.338 53.9446 107.174 53.5308L108.407 53.0757C108.571 53.4895 108.694 53.9437 108.859 54.3997L107.585 54.772ZM73.8269 54.1928L72.5538 53.7791C72.6818 53.3249 72.8468 52.8821 73.0469 52.4552L74.2798 52.9516C74.1129 53.3678 73.9485 53.7816 73.8269 54.1945V54.1928ZM106.722 52.3319C106.558 51.9595 106.353 51.5466 106.147 51.1734L107.298 50.5115L107.914 51.7526L106.722 52.3319ZM74.8132 51.7965L73.6223 51.1759C73.8277 50.7622 74.0332 50.3484 74.2798 49.9347L75.4304 50.6372C75.2014 51.0106 74.9953 51.3978 74.8132 51.7965ZM105.491 50.101C105.245 49.7287 104.998 49.3985 104.752 49.0253L105.82 48.1979C106.103 48.5675 106.364 48.9544 106.6 49.3563L105.491 50.101ZM76.1282 49.6054L75.0195 48.8201C75.266 48.4478 75.5537 48.0754 75.8414 47.7039L76.8679 48.5314C76.6214 48.9021 76.3304 49.233 76.1282 49.6054ZM103.931 48.0332C103.644 47.7022 103.356 47.4126 103.069 47.0825L104.014 46.1317C104.342 46.4627 104.671 46.7937 104.958 47.1247L103.931 48.0332ZM77.7301 47.5781L76.7438 46.6679L77.7301 45.675L78.6342 46.6679C78.3021 46.9592 78.0145 47.2902 77.7268 47.5798L77.7301 47.5781ZM102.084 46.2137C101.755 45.9241 101.426 45.6758 101.097 45.4284L101.877 44.3527C102.247 44.6423 102.617 44.9319 102.946 45.2207L102.084 46.2137ZM79.6163 45.8463L78.7945 44.8128C79.1643 44.5232 79.5342 44.2336 79.9032 43.9853L80.6429 45.1016C80.2752 45.312 79.931 45.5617 79.6163 45.8463ZM100.027 44.6878C99.6575 44.4396 99.2876 44.2327 98.9186 44.0259L99.535 42.8269C99.9458 43.0364 100.344 43.271 100.726 43.5294L100.027 44.6878ZM81.7105 44.3568L81.053 43.1984C81.464 42.9502 81.8749 42.7433 82.2859 42.5364L82.8612 43.7354C82.4494 43.9431 82.0804 44.1475 81.7105 44.3568ZM97.7679 43.4466C97.3981 43.2812 96.9879 43.1157 96.577 42.9502L97.029 41.6684C97.4634 41.8226 97.8885 42.0022 98.3021 42.2063L97.7679 43.4466ZM84.0102 43.2398L83.5171 41.9986C83.9466 41.8221 84.3856 41.6702 84.8321 41.5435L85.243 42.8252C84.8206 42.9253 84.408 43.0635 84.0102 43.2381V43.2398ZM95.345 42.5778C94.934 42.4537 94.5231 42.371 94.1121 42.2882L94.3587 40.9643C94.8107 41.047 95.2628 41.1711 95.714 41.2953L95.345 42.5778ZM86.4742 42.4537L86.1455 41.1298C86.5975 41.0057 87.0496 40.9229 87.5008 40.8402L87.7063 42.1641C87.2953 42.246 86.8852 42.3288 86.4742 42.4537ZM92.8398 42.0813C92.4289 42.04 91.9777 41.9986 91.5667 41.9572L91.6489 40.6333L93.0042 40.7574L92.8398 42.0813ZM88.9769 42.04L88.8536 40.716C89.3057 40.6747 89.7577 40.6333 90.2509 40.6333L90.292 41.9572C89.8416 41.9572 89.4314 41.9978 88.9794 42.04H88.9769Z" fill="#002C27"/>
<path d="M90.6076 68.1511C95.1655 68.1511 98.8603 64.4313 98.8603 59.8427C98.8603 55.254 95.1655 51.5342 90.6076 51.5342C86.0498 51.5342 82.355 55.254 82.355 59.8427C82.355 64.4313 86.0498 68.1511 90.6076 68.1511Z" fill="url(#paint9_linear_1436_3879)"/>
<path d="M94.1932 56.1143L88.8509 61.4166L86.3975 58.8101L85.1096 60.0389L88.1843 63.3065C88.2655 63.3927 88.3629 63.4618 88.4708 63.5096C88.5788 63.5575 88.6951 63.5833 88.8131 63.5853H88.8279C89.0608 63.5851 89.2843 63.4927 89.4501 63.328L95.44 57.3861L94.1932 56.1143Z" fill="#F7F2EC"/>
<defs>
<linearGradient id="paint0_linear_1436_3879" x1="37.4651" y1="62.2065" x2="37.4651" y2="122.038" gradientUnits="userSpaceOnUse">
<stop stop-color="#00836A"/>
<stop offset="1" stop-color="#073E39"/>
</linearGradient>
<linearGradient id="paint1_linear_1436_3879" x1="48.8169" y1="126.399" x2="45.5839" y2="130.364" gradientUnits="userSpaceOnUse">
<stop stop-color="#00836A"/>
<stop offset="1" stop-color="#073E39"/>
</linearGradient>
<linearGradient id="paint2_linear_1436_3879" x1="56.9428" y1="122.252" x2="54.7371" y2="124.958" gradientUnits="userSpaceOnUse">
<stop stop-color="#00836A"/>
<stop offset="1" stop-color="#073E39"/>
</linearGradient>
<linearGradient id="paint3_linear_1436_3879" x1="3.22841" y1="77.3093" x2="3.22841" y2="83.8098" gradientUnits="userSpaceOnUse">
<stop stop-color="#00836A"/>
<stop offset="1" stop-color="#073E39"/>
</linearGradient>
<linearGradient id="paint4_linear_1436_3879" x1="139.489" y1="13.9884" x2="152.832" y2="31.5738" gradientUnits="userSpaceOnUse">
<stop stop-color="#00836A"/>
<stop offset="1" stop-color="#073E39"/>
</linearGradient>
<linearGradient id="paint5_linear_1436_3879" x1="150.562" y1="34.5847" x2="151.948" y2="36.8731" gradientUnits="userSpaceOnUse">
<stop stop-color="#00836A"/>
<stop offset="1" stop-color="#073E39"/>
</linearGradient>
<linearGradient id="paint6_linear_1436_3879" x1="147.165" y1="35.474" x2="148.113" y2="37.0375" gradientUnits="userSpaceOnUse">
<stop stop-color="#00836A"/>
<stop offset="1" stop-color="#073E39"/>
</linearGradient>
<linearGradient id="paint7_linear_1436_3879" x1="152.945" y1="10.7691" x2="154.396" y2="12.6804" gradientUnits="userSpaceOnUse">
<stop stop-color="#00836A"/>
<stop offset="1" stop-color="#073E39"/>
</linearGradient>
<linearGradient id="paint8_linear_1436_3879" x1="90.6853" y1="5.96655" x2="90.6853" y2="113.867" gradientUnits="userSpaceOnUse">
<stop stop-color="#00836A"/>
<stop offset="1" stop-color="#073E39"/>
</linearGradient>
<linearGradient id="paint9_linear_1436_3879" x1="90.6076" y1="51.5342" x2="90.6076" y2="68.1511" gradientUnits="userSpaceOnUse">
<stop stop-color="#00836A"/>
<stop offset="1" stop-color="#073E39"/>
</linearGradient>
</defs>
</svg>
