<svg width="19" height="22" viewBox="0 0 19 22" fill="none" xmlns="http://www.w3.org/2000/svg">
<g clip-path="url(#clip0_461_6134)">
<path d="M1.53129 9.02474C1.53129 6.65323 1.55237 4.27607 1.52019 1.90229C1.50799 1.04064 2.13544 -0.000564417 3.38813 2.29556e-07C4.14928 2.29556e-07 4.91099 0.0135512 5.67214 0.0135512C8.96715 0.0135512 12.2623 0.0135512 15.5577 0.0135512C16.2173 0.0135512 16.7632 0.228682 17.1555 0.783165C17.3665 1.07464 17.4803 1.42728 17.48 1.78937C17.48 6.62161 17.48 11.4542 17.48 16.2872C17.4747 16.7319 17.3065 17.1585 17.0085 17.4836C16.7104 17.8087 16.3038 18.0089 15.8684 18.045C15.7369 18.0546 15.6054 18.0585 15.4739 18.0585C12.186 18.0585 8.8978 18.0585 5.60945 18.0585C4.86883 18.0585 4.1282 18.0743 3.39034 18.071C2.52434 18.0664 1.84419 17.5695 1.60619 16.7723C1.56101 16.618 1.53802 16.4578 1.53794 16.2968C1.53092 13.8726 1.5287 11.4486 1.53129 9.02474ZM3.32765 1.84978V16.2138H4.61308V1.84978H3.32765ZM9.5001 12.6345C9.44962 12.6458 9.41689 12.6537 9.38305 12.6599C8.90205 12.7429 8.60636 13.1117 8.62966 13.6108C8.64263 13.8314 8.73637 14.039 8.89238 14.1927C9.04839 14.3463 9.25534 14.4349 9.47236 14.4408C10.0882 14.4572 10.7045 14.4589 11.3203 14.4408C11.5411 14.4323 11.7505 14.3393 11.9067 14.1804C12.063 14.0215 12.1545 13.8084 12.163 13.5837C12.1858 13.1664 11.8807 12.7446 11.4746 12.6803C11.2981 12.6515 11.271 12.5792 11.2715 12.4211C11.2771 11.0547 11.2748 9.68821 11.2715 8.3212C11.2728 8.21574 11.2674 8.11031 11.2554 8.00556C11.2072 7.61426 10.907 7.28846 10.522 7.26135C10.1426 7.23482 9.76188 7.23482 9.38249 7.26135C8.97362 7.28902 8.6513 7.65265 8.628 8.0575C8.60192 8.50922 8.85712 8.8881 9.26543 9.00103C9.3431 9.02249 9.42133 9.03887 9.49789 9.0575L9.5001 12.6345ZM10.3933 6.54539C10.5386 6.54598 10.6826 6.51727 10.8169 6.46092C10.9513 6.40456 11.0733 6.32167 11.176 6.21704C11.2787 6.11241 11.3601 5.98811 11.4153 5.85131C11.4705 5.71451 11.4986 5.56794 11.4979 5.42004C11.4926 5.12226 11.373 4.83842 11.1645 4.62942C10.956 4.42041 10.6754 4.30288 10.3828 4.30204C10.093 4.3062 9.81657 4.42622 9.6131 4.63616C9.40963 4.8461 9.29551 5.1291 9.29539 5.42399C9.29309 5.57175 9.31986 5.71849 9.37413 5.85556C9.42839 5.99263 9.50905 6.11727 9.61136 6.22213C9.71366 6.327 9.83555 6.40997 9.96984 6.46616C10.1041 6.52236 10.2481 6.55063 10.3933 6.54934V6.54539Z" fill="#F6F2ED"/>
</g>
<defs>
<clipPath id="clip0_461_6134">
<rect width="19" height="22" fill="white"/>
</clipPath>
</defs>
</svg>
