<svg width="750" height="247" viewBox="0 0 750 247" fill="none" xmlns="http://www.w3.org/2000/svg">
<path fill-rule="evenodd" clip-rule="evenodd" d="M194.957 123.5C194.957 197.6 97.4785 247 97.4785 247C97.4785 247 0 197.6 0 123.5V37.05L97.4785 0L194.957 37.05V123.5ZM95.5154 116.229L54.5334 86.9095C54.0266 86.5469 53.7252 85.9573 53.7252 85.3285L53.7252 70.7648C53.7252 69.1817 55.4985 68.2684 56.7601 69.2018L96.5725 98.6584C97.242 99.1537 98.1503 99.1546 98.8207 98.6607L138.728 69.2624C139.99 68.3326 141.759 69.2464 141.759 70.8277V84.9952C141.759 85.621 141.461 86.2081 140.958 86.5713L99.8851 116.229L98.7121 116.972C98.093 117.364 97.3074 117.364 96.6883 116.972L95.5154 116.229ZM55.6357 149.751C54.5826 149.753 53.7298 150.619 53.7298 151.686V163.289C53.7298 164.358 54.5846 165.224 55.6391 165.224L139.762 165.225C140.817 165.225 141.671 164.358 141.671 163.29V151.616C141.671 150.547 140.816 149.68 139.762 149.68L106.736 149.682C104.898 149.682 104.122 147.308 105.595 146.195L140.985 119.47C141.468 119.105 141.753 118.53 141.753 117.919V103.725C141.753 102.144 139.984 101.23 138.722 102.16L98.8147 131.558C98.1443 132.052 97.236 132.051 96.5665 131.556L56.7541 102.099C55.4925 101.166 53.7191 102.079 53.7191 103.662V118.252C53.7191 118.866 54.0069 119.444 54.4945 119.809L89.7694 146.2C91.2502 147.308 90.4794 149.689 88.6389 149.692L55.6357 149.751Z" fill="#F6F2ED"/>
<path d="M266.372 51.5886V17.1962H278.971C281.412 17.1962 283.434 17.5992 285.035 18.4053C286.637 19.2002 287.835 20.2805 288.63 21.6464C289.426 23.001 289.823 24.5292 289.823 26.2309C289.823 27.6639 289.56 28.8731 289.034 29.8582C288.507 30.8323 287.802 31.6159 286.917 32.2093C286.043 32.7915 285.08 33.2169 284.028 33.4856V33.8214C285.17 33.8774 286.284 34.2469 287.371 34.9298C288.468 35.6015 289.375 36.5587 290.092 37.8014C290.809 39.0441 291.167 40.5555 291.167 42.3356C291.167 44.0933 290.753 45.6718 289.924 47.0712C289.106 48.4595 287.841 49.5622 286.127 50.3795C284.414 51.1856 282.224 51.5886 279.559 51.5886H266.372ZM271.563 47.1384H279.055C281.541 47.1384 283.322 46.657 284.397 45.6942C285.472 44.7314 286.01 43.5279 286.01 42.0837C286.01 40.9977 285.735 40.0013 285.187 39.0945C284.638 38.1877 283.854 37.4656 282.835 36.9282C281.827 36.3908 280.629 36.1221 279.24 36.1221H271.563V47.1384ZM271.563 32.0749H278.517C279.682 32.0749 280.729 31.851 281.659 31.4032C282.6 30.9554 283.344 30.3285 283.893 29.5224C284.453 28.7051 284.733 27.7423 284.733 26.634C284.733 25.2121 284.235 24.0198 283.238 23.057C282.241 22.0942 280.713 21.6128 278.652 21.6128H271.563V32.0749Z" fill="#F6F2ED"/>
<path d="M325.547 17.1962V51.5886H320.356V17.1962H325.547Z" fill="#F6F2ED"/>
<path d="M354.74 21.6632V17.1962H381.367V21.6632H370.632V51.5886H365.458V21.6632H354.74Z" fill="#F6F2ED"/>
<path d="M439.451 28.5405H434.349C434.153 27.4507 433.788 26.4917 433.254 25.6635C432.72 24.8353 432.066 24.1324 431.292 23.5549C430.518 22.9773 429.651 22.5414 428.692 22.2472C427.743 21.9529 426.735 21.8058 425.667 21.8058C423.737 21.8058 422.009 22.2908 420.483 23.2606C418.968 24.2305 417.769 25.6526 416.886 27.527C416.014 29.4014 415.578 31.6898 415.578 34.3924C415.578 37.1168 416.014 39.4161 416.886 41.2905C417.769 43.1649 418.973 44.5815 420.499 45.5405C422.026 46.4995 423.743 46.979 425.65 46.979C426.708 46.979 427.711 46.8373 428.659 46.554C429.618 46.2597 430.485 45.8293 431.259 45.2626C432.033 44.696 432.687 44.004 433.221 43.1867C433.766 42.3585 434.142 41.4104 434.349 40.3424L439.451 40.3588C439.179 42.0043 438.65 43.519 437.865 44.903C437.091 46.2761 436.094 47.4639 434.873 48.4665C433.663 49.4582 432.278 50.2264 430.719 50.7713C429.16 51.3162 427.46 51.5886 425.618 51.5886C422.718 51.5886 420.134 50.9021 417.867 49.529C415.599 48.145 413.812 46.1671 412.503 43.5953C411.206 41.0235 410.557 37.9559 410.557 34.3924C410.557 30.818 411.212 27.7504 412.52 25.1895C413.828 22.6177 415.616 20.6453 417.883 19.2722C420.151 17.8882 422.729 17.1962 425.618 17.1962C427.394 17.1962 429.051 17.4523 430.588 17.9645C432.136 18.4658 433.526 19.2068 434.758 20.1876C435.99 21.1574 437.009 22.3453 437.816 23.751C438.623 25.1459 439.168 26.7424 439.451 28.5405Z" fill="#F6F2ED"/>
<path d="M498.812 34.3924C498.812 37.9668 498.158 41.0399 496.85 43.6117C495.542 46.1726 493.749 48.145 491.47 49.529C489.203 50.9021 486.625 51.5886 483.736 51.5886C480.836 51.5886 478.247 50.9021 475.969 49.529C473.701 48.145 471.913 46.1671 470.605 43.5953C469.297 41.0235 468.643 37.9559 468.643 34.3924C468.643 30.818 469.297 27.7504 470.605 25.1895C471.913 22.6177 473.701 20.6453 475.969 19.2722C478.247 17.8882 480.836 17.1962 483.736 17.1962C486.625 17.1962 489.203 17.8882 491.47 19.2722C493.749 20.6453 495.542 22.6177 496.85 25.1895C498.158 27.7504 498.812 30.818 498.812 34.3924ZM493.809 34.3924C493.809 31.668 493.367 29.3741 492.484 27.5107C491.612 25.6363 490.413 24.2196 488.887 23.2606C487.371 22.2908 485.654 21.8058 483.736 21.8058C481.806 21.8058 480.084 22.2908 478.569 23.2606C477.053 24.2196 475.854 25.6363 474.971 27.5107C474.099 29.3741 473.663 31.668 473.663 34.3924C473.663 37.1168 474.099 39.4161 474.971 41.2905C475.854 43.154 477.053 44.5706 478.569 45.5405C480.084 46.4995 481.806 46.979 483.736 46.979C485.654 46.979 487.371 46.4995 488.887 45.5405C490.413 44.5706 491.612 43.154 492.484 41.2905C493.367 39.4161 493.809 37.1168 493.809 34.3924Z" fill="#F6F2ED"/>
<path d="M533.194 17.1962V51.5886H528.003V17.1962H533.194Z" fill="#F6F2ED"/>
<path d="M590.156 17.1962V51.5886H585.385L567.897 26.3653H567.578V51.5886H562.387V17.1962H567.192L584.696 42.4531H585.015V17.1962H590.156Z" fill="#F6F2ED"/>
<path d="M689.544 186.968C692.575 186.968 694.696 186.261 695.908 184.847C697.12 183.434 697.827 181.465 698.029 178.94C698.332 176.416 698.484 173.487 698.484 170.155V138.65C698.484 137.035 698.484 135.318 698.484 133.501C698.585 131.582 698.787 129.714 699.09 127.896C697.373 127.997 695.555 128.098 693.635 128.199C691.716 128.199 689.948 128.25 688.332 128.351V120.323H693.484C697.726 120.323 700.959 119.869 703.181 118.96C705.403 118.051 707.019 117.092 708.03 116.082H713.484C713.686 117.496 713.838 119.465 713.939 121.989C714.04 124.514 714.141 127.341 714.242 130.471C716.161 127.644 718.383 125.119 720.909 122.898C723.434 120.575 726.161 118.707 729.091 117.294C732.121 115.88 735.252 115.173 738.485 115.173C741.616 115.173 744.293 116.031 746.515 117.748C748.838 119.364 750 122.04 750 125.776C750 126.786 749.697 127.947 749.091 129.259C748.586 130.572 747.677 131.733 746.364 132.743C745.151 133.652 743.485 134.106 741.363 134.106C739.242 134.005 737.374 133.198 735.757 131.683C734.242 130.168 733.535 128.098 733.636 125.473C731.212 125.473 728.788 126.23 726.363 127.745C723.939 129.158 721.666 131.077 719.545 133.501C717.525 135.924 715.807 138.549 714.393 141.377V174.548C714.393 176.365 714.343 178.233 714.242 180.152C714.242 181.97 714.09 183.838 713.787 185.756C715.403 185.655 717.07 185.605 718.787 185.605C720.505 185.504 722.07 185.403 723.484 185.302V193.33H689.544V186.968Z" fill="#F6F2ED"/>
<path d="M646.839 193.551C639.961 193.551 633.771 191.979 628.269 188.836C622.865 185.595 618.591 181.077 615.447 175.282C612.303 169.389 610.731 162.465 610.731 154.509C610.731 147.634 612.254 141.201 615.3 135.21C618.444 129.218 622.816 124.406 628.417 120.772C634.017 117.039 640.502 115.173 647.87 115.173C651.997 115.173 655.878 115.812 659.513 117.088C663.247 118.365 666.538 120.379 669.387 123.129C672.335 125.781 674.644 129.267 676.314 133.589C677.984 137.812 678.82 142.969 678.82 149.058L628.122 149.942C628.122 156.621 628.859 162.563 630.333 167.769C631.905 172.974 634.41 177.001 637.849 179.85C641.288 182.698 645.758 184.122 651.26 184.122C653.913 184.122 656.713 183.68 659.661 182.796C662.706 181.814 665.556 180.439 668.208 178.671C670.96 176.903 673.268 174.791 675.135 172.336L679.704 176.314C676.756 180.733 673.367 184.22 669.535 186.774C665.703 189.229 661.773 190.948 657.745 191.93C653.815 193.011 650.179 193.551 646.839 193.551ZM628.711 142.281H662.756C662.756 138.549 662.215 135.21 661.134 132.263C660.152 129.218 658.58 126.812 656.418 125.044C654.257 123.276 651.506 122.392 648.165 122.392C642.958 122.392 638.684 124.062 635.343 127.401C632.003 130.642 629.792 135.602 628.711 142.281Z" fill="#F6F2ED"/>
<path d="M522.059 228.762V222.574C525.006 222.574 527.07 221.887 528.249 220.512C529.428 219.137 530.115 217.221 530.312 214.766C530.607 212.311 530.754 209.462 530.754 206.221L530.901 138.009C530.901 136.437 530.951 134.768 531.049 133C531.147 131.134 531.294 129.316 531.491 127.549C529.821 127.647 528.052 127.745 526.185 127.843C524.319 127.843 522.599 127.892 521.027 127.991V120.182C525.449 120.182 528.887 119.986 531.344 119.593C533.898 119.102 535.814 118.562 537.091 117.972C538.467 117.383 539.498 116.745 540.186 116.057H545.492C545.59 117.039 545.688 118.218 545.787 119.593C545.885 120.968 545.983 122.343 546.081 123.718C549.225 120.968 552.713 118.856 556.545 117.383C560.377 115.91 564.209 115.173 568.04 115.173C573.739 115.173 578.946 116.696 583.663 119.74C588.477 122.687 592.309 126.91 595.158 132.41C598.105 137.911 599.579 144.442 599.579 152.005C599.579 160.157 597.909 167.376 594.568 173.662C591.228 179.948 586.708 184.859 581.01 188.394C575.409 191.832 569.17 193.551 562.293 193.551C559.149 193.551 556.25 193.158 553.598 192.372C550.945 191.685 548.439 190.703 546.081 189.426V210.493C546.081 212.261 546.032 214.029 545.934 215.797C545.934 217.663 545.836 219.53 545.639 221.396C547.211 221.297 548.783 221.199 550.355 221.101C552.026 221.101 553.548 221.052 554.924 220.954V228.762H522.059ZM561.261 185.89C565.977 185.89 569.858 184.515 572.904 181.765C576.048 178.916 578.357 175.135 579.831 170.421C581.403 165.608 582.189 160.206 582.189 154.215C582.189 149.206 581.501 144.442 580.125 139.924C578.75 135.308 576.539 131.576 573.493 128.727C570.546 125.781 566.665 124.356 561.851 124.455C558.805 124.455 555.906 125.191 553.155 126.665C550.404 128.138 548.095 129.955 546.229 132.116C546.229 133.393 546.229 134.768 546.229 136.241C546.327 137.714 546.376 139.58 546.376 141.839C546.376 144 546.376 146.799 546.376 150.237C546.376 153.576 546.327 157.8 546.229 162.907C546.229 167.916 546.229 174.006 546.229 181.175C548.194 182.649 550.453 183.827 553.008 184.711C555.661 185.595 558.412 185.988 561.261 185.89Z" fill="#F6F2ED"/>
<path d="M479.021 193.551C472.143 193.551 465.953 191.979 460.451 188.836C455.047 185.595 450.773 181.077 447.629 175.282C444.485 169.389 442.913 162.465 442.913 154.509C442.913 147.634 444.436 141.201 447.482 135.21C450.626 129.218 454.998 124.406 460.599 120.772C466.199 117.039 472.683 115.173 480.052 115.173C484.179 115.173 488.06 115.812 491.695 117.088C495.429 118.365 498.72 120.379 501.569 123.129C504.517 125.781 506.826 129.267 508.496 133.589C510.166 137.812 511.001 142.969 511.001 149.058L460.304 149.942C460.304 156.621 461.041 162.563 462.514 167.769C464.086 172.974 466.592 177.001 470.031 179.85C473.469 182.698 477.94 184.122 483.442 184.122C486.095 184.122 488.895 183.68 491.842 182.796C494.888 181.814 497.738 180.439 500.39 178.671C503.141 176.903 505.45 174.791 507.317 172.336L511.886 176.314C508.938 180.733 505.549 184.22 501.717 186.774C497.885 189.229 493.955 190.948 489.927 191.93C485.996 193.011 482.361 193.551 479.021 193.551ZM460.893 142.281H494.937C494.937 138.549 494.397 135.21 493.316 132.263C492.334 129.218 490.762 126.812 488.6 125.044C486.439 123.276 483.688 122.392 480.347 122.392C475.14 122.392 470.866 124.062 467.525 127.401C464.185 130.642 461.974 135.602 460.893 142.281Z" fill="#F6F2ED"/>
<path d="M399.722 193.551C392.844 193.551 386.654 191.979 381.152 188.836C375.748 185.595 371.474 181.077 368.33 175.282C365.186 169.389 363.614 162.465 363.614 154.509C363.614 147.634 365.137 141.201 368.183 135.21C371.327 129.218 375.699 124.406 381.299 120.772C386.9 117.039 393.384 115.173 400.753 115.173C404.88 115.173 408.761 115.812 412.396 117.088C416.13 118.365 419.421 120.379 422.27 123.129C425.218 125.781 427.527 129.267 429.197 133.589C430.867 137.812 431.702 142.969 431.702 149.058L381.005 149.942C381.005 156.621 381.742 162.563 383.215 167.769C384.787 172.974 387.293 177.001 390.732 179.85C394.17 182.698 398.641 184.122 404.143 184.122C406.796 184.122 409.596 183.68 412.543 182.796C415.589 181.814 418.438 180.439 421.091 178.671C423.842 176.903 426.151 174.791 428.018 172.336L432.587 176.314C429.639 180.733 426.249 184.22 422.418 186.774C418.586 189.229 414.656 190.948 410.628 191.93C406.697 193.011 403.062 193.551 399.722 193.551ZM381.594 142.281H415.638C415.638 138.549 415.098 135.21 414.017 132.263C413.035 129.218 411.463 126.812 409.301 125.044C407.14 123.276 404.389 122.392 401.048 122.392C395.841 122.392 391.567 124.062 388.226 127.401C384.886 130.642 382.675 135.602 381.594 142.281Z" fill="#F6F2ED"/>
<path d="M266.372 193.487V186.86C269.686 186.659 272.046 185.957 273.453 184.752C274.959 183.547 275.913 181.74 276.315 179.33C276.717 176.92 276.918 173.858 276.918 170.143V107.493C276.918 105.284 276.968 103.176 277.068 101.168C277.169 99.0593 277.269 97.2521 277.37 95.7461C275.662 95.8465 273.804 95.9469 271.795 96.0473C269.787 96.1477 267.979 96.2481 266.372 96.3485V88.0654H303.433V94.6919C300.219 94.7923 297.858 95.4951 296.352 96.8003C294.845 98.0051 293.891 99.8123 293.489 102.222C293.088 104.531 292.887 107.593 292.887 111.409V135.505H304.035L320.456 109.15C321.963 106.84 323.67 104.381 325.579 101.77C327.487 99.1597 329.295 97.1015 331.002 95.5955C329.496 95.6959 327.889 95.7963 326.181 95.8967C324.574 95.8967 323.118 95.9469 321.812 96.0473V88.0654H355.709V94.6919C352.094 94.8927 348.729 95.4951 345.616 96.4991C342.602 97.5031 339.64 99.2601 336.727 101.77C333.814 104.28 330.751 108.146 327.537 113.367L312.924 136.71C315.535 138.316 317.694 140.123 319.402 142.131C321.109 144.139 322.766 146.198 324.373 148.306L340.795 170.445C344.009 174.762 346.771 178.125 349.081 180.535C351.491 182.945 353.751 184.601 355.86 185.505C357.969 186.408 360.078 186.86 362.187 186.86V193.487H342.151C341.247 193.487 339.941 192.734 338.234 191.228C336.526 189.722 334.668 187.814 332.659 185.505C330.751 183.196 328.893 180.886 327.085 178.577L310.061 155.083C308.354 152.774 306.596 150.515 304.788 148.306C303.081 146.097 301.374 144.491 299.666 143.487H292.887V173.306C292.887 176.017 292.837 178.477 292.736 180.685C292.736 182.794 292.636 184.501 292.435 185.806C294.142 185.605 296 185.505 298.009 185.505C300.118 185.404 301.926 185.304 303.433 185.204V193.487H266.372Z" fill="#F6F2ED"/>
</svg>
