<svg width="28" height="29" viewBox="0 0 28 29" fill="none" xmlns="http://www.w3.org/2000/svg">
<g clip-path="url(#clip0_1477_4268)">
<path d="M15.0962 0C15.7051 0.108285 16.2822 0.348364 16.7859 0.70296C17.3812 1.15688 17.8099 1.79049 18.0065 2.50714C18.2032 3.22378 18.1571 3.98417 17.8752 4.67255C17.5941 5.35323 17.0954 5.92477 16.4552 6.30039C15.815 6.67602 15.0682 6.83523 14.3281 6.75384C13.57 6.67543 12.86 6.34947 12.311 5.8276C11.762 5.30574 11.4056 4.6179 11.2977 3.87318C11.1692 2.99135 11.3972 2.09502 11.9329 1.37799C12.4686 0.660957 13.2688 0.180795 14.1603 0.0413902H14.2861L15.0962 0Z" fill="#F7F2EC"/>
<path d="M3.15613 6.89163C3.15613 6.0801 3.48265 5.30174 4.06406 4.7279C4.64547 4.15406 5.4341 3.83179 6.25634 3.83179C7.07374 3.83541 7.85664 4.15743 8.43463 4.7279C9.01263 5.29837 9.33889 6.07108 9.34257 6.87784C9.33528 7.68714 9.00629 8.4612 8.42645 9.03349C7.84661 9.60578 7.06234 9.93049 6.24236 9.93768C5.42496 9.93405 4.64206 9.61204 4.06406 9.04157C3.48607 8.4711 3.1598 7.69839 3.15613 6.89163Z" fill="#F7F2EC"/>
<path d="M0 15.1617C0 14.4306 0.294134 13.7294 0.817926 13.2125C1.34172 12.6955 2.05226 12.405 2.79302 12.405C3.53377 12.405 4.24432 12.6955 4.76811 13.2125C5.2919 13.7294 5.58604 14.4306 5.58604 15.1617C5.58604 15.8928 5.2919 16.5939 4.76811 17.1109C4.24432 17.6279 3.53377 17.9183 2.79302 17.9183C2.05226 17.9183 1.34172 17.6279 0.817926 17.1109C0.294134 16.5939 0 15.8928 0 15.1617Z" fill="#F7F2EC"/>
<path d="M3.85437 23.5143C3.85784 22.89 4.10762 22.2916 4.55092 21.8464C4.99422 21.4011 5.59605 21.144 6.22837 21.1296C6.86819 21.1367 7.48002 21.3899 7.93377 21.8351C8.38752 22.2804 8.64741 22.8828 8.65828 23.5143C8.64741 24.1421 8.389 24.7408 7.93786 25.1835C7.48673 25.6262 6.87846 25.8779 6.24235 25.885C5.60998 25.8742 5.00672 25.6206 4.56081 25.178C4.1149 24.7353 3.86155 24.1385 3.85437 23.5143Z" fill="#F7F2EC"/>
<path d="M14.6773 28.9449C14.1303 28.9413 13.6066 28.7252 13.2197 28.3434C12.8329 27.9616 12.6141 27.4449 12.6105 26.905C12.6178 26.3675 12.8384 25.8542 13.2249 25.4754C13.6113 25.0965 14.1326 24.8825 14.6773 24.8789C15.2182 24.8825 15.736 25.0951 16.1198 25.4713C16.5036 25.8476 16.7228 26.3574 16.7301 26.8912C16.7266 27.4301 16.5101 27.9462 16.1266 28.3298C15.7432 28.7134 15.2231 28.9341 14.6773 28.9449Z" fill="#F7F2EC"/>
<path d="M24.858 23.528C24.8506 23.9752 24.6644 24.4016 24.3401 24.714C24.0157 25.0264 23.5795 25.1995 23.1263 25.1958C22.6732 25.1922 22.2398 25.012 21.9207 24.6945C21.6016 24.3769 21.4226 23.9478 21.4226 23.5005C21.4299 23.052 21.6155 22.6242 21.9395 22.3096C22.2634 21.9951 22.6998 21.8188 23.1543 21.8188C23.6087 21.8261 24.0418 22.0094 24.3605 22.3292C24.6793 22.6489 24.858 23.0794 24.858 23.528Z" fill="#F7F2EC"/>
<path d="M28 15.1615C28 15.5271 27.8528 15.8777 27.5909 16.1362C27.329 16.3947 26.9739 16.5399 26.6035 16.5399C26.2332 16.5399 25.8781 16.3947 25.6162 16.1362C25.3543 15.8777 25.207 15.5271 25.207 15.1615C25.207 14.796 25.3543 14.4453 25.6162 14.1868C25.8781 13.9284 26.2332 13.7832 26.6035 13.7832C26.9739 13.7832 27.329 13.9284 27.5909 14.1868C27.8528 14.4453 28 14.796 28 15.1615Z" fill="#F7F2EC"/>
<path d="M23.1542 5.83032C23.4221 5.83395 23.6779 5.94151 23.8661 6.12981C24.0543 6.31812 24.1597 6.57199 24.1596 6.83647C24.1615 6.97093 24.1359 7.10442 24.0846 7.22901C24.0334 7.35359 23.9573 7.46673 23.861 7.56181C23.7646 7.6569 23.65 7.73196 23.5238 7.78256C23.3975 7.83316 23.2625 7.85828 23.1262 7.85642C22.857 7.85285 22.5996 7.7457 22.4092 7.55777C22.2188 7.36985 22.1104 7.11602 22.1068 6.85027C22.1105 6.5785 22.2224 6.31919 22.4184 6.1283C22.6145 5.9374 22.8788 5.8303 23.1542 5.83032Z" fill="#F7F2EC"/>
</g>
<defs>
<clipPath id="clip0_1477_4268">
<rect width="28" height="29" fill="white"/>
</clipPath>
</defs>
</svg>
