<svg width="147" height="143" viewBox="0 0 147 143" fill="none" xmlns="http://www.w3.org/2000/svg">
<g clip-path="url(#clip0_461_6056)">
<path opacity="0.2" d="M140.59 71.3956C141.22 71.3956 141.837 71.2094 142.361 70.8605C142.885 70.5117 143.294 70.0159 143.535 69.4358C143.777 68.8557 143.84 68.2173 143.717 67.6015C143.594 66.9857 143.29 66.42 142.844 65.976C142.398 65.532 141.83 65.2296 141.212 65.1071C140.593 64.9846 139.952 65.0475 139.37 65.2878C138.787 65.5281 138.289 65.935 137.939 66.4571C137.588 66.9792 137.401 67.593 137.401 68.2209C137.401 69.0628 137.737 69.8703 138.335 70.4657C138.933 71.0611 139.744 71.3956 140.59 71.3956Z" fill="#073B36"/>
<path opacity="0.2" d="M125.91 32.6539C126.541 32.6539 127.157 32.4677 127.682 32.1188C128.206 31.77 128.615 31.2742 128.856 30.6941C129.097 30.114 129.16 29.4756 129.037 28.8598C128.914 28.244 128.611 27.6783 128.165 27.2343C127.719 26.7903 127.151 26.4879 126.532 26.3654C125.914 26.2429 125.273 26.3058 124.69 26.5461C124.108 26.7864 123.61 27.1933 123.259 27.7154C122.909 28.2375 122.722 28.8513 122.722 29.4792C122.722 30.3211 123.058 31.1287 123.656 31.724C124.254 32.3194 125.065 32.6539 125.91 32.6539Z" fill="#073B36"/>
<path d="M30.2819 135.855H29.2974V137.757H30.2819V135.855Z" fill="#596F66"/>
<path d="M30.2819 141.097H29.2974V143H30.2819V141.097Z" fill="#596F66"/>
<path d="M33.3781 138.938H31.4673V139.918H33.3781V138.938Z" fill="#596F66"/>
<path d="M28.113 138.938H26.2021V139.918H28.113V138.938Z" fill="#596F66"/>
<path d="M1.95187 41.7202C3.02986 41.7202 3.90375 40.85 3.90375 39.7766C3.90375 38.7032 3.02986 37.833 1.95187 37.833C0.873883 37.833 0 38.7032 0 39.7766C0 40.85 0.873883 41.7202 1.95187 41.7202Z" fill="#596F66"/>
<path d="M8.89195 70.3782C9.747 70.3782 10.4402 69.688 10.4402 68.8365C10.4402 67.9851 9.747 67.2949 8.89195 67.2949C8.0369 67.2949 7.34375 67.9851 7.34375 68.8365C7.34375 69.688 8.0369 70.3782 8.89195 70.3782Z" fill="#596F66"/>
<path d="M145.27 81.0581C146.226 81.0581 147 80.287 147 79.3357C147 78.3844 146.226 77.6133 145.27 77.6133C144.315 77.6133 143.541 78.3844 143.541 79.3357C143.541 80.287 144.315 81.0581 145.27 81.0581Z" fill="#596F66"/>
<path d="M110.246 84.8893L109.681 84.4177L108.761 85.5091L109.326 85.9806L110.246 84.8893Z" fill="#596F66"/>
<path d="M107.712 87.8958L107.147 87.4243L106.228 88.5157L106.792 88.9872L107.712 87.8958Z" fill="#596F66"/>
<path d="M110.532 88.1401L109.436 87.2249L108.962 87.7874L110.058 88.7026L110.532 88.1401Z" fill="#596F66"/>
<path d="M107.512 85.6174L106.417 84.7021L105.942 85.2647L107.038 86.1799L107.512 85.6174Z" fill="#596F66"/>
<path d="M121.833 26.7161C122.688 26.7161 123.381 26.0258 123.381 25.1744C123.381 24.323 122.688 23.6328 121.833 23.6328C120.978 23.6328 120.285 24.323 120.285 25.1744C120.285 26.0258 120.978 26.7161 121.833 26.7161Z" fill="#596F66"/>
<path d="M72.1318 15.7906C75.8457 15.7906 78.8563 12.7927 78.8563 9.09464C78.8563 5.39657 75.8457 2.39868 72.1318 2.39868C68.4179 2.39868 65.4072 5.39657 65.4072 9.09464C65.4072 12.7927 68.4179 15.7906 72.1318 15.7906Z" fill="#596F66"/>
<g opacity="0.696">
<path d="M72.041 18.3859C71.714 18.3859 71.3871 18.3563 71.0602 18.3267L71.1493 17.3797C71.4466 17.4093 71.7438 17.4389 72.041 17.4389H72.1301V18.3859H72.041ZM73.1412 18.3267L73.0223 17.3797C73.3195 17.3501 73.6167 17.2909 73.914 17.2317L74.122 18.1492L73.1412 18.3267ZM70.0491 18.1787C69.7239 18.1206 69.4054 18.0305 69.098 17.9097L69.3953 17.0219C69.6925 17.1106 69.96 17.1994 70.2599 17.2586L70.0491 18.1787ZM75.0747 17.8828L74.7478 16.995C75.018 16.9062 75.3125 16.7878 75.58 16.6694L75.9961 17.5304C75.6972 17.646 75.3703 17.7644 75.0731 17.8828H75.0747ZM68.1778 17.5277C67.8806 17.3797 67.5833 17.2317 67.2861 17.0541L67.7617 16.2551C68.0319 16.4031 68.2967 16.551 68.5641 16.6694L68.1778 17.5277ZM76.8585 17.0245L76.3533 16.2255C76.6122 16.075 76.8605 15.9069 77.0963 15.7224L77.6907 16.4622C77.4216 16.6393 77.1541 16.8448 76.8569 17.0245H76.8585ZM66.4518 16.522C66.1816 16.3148 65.9465 16.1077 65.679 15.8709L66.3329 15.1902C66.5471 15.3935 66.7756 15.5814 67.0165 15.7525L66.4518 16.522ZM78.4327 15.8117L77.7788 15.131C77.9922 14.9283 78.1909 14.7108 78.3732 14.4799L79.0865 15.0718C78.8932 15.3386 78.6742 15.5861 78.4327 15.8106V15.8117ZM65.0246 15.1606C64.8031 14.9124 64.6041 14.6449 64.4302 14.3616L65.2029 13.8288L65.7379 14.5391L65.0246 15.1606ZM79.7107 14.2728L78.9379 13.7401C79.1148 13.5009 79.2643 13.2428 79.3837 12.9706L80.2159 13.4145C80.0652 13.71 79.8964 13.9961 79.7107 14.2712V14.2728ZM63.8952 13.5313C63.7466 13.2353 63.598 12.9394 63.4791 12.6434L64.3708 12.2883C64.4896 12.5574 64.6085 12.821 64.7571 13.0874L63.8952 13.5313ZM80.6326 12.5245L79.7409 12.1694C79.8623 11.8931 79.9529 11.6044 80.0111 11.3084L80.9325 11.5452C80.8504 11.8768 80.7503 12.2037 80.6326 12.5245ZM63.1516 11.6959C63.0625 11.3703 63.003 11.0448 62.9436 10.7192L63.8649 10.5713C63.9167 10.8622 63.9862 11.1497 64.073 11.4322L63.1516 11.6959ZM81.1378 10.603L80.2165 10.455C80.2759 10.1591 80.2759 9.86314 80.3056 9.5672L81.2567 9.59679C81.227 9.94923 81.1978 10.2748 81.1378 10.603ZM62.8247 9.74207V8.73531L63.7758 8.7945V9.68235L62.8247 9.74207ZM80.2759 8.67612C80.2462 8.38017 80.2165 8.08423 80.157 7.78828L81.0784 7.64031C81.1378 7.96585 81.1676 8.29139 81.1973 8.61747L80.2759 8.67612ZM63.8655 7.90666L62.9441 7.75869C63.0036 7.43315 63.063 7.1076 63.1522 6.78152L64.0735 7.01828C63.9761 7.30719 63.9065 7.60465 63.8655 7.90666ZM79.9787 6.93003C79.8976 6.64774 79.7983 6.37095 79.6815 6.10138L80.5461 5.74624C80.6729 6.05555 80.782 6.37173 80.873 6.69327L79.9787 6.93003ZM64.341 6.1907L63.4494 5.83556C63.5701 5.53156 63.709 5.23507 63.8655 4.94771L64.6977 5.39164C64.561 5.64976 64.4419 5.91671 64.341 6.1907ZM79.2951 5.30285C79.1465 5.03381 78.9979 4.79974 78.8196 4.53339L79.5923 4.00068C79.7707 4.26972 79.949 4.56298 80.1273 4.86162L79.2951 5.30285ZM65.1732 4.62056L64.4005 4.08785C64.5788 3.81881 64.7868 3.55514 64.9949 3.28879L65.7082 3.91028C65.4975 4.12103 65.3174 4.36011 65.1732 4.62056ZM78.2841 3.82311C78.076 3.58635 77.868 3.37919 77.6599 3.17203L78.3138 2.49135C78.5515 2.72811 78.7893 2.96486 78.9974 3.20162L78.2841 3.82311ZM66.3032 3.26081L65.6493 2.58013C65.8871 2.34337 66.1546 2.1362 66.3923 1.92904L66.957 2.66891C66.749 2.84433 66.5409 3.05203 66.3032 3.25919V3.26081ZM76.9758 2.60973C76.74 2.42523 76.4917 2.25712 76.2328 2.10661L76.7083 1.30755C76.997 1.4778 77.2749 1.6656 77.5405 1.86986L76.9758 2.60973ZM67.7298 2.1658L67.2245 1.36674C67.5027 1.19135 67.7914 1.03321 68.0891 0.893227L68.5052 1.75416C68.2376 1.87279 67.9785 2.0096 67.7298 2.16365V2.1658ZM75.4573 1.69229C75.1872 1.56603 74.9093 1.45728 74.6251 1.36674L74.9223 0.478898C75.2493 0.597277 75.5465 0.715658 75.8437 0.834037L75.4573 1.69229ZM69.3331 1.42324L69.0391 0.535395C69.3477 0.418429 69.666 0.328409 69.9902 0.266351L70.1983 1.18379C69.9035 1.23602 69.6145 1.31638 69.3353 1.42378L69.3331 1.42324ZM73.7643 1.1542C73.4671 1.09501 73.1698 1.03582 72.8726 1.00622L72.9618 0.05919C73.2887 0.0887848 73.6157 0.147971 73.9426 0.207161L73.7643 1.1542ZM71.0888 1.00622L70.9699 0.05919C71.2969 0.0295951 71.6238 0 71.9507 0V0.947031C71.6838 0.979316 71.3866 0.979315 71.0894 1.00945L71.0888 1.00622Z" fill="#2F4F4F"/>
</g>
<path d="M74.6585 7.81959C74.6585 8.3636 74.6282 8.90975 74.6644 9.45161C74.7173 9.96863 74.6578 10.4909 74.4899 10.983C74.3221 11.4751 74.0499 11.9254 73.6917 12.3035C73.5836 12.4213 73.4945 12.5607 73.3891 12.6839C73.2 12.9051 73.1373 13.3022 72.8455 13.3474C72.3475 13.396 71.8464 13.4052 71.347 13.3748C71.1962 13.3748 71.1135 13.2467 71.0519 13.1337C70.7788 12.6791 70.4585 12.2542 70.0965 11.866C69.6384 11.3176 69.396 10.6221 69.4146 9.90898C69.4011 8.45346 69.4173 6.99739 69.4048 5.54187C69.4016 5.16897 69.5421 4.9984 69.9204 5.00001C71.3232 5.00503 72.7262 5.00503 74.1294 5.00001C74.498 5.00001 74.6698 5.14476 74.6628 5.52626C74.6493 6.29088 74.659 7.05497 74.6585 7.81959ZM72.0241 6.14075C71.5226 6.14075 71.0211 6.15045 70.5197 6.13699C70.2495 6.13 70.1495 6.23869 70.1511 6.49912C70.1572 7.51216 70.1572 8.52538 70.1511 9.53878C70.1511 9.78415 70.2592 9.88423 70.4943 9.88423C71.512 9.88208 72.5297 9.88208 73.5474 9.88423C73.8047 9.88423 73.9187 9.78684 73.916 9.51833C73.9073 8.52 73.9073 7.52149 73.916 6.5228C73.916 6.24192 73.8165 6.12677 73.5264 6.13592C73.0254 6.15152 72.5234 6.14022 72.0219 6.14022" fill="#F6F2ED"/>
<path d="M117.626 36.3902C121.34 36.3902 124.351 33.3923 124.351 29.6943C124.351 25.9962 121.34 22.9983 117.626 22.9983C113.913 22.9983 110.902 25.9962 110.902 29.6943C110.902 33.3923 113.913 36.3902 117.626 36.3902Z" fill="#596F66"/>
<g opacity="0.696">
<path d="M117.536 38.9855C117.209 38.9855 116.882 38.9559 116.555 38.9263L116.644 37.9793C116.941 38.0089 117.238 38.0385 117.536 38.0385H117.625V38.9855H117.536ZM118.636 38.9263L118.517 37.9793C118.814 37.9497 119.111 37.8905 119.409 37.8313L119.617 38.7488L118.636 38.9263ZM115.544 38.7784C115.219 38.7202 114.9 38.6301 114.593 38.5093L114.89 37.6215C115.187 37.7103 115.455 37.799 115.755 37.8582L115.544 38.7784ZM120.569 38.4824L120.242 37.5946C120.513 37.5058 120.807 37.3874 121.075 37.269L121.491 38.13C121.192 38.2456 120.866 38.364 120.569 38.4824ZM113.672 38.1273C113.375 37.9793 113.078 37.8313 112.781 37.6538L113.256 36.8547C113.526 37.0027 113.791 37.1506 114.059 37.269L113.672 38.1273ZM122.353 37.6242L121.848 36.8251C122.107 36.6746 122.355 36.5065 122.591 36.322L123.185 37.0619C122.916 37.2389 122.65 37.4444 122.353 37.6242ZM111.946 37.1216C111.676 36.9144 111.441 36.7073 111.174 36.4705L111.828 35.7898C112.042 35.9931 112.27 36.181 112.511 36.3521L111.946 37.1216ZM123.927 36.4113L123.273 35.7306C123.487 35.5279 123.685 35.3104 123.868 35.0795L124.581 35.6714C124.388 35.9382 124.169 36.1857 123.927 36.4102V36.4113ZM110.519 35.7602C110.298 35.512 110.099 35.2446 109.925 34.9612L110.698 34.4285L111.233 35.1387L110.519 35.7602ZM125.205 34.8724L124.433 34.3397C124.609 34.1005 124.759 33.8424 124.878 33.5702L125.711 34.0141C125.56 34.3096 125.391 34.5957 125.205 34.8708V34.8724ZM109.39 34.1309C109.241 33.835 109.093 33.539 108.974 33.243L109.865 32.8879C109.984 33.157 110.103 33.4206 110.252 33.687L109.39 34.1309ZM126.127 33.1241L125.236 32.769C125.357 32.4927 125.447 32.204 125.506 31.9081L126.427 32.1448C126.345 32.4764 126.245 32.8034 126.127 33.1241ZM108.646 32.2955C108.557 31.9699 108.498 31.6444 108.438 31.3189L109.36 31.1709C109.411 31.4618 109.481 31.7493 109.568 32.0318L108.646 32.2955ZM126.632 31.2026L125.711 31.0546C125.771 30.7587 125.771 30.4628 125.8 30.1668L126.751 30.1964C126.722 30.5488 126.692 30.8744 126.632 31.2026ZM108.319 30.3417V29.3349L109.27 29.3941V30.282L108.319 30.3417ZM125.771 29.2757C125.741 28.9798 125.711 28.6838 125.652 28.3879L126.573 28.2399C126.632 28.5655 126.662 28.891 126.692 29.2171L125.771 29.2757ZM109.36 28.5063L108.439 28.3583C108.498 28.0328 108.558 27.7072 108.647 27.3811L109.568 27.6179C109.471 27.9068 109.401 28.2043 109.36 28.5063ZM125.473 27.5296C125.392 27.2473 125.293 26.9706 125.176 26.701L126.041 26.3458C126.167 26.6552 126.277 26.9713 126.368 27.2929L125.473 27.5296ZM109.836 26.7903L108.944 26.4352C109.065 26.1312 109.204 25.8347 109.36 25.5473L110.192 25.9912C110.056 26.2494 109.936 26.5163 109.836 26.7903ZM124.79 25.9025C124.641 25.6334 124.493 25.3994 124.314 25.133L125.087 24.6003C125.265 24.8693 125.444 25.1626 125.622 25.4612L124.79 25.9025ZM110.668 25.2202L109.895 24.6875C110.073 24.4184 110.281 24.1548 110.49 23.8884L111.203 24.5099C110.992 24.7206 110.812 24.9597 110.668 25.2202ZM123.779 24.4227C123.571 24.186 123.363 23.9788 123.155 23.7716L123.808 23.091C124.046 23.3277 124.284 23.5645 124.492 23.8012L123.779 24.4227ZM111.798 23.8604L111.144 23.1797C111.382 22.943 111.649 22.7358 111.887 22.5286L112.452 23.2685C112.244 23.4439 112.036 23.6516 111.798 23.8588V23.8604ZM122.47 23.2093C122.235 23.0248 121.986 22.8567 121.727 22.7062L122.203 21.9072C122.492 22.0774 122.77 22.2652 123.035 22.4695L122.47 23.2093ZM113.224 22.7654L112.719 21.9663C112.997 21.791 113.286 21.6328 113.584 21.4928L114 22.3538C113.732 22.4724 113.473 22.6092 113.224 22.7633V22.7654ZM120.952 22.2919C120.682 22.1656 120.404 22.0569 120.12 21.9663L120.417 21.0785C120.744 21.1969 121.041 21.3153 121.338 21.4336L120.952 22.2919ZM114.828 22.0229L114.534 21.135C114.842 21.018 115.161 20.928 115.485 20.866L115.693 21.7834C115.398 21.8356 115.109 21.916 114.83 22.0234L114.828 22.0229ZM119.259 21.7538C118.962 21.6946 118.664 21.6354 118.367 21.6058L118.456 20.6588C118.783 20.6884 119.11 20.7476 119.437 20.8068L119.259 21.7538ZM116.583 21.6058L116.465 20.6588C116.792 20.6292 117.118 20.5996 117.445 20.5996V21.5466C117.178 21.5789 116.881 21.5789 116.584 21.6091L116.583 21.6058Z" fill="#2F4F4F"/>
</g>
<path d="M117.294 31.9882C116.951 32.5758 116.592 33.1558 116.272 33.7547C116.113 34.0496 115.986 34.14 115.668 33.9296C115.162 33.5952 114.636 33.2929 114.092 33.0246C113.693 32.8276 113.617 32.67 113.868 32.2513C115.027 30.3201 116.143 28.3636 117.269 26.4136C117.398 26.1903 117.585 25.9966 117.48 25.6754C117.313 25.169 117.616 25.056 118.042 25.1373C118.549 25.2293 119.069 25.2311 119.577 25.1426C119.785 25.1087 120.115 25.0119 120.207 25.2228C120.277 25.3369 120.305 25.4718 120.285 25.604C120.265 25.7362 120.2 25.8572 120.099 25.946C119.905 26.116 120.328 27.2993 120.588 27.4672C120.849 27.6351 120.822 28.334 120.53 28.3782C120.195 28.4293 120.252 28.6138 120.252 28.8086C120.249 29.6222 120.252 30.4358 120.252 31.2494C120.252 31.4571 120.22 31.6336 120.546 31.6756C120.799 31.7079 120.856 32.4994 120.625 32.5279C120.151 32.5855 120.255 32.8846 120.253 33.158C120.243 34.4494 120.245 34.4494 118.964 34.4456C118.485 34.4456 117.848 34.6071 117.569 34.3676C117.237 34.0824 117.49 33.4292 117.46 32.9363C117.442 32.6296 117.457 32.3207 117.457 32.0129L117.295 31.9887M118.727 25.6576C118.291 25.6667 118.046 26.0219 117.82 26.4109C116.847 28.0876 115.874 29.7632 114.902 31.4377C114.241 32.5779 114.25 32.5677 115.418 33.2403C115.752 33.4324 115.914 33.447 116.13 33.0644C117.215 31.1412 118.338 29.2396 119.443 27.3278C119.541 27.1679 119.619 26.9973 119.677 26.8193C119.717 26.6779 119.722 26.5291 119.691 26.3855C119.661 26.2418 119.597 26.1074 119.504 25.9935C119.411 25.8796 119.292 25.7895 119.157 25.7308C119.022 25.672 118.875 25.6464 118.728 25.656M119.439 28.5504C118.986 29.2031 118.353 29.767 118.269 30.5736C118.199 31.2526 118.287 31.9462 118.249 32.6307C118.223 33.1096 118.514 33.0655 118.803 33.0402C119.07 33.0165 119.457 33.2193 119.447 32.6554C119.424 31.2876 119.439 29.9187 119.439 28.5504Z" fill="#F6F2ED"/>
<path d="M16.332 85.7862C20.0459 85.7862 23.0565 82.7883 23.0565 79.0902C23.0565 75.3922 20.0459 72.3943 16.332 72.3943C12.6181 72.3943 9.60742 75.3922 9.60742 79.0902C9.60742 82.7883 12.6181 85.7862 16.332 85.7862Z" fill="#596F66"/>
<g opacity="0.696">
<path d="M16.2412 88.3815C15.9142 88.3815 15.5873 88.3519 15.2604 88.3223L15.3495 87.3753C15.6468 87.4049 15.944 87.4345 16.2412 87.4345H16.3303V88.3815H16.2412ZM17.3414 88.3223L17.2225 87.3753C17.5197 87.3457 17.8169 87.2865 18.1142 87.2273L18.3222 88.1448L17.3414 88.3223ZM14.2493 88.1744C13.9241 88.1162 13.6056 88.0261 13.2982 87.9053L13.5955 87.0175C13.8927 87.1063 14.1602 87.195 14.4601 87.2542L14.2493 88.1744ZM19.2749 87.8784L18.948 86.9906C19.2182 86.9018 19.5127 86.7834 19.7802 86.665L20.1963 87.526C19.8974 87.6416 19.5705 87.76 19.2733 87.8784H19.2749ZM12.378 87.5233C12.0807 87.3753 11.7835 87.2273 11.4863 87.0498L11.9619 86.2507C12.2321 86.3987 12.4968 86.5466 12.7643 86.665L12.378 87.5233ZM21.0587 87.0202L20.5535 86.2211C20.8124 86.0706 21.0607 85.9025 21.2965 85.718L21.8909 86.4579C21.6218 86.6349 21.3543 86.8404 21.0571 87.0202H21.0587ZM10.652 86.5176C10.3818 86.3104 10.1467 86.1033 9.87922 85.8665L10.5331 85.1858C10.7473 85.3891 10.9758 85.577 11.2167 85.7481L10.652 86.5176ZM22.6329 85.8073L21.979 85.1266C22.1924 84.9239 22.3911 84.7064 22.5734 84.4755L23.2867 85.0674C23.0934 85.3342 22.8744 85.5817 22.6329 85.8062V85.8073ZM9.22481 85.1562C9.00325 84.908 8.80432 84.6406 8.63039 84.3572L9.40314 83.8245L9.93812 84.5347L9.22481 85.1562ZM23.9109 84.2684L23.1381 83.7357C23.315 83.4965 23.4645 83.2384 23.5839 82.9662L24.4161 83.4101C24.2653 83.7056 24.0966 83.9917 23.9109 84.2668V84.2684ZM8.09541 83.5269C7.9468 83.2309 7.79819 82.935 7.67931 82.639L8.57095 82.2839C8.68983 82.553 8.80872 82.8166 8.95732 83.083L8.09541 83.5269ZM24.8328 82.5201L23.9411 82.165C24.0625 81.8887 24.1531 81.6 24.2113 81.304L25.1327 81.5408C25.0506 81.8724 24.9505 82.1994 24.8328 82.5201ZM7.35184 81.6915C7.26267 81.3659 7.20323 81.0404 7.14379 80.7149L8.06514 80.5669C8.11689 80.8578 8.18637 81.1453 8.27319 81.4278L7.35184 81.6915ZM25.338 80.5986L24.4167 80.4506C24.4761 80.1547 24.4761 79.8587 24.5058 79.5628L25.4569 79.5924C25.4272 79.9448 25.398 80.2704 25.338 80.5986ZM7.0249 79.7377V78.7309L7.97598 78.7901V79.678L7.0249 79.7377ZM24.4761 78.6717C24.4464 78.3758 24.4167 78.0798 24.3572 77.7839L25.2786 77.6359C25.338 77.9615 25.3678 78.287 25.3975 78.6131L24.4761 78.6717ZM8.06569 77.9023L7.14433 77.7543C7.20377 77.4288 7.26321 77.1032 7.35238 76.7771L8.27373 77.0139C8.17632 77.3028 8.10666 77.6003 8.06569 77.9023ZM24.1789 76.9256C24.0978 76.6433 23.9985 76.3666 23.8817 76.097L24.7463 75.7418C24.8731 76.0512 24.9822 76.3673 25.0732 76.6889L24.1789 76.9256ZM8.54122 76.1863L7.64959 75.8312C7.77026 75.5272 7.90922 75.2307 8.06569 74.9433L8.89788 75.3872C8.7612 75.6454 8.64205 75.9123 8.54122 76.1863ZM23.4953 75.2985C23.3467 75.0294 23.1981 74.7953 23.0198 74.529L23.7925 73.9963C23.9709 74.2653 24.1492 74.5586 24.3275 74.8572L23.4953 75.2985ZM9.37342 74.6162L8.60067 74.0835C8.77899 73.8144 8.98704 73.5507 9.19509 73.2844L9.9084 73.9059C9.69767 74.1166 9.51759 74.3557 9.37342 74.6162ZM22.4843 73.8187C22.2762 73.582 22.0682 73.3748 21.8601 73.1676L22.514 72.487C22.7517 72.7237 22.9895 72.9605 23.1976 73.1972L22.4843 73.8187ZM10.5034 73.2564L9.8495 72.5757C10.0873 72.339 10.3548 72.1318 10.5925 71.9246L11.1572 72.6645C10.9492 72.8399 10.7411 73.0476 10.5034 73.2548V73.2564ZM21.176 72.6053C20.9402 72.4208 20.6919 72.2527 20.433 72.1022L20.9085 71.3032C21.1972 71.4734 21.4751 71.6612 21.7407 71.8655L21.176 72.6053ZM11.93 72.1614L11.4247 71.3623C11.7029 71.187 11.9916 71.0288 12.2893 70.8888L12.7054 71.7498C12.4378 71.8684 12.1787 72.0052 11.93 72.1593V72.1614ZM19.6575 71.6879C19.3874 71.5616 19.1095 71.4529 18.8253 71.3623L19.1225 70.4745C19.4494 70.5929 19.7467 70.7113 20.0439 70.8296L19.6575 71.6879ZM13.5333 71.4188L13.2393 70.531C13.5479 70.414 13.8662 70.324 14.1904 70.262L14.3985 71.1794C14.1037 71.2316 13.8147 71.312 13.5355 71.4194L13.5333 71.4188ZM17.9645 71.1498C17.6673 71.0906 17.37 71.0314 17.0728 71.0018L17.162 70.0548C17.4889 70.0844 17.8159 70.1436 18.1428 70.2028L17.9645 71.1498ZM15.289 71.0018L15.1701 70.0548C15.4971 70.0252 15.824 69.9956 16.1509 69.9956V70.9426C15.884 70.9749 15.5868 70.9749 15.2896 71.0051L15.289 71.0018Z" fill="#2F4F4F"/>
</g>
<path d="M20.5961 82.0573H11.8856C11.8283 82.0573 11.7733 82.0346 11.7327 81.9943C11.6922 81.9539 11.6694 81.8992 11.6694 81.8421V76.5338C11.6694 76.4768 11.6922 76.422 11.7327 76.3816C11.7733 76.3413 11.8283 76.3186 11.8856 76.3186H20.5961C20.6534 76.3186 20.7084 76.3413 20.7489 76.3816C20.7894 76.422 20.8122 76.4768 20.8122 76.5338V81.8458C20.8112 81.9023 20.788 81.9561 20.7476 81.9956C20.7072 82.0352 20.6527 82.0573 20.5961 82.0573Z" fill="#F6F2ED"/>
<path d="M11.6724 77.54H20.8097" stroke="#035F51" stroke-width="2"/>
<path d="M96.5742 126.169C101.575 126.169 105.629 122.132 105.629 117.152C105.629 112.173 101.575 108.136 96.5742 108.136C91.5735 108.136 87.5195 112.173 87.5195 117.152C87.5195 122.132 91.5735 126.169 96.5742 126.169Z" fill="#596F66"/>
<g opacity="0.696">
<path d="M96.4504 129.662C96.01 129.662 95.5696 129.622 95.1297 129.582L95.2496 128.307C95.6501 128.347 96.05 128.387 96.4504 128.387H96.5703V129.662H96.4504ZM97.9316 129.582L97.7695 128.307C98.1699 128.267 98.5698 128.188 98.9702 128.108L99.2507 129.346L97.9316 129.582ZM93.7706 129.383C93.3328 129.306 92.9038 129.186 92.4899 129.024L92.8903 127.829C93.2907 127.948 93.6506 128.068 94.0511 128.148L93.7706 129.383ZM100.536 128.985L100.095 127.789C100.456 127.669 100.856 127.51 101.216 127.35L101.776 128.506C101.374 128.665 100.933 128.825 100.534 128.985H100.536ZM91.2492 128.506C90.8487 128.307 90.4489 128.107 90.0484 127.869L90.6888 126.792C91.0492 126.991 91.4091 127.191 91.7696 127.35L91.2492 128.506ZM102.938 127.829L102.257 126.753C102.606 126.55 102.941 126.324 103.258 126.075L104.058 127.072C103.695 127.311 103.333 127.589 102.935 127.829H102.938ZM88.9277 127.151C88.5672 126.872 88.2473 126.593 87.8869 126.274L88.7677 125.359C89.0556 125.633 89.3626 125.886 89.6864 126.117L88.9277 127.151ZM105.059 126.195L104.178 125.28C104.466 125.007 104.733 124.714 104.979 124.403L105.94 125.2C105.678 125.559 105.383 125.892 105.057 126.195H105.059ZM87.0066 125.317C86.7083 124.983 86.4404 124.623 86.2063 124.241L87.2471 123.524L87.9674 124.481L87.0066 125.317ZM106.778 124.12L105.737 123.402C105.975 123.08 106.176 122.733 106.337 122.366L107.458 122.964C107.255 123.363 107.028 123.749 106.778 124.12ZM85.4827 123.125C85.2828 122.727 85.0823 122.328 84.9223 121.93L86.1231 121.451C86.2852 121.81 86.4435 122.169 86.6435 122.527L85.4827 123.125ZM108.017 121.77L106.816 121.292C106.978 120.92 107.099 120.533 107.176 120.136L108.419 120.455C108.31 120.9 108.175 121.339 108.017 121.77ZM84.4819 120.654C84.362 120.215 84.282 119.777 84.2015 119.339L85.4443 119.14C85.5143 119.53 85.6079 119.916 85.7248 120.295L84.4819 120.654ZM108.699 119.179L107.456 118.98C107.536 118.581 107.536 118.183 107.576 117.784L108.857 117.824C108.819 118.302 108.779 118.738 108.699 119.179ZM84.0415 118.023V116.668L85.3222 116.747V117.943L84.0415 118.023ZM107.539 116.586C107.499 116.188 107.459 115.79 107.376 115.391L108.619 115.192C108.699 115.63 108.739 116.069 108.781 116.507L107.539 116.586ZM85.4427 115.552L84.1998 115.353C84.2798 114.915 84.362 114.476 84.4803 114.038L85.7232 114.357C85.592 114.746 85.4981 115.146 85.4427 115.552ZM107.138 114.237C107.029 113.857 106.895 113.484 106.738 113.121L107.898 112.643C108.069 113.059 108.216 113.485 108.339 113.918L107.138 114.237ZM86.0831 113.24L84.8823 112.762C85.0449 112.352 85.232 111.953 85.4427 111.566L86.5635 112.164C86.3794 112.512 86.2189 112.871 86.0831 113.24ZM106.217 112.044C106.017 111.686 105.817 111.367 105.577 111.008L106.618 110.291C106.858 110.65 107.098 111.048 107.338 111.447L106.217 112.044ZM87.2038 111.13L86.1631 110.412C86.403 110.054 86.6834 109.695 86.9634 109.336L87.9242 110.174C87.6406 110.457 87.3981 110.778 87.2038 111.128V111.13ZM104.857 110.054C104.576 109.734 104.296 109.456 104.016 109.176L104.897 108.262C105.217 108.581 105.537 108.899 105.815 109.218L104.857 110.054ZM88.725 109.296L87.8442 108.382C88.1646 108.063 88.5245 107.784 88.845 107.505L89.6053 108.501C89.3254 108.736 89.0449 109.016 88.725 109.294V109.296ZM103.096 108.419C102.778 108.171 102.444 107.945 102.095 107.742L102.735 106.666C103.124 106.895 103.498 107.148 103.856 107.423L103.096 108.419ZM90.6466 107.822L89.9663 106.745C90.3397 106.509 90.7274 106.296 91.127 106.108L91.6874 107.264C91.3279 107.425 90.98 107.611 90.6461 107.819L90.6466 107.822ZM101.054 107.184C100.69 107.014 100.316 106.867 99.9332 106.745L100.334 105.55C100.774 105.711 101.174 105.869 101.576 106.028L101.054 107.184ZM92.8082 106.825L92.4078 105.629C92.8234 105.473 93.2519 105.353 93.6885 105.27L93.9689 106.508C93.5726 106.576 93.1837 106.681 92.8076 106.823L92.8082 106.825ZM98.7724 106.466C98.372 106.386 97.9721 106.305 97.5717 106.267L97.6916 104.992C98.1321 105.032 98.5725 105.111 99.0123 105.191L98.7724 106.466ZM95.1697 106.267L95.0076 104.992C95.448 104.952 95.8884 104.912 96.3283 104.912V106.187C95.97 106.225 95.5696 106.225 95.1697 106.265V106.267Z" fill="#2F4F4F"/>
</g>
<path d="M100.018 117.318C100.018 119.001 100.018 120.686 100.018 122.369C100.018 123.145 99.8014 123.355 99.0287 123.356C97.2976 123.357 95.5666 123.357 93.8356 123.356C93.1071 123.356 92.8856 123.133 92.8834 122.392C92.8748 119.024 92.8693 115.657 92.8672 112.292C92.8672 111.409 93.0715 111.215 93.9609 111.215C95.6523 111.215 97.3436 111.215 99.0346 111.215C99.7998 111.215 100.026 111.431 100.03 112.206C100.039 113.91 100.03 115.613 100.03 117.318H100.015M99.6582 119.363C99.6582 118.313 99.6425 117.264 99.6663 116.216C99.6744 115.847 99.5615 115.745 99.1956 115.748C97.367 115.765 95.5378 115.769 93.7096 115.748C93.2914 115.743 93.2265 115.902 93.2292 116.266C93.2444 118.304 93.2444 120.343 93.2292 122.381C93.2255 122.837 93.3724 123.014 93.848 123.008C95.5772 122.988 97.3065 122.988 99.0357 123.008C99.4988 123.013 99.676 122.86 99.6652 122.392C99.6415 121.383 99.6582 120.374 99.6577 119.364M95.6469 114.767H96.3624C97.568 114.767 97.5599 114.767 97.474 113.577C97.4561 113.328 97.3924 113.23 97.1298 113.234C96.176 113.246 95.2211 113.243 94.2657 113.234C94.0274 113.234 93.9263 113.276 93.9085 113.553C93.8329 114.767 93.821 114.767 95.0503 114.767H95.6448" fill="#F6F2ED"/>
<path d="M94.4058 118.812C94.1188 118.746 93.9157 118.608 93.9243 118.293C93.9187 118.223 93.9292 118.152 93.9551 118.086C93.9809 118.021 94.0214 117.962 94.0734 117.914C94.1255 117.866 94.1878 117.831 94.2555 117.811C94.3233 117.791 94.3948 117.786 94.4647 117.797C94.5304 117.8 94.5949 117.816 94.6539 117.845C94.7129 117.873 94.7651 117.914 94.807 117.965C94.8489 118.015 94.8796 118.074 94.8971 118.137C94.9146 118.2 94.9184 118.266 94.9084 118.331C94.8884 118.645 94.6803 118.768 94.4058 118.812Z" fill="#F6F2ED"/>
<path d="M98.9683 118.485C98.9618 118.626 98.7662 118.796 98.4819 118.797C98.4166 118.803 98.3509 118.794 98.2893 118.771C98.2277 118.749 98.1718 118.713 98.1252 118.667C98.0786 118.621 98.0425 118.566 98.0194 118.505C97.9963 118.444 97.9867 118.378 97.9913 118.313C97.9826 118.243 97.9902 118.172 98.0133 118.106C98.0364 118.039 98.0746 117.978 98.1248 117.929C98.175 117.879 98.2359 117.841 98.303 117.819C98.37 117.796 98.4414 117.789 98.5117 117.798C98.7905 117.812 98.9834 117.995 98.9683 118.485Z" fill="#F6F2ED"/>
<path d="M98.5038 120.315C98.2211 120.283 98.0039 120.167 97.9909 119.85C97.979 119.781 97.9834 119.71 98.0036 119.642C98.0238 119.575 98.0593 119.513 98.1074 119.462C98.1555 119.41 98.2149 119.371 98.2809 119.346C98.3469 119.321 98.4178 119.311 98.4881 119.318C98.5533 119.313 98.619 119.322 98.6804 119.344C98.7419 119.367 98.7977 119.402 98.844 119.448C98.8903 119.494 98.9259 119.55 98.9484 119.611C98.971 119.672 98.9798 119.738 98.9744 119.803C98.9842 120.118 98.7966 120.262 98.5065 120.314" fill="#F6F2ED"/>
<path d="M94.9135 116.785C94.918 116.849 94.9087 116.915 94.8862 116.976C94.8636 117.037 94.8284 117.092 94.7828 117.139C94.7372 117.185 94.6823 117.222 94.6215 117.246C94.5608 117.27 94.4957 117.281 94.4304 117.278C94.3654 117.286 94.2994 117.28 94.237 117.259C94.1747 117.239 94.1175 117.206 94.0696 117.161C94.0216 117.117 93.984 117.062 93.9595 117.002C93.9349 116.941 93.9239 116.876 93.9273 116.811C93.9159 116.741 93.921 116.67 93.9421 116.603C93.9631 116.536 93.9997 116.474 94.0488 116.424C94.0979 116.373 94.1582 116.334 94.225 116.311C94.2917 116.288 94.363 116.28 94.4331 116.289C94.4985 116.286 94.5637 116.297 94.6244 116.321C94.6852 116.346 94.7401 116.382 94.7855 116.429C94.831 116.476 94.8659 116.532 94.8881 116.593C94.9102 116.654 94.9185 116.72 94.9135 116.785Z" fill="#F6F2ED"/>
<path d="M96.9443 119.842C96.9456 119.907 96.9332 119.971 96.908 120.03C96.8827 120.089 96.8452 120.143 96.7979 120.186C96.7505 120.23 96.6945 120.264 96.6333 120.284C96.5721 120.305 96.5072 120.313 96.4428 120.307C96.3775 120.313 96.3116 120.304 96.2499 120.282C96.1881 120.26 96.1321 120.224 96.0857 120.178C96.0393 120.132 96.0036 120.076 95.9813 120.015C95.959 119.953 95.9505 119.888 95.9565 119.823C95.9479 119.753 95.9558 119.682 95.9796 119.615C96.0033 119.549 96.0423 119.489 96.0934 119.44C96.1445 119.391 96.2062 119.355 96.2738 119.334C96.3414 119.313 96.413 119.309 96.4828 119.32C96.7892 119.336 96.9346 119.535 96.9422 119.844" fill="#F6F2ED"/>
<path d="M94.3736 119.305C94.6978 119.333 94.8918 119.474 94.908 119.782C94.919 119.852 94.9137 119.923 94.8923 119.99C94.871 120.057 94.8343 120.118 94.7852 120.169C94.736 120.219 94.6758 120.258 94.6091 120.281C94.5425 120.305 94.4713 120.312 94.4011 120.304C94.3359 120.308 94.2704 120.299 94.2093 120.276C94.1482 120.252 94.0929 120.216 94.0475 120.169C94.0021 120.122 93.9677 120.066 93.9466 120.004C93.9255 119.943 93.9183 119.877 93.9256 119.812C93.9193 119.687 93.9625 119.563 94.046 119.469C94.1296 119.374 94.2475 119.315 94.3736 119.305Z" fill="#F6F2ED"/>
<path d="M96.4733 117.287C96.4087 117.291 96.344 117.282 96.2829 117.26C96.2219 117.239 96.1658 117.206 96.1179 117.162C96.0701 117.119 96.0315 117.067 96.0045 117.008C95.9774 116.949 95.9624 116.886 95.9605 116.822C95.9483 116.758 95.9503 116.692 95.9666 116.629C95.9828 116.566 96.0128 116.507 96.0544 116.456C96.0961 116.406 96.1483 116.366 96.2074 116.338C96.2666 116.31 96.3311 116.295 96.3966 116.295C96.4656 116.28 96.5371 116.282 96.6054 116.299C96.6737 116.317 96.7369 116.35 96.7899 116.397C96.843 116.443 96.8845 116.501 96.911 116.566C96.9376 116.631 96.9485 116.702 96.9429 116.772C96.9476 116.837 96.939 116.902 96.9177 116.963C96.8963 117.025 96.8626 117.081 96.8186 117.129C96.7747 117.178 96.7214 117.216 96.6619 117.243C96.6024 117.27 96.5386 117.285 96.4733 117.287Z" fill="#F6F2ED"/>
<path d="M98.4818 116.28C98.5466 116.278 98.6111 116.289 98.6714 116.312C98.7318 116.336 98.7866 116.371 98.8327 116.416C98.8788 116.462 98.9151 116.516 98.9394 116.576C98.9637 116.636 98.9755 116.7 98.9741 116.764C98.9779 116.83 98.9682 116.897 98.9456 116.959C98.923 117.021 98.8879 117.078 98.8424 117.127C98.797 117.175 98.7422 117.214 98.6813 117.241C98.6204 117.268 98.5546 117.282 98.488 117.283C98.4214 117.284 98.3554 117.271 98.2938 117.246C98.2323 117.22 98.1765 117.183 98.1299 117.136C98.0834 117.088 98.0469 117.032 98.0228 116.97C97.9986 116.908 97.9873 116.842 97.9895 116.776C97.9895 116.467 98.1803 116.317 98.4818 116.282" fill="#F6F2ED"/>
<path d="M96.448 117.784C96.7284 117.838 96.9343 117.967 96.9424 118.279C96.945 118.345 96.9344 118.411 96.911 118.472C96.8877 118.534 96.8521 118.59 96.8065 118.638C96.7608 118.685 96.7061 118.724 96.6454 118.75C96.5847 118.776 96.5193 118.79 96.4532 118.79C96.3871 118.791 96.3215 118.778 96.2604 118.753C96.1994 118.727 96.144 118.69 96.0976 118.643C96.0513 118.596 96.0149 118.541 95.9906 118.479C95.9663 118.418 95.9546 118.353 95.9562 118.287C95.9632 117.974 96.1643 117.839 96.448 117.784Z" fill="#F6F2ED"/>
<path d="M96.4459 120.84C96.5121 120.839 96.578 120.851 96.6394 120.876C96.7009 120.901 96.7566 120.937 96.8034 120.984C96.8502 121.031 96.887 121.087 96.9116 121.148C96.9362 121.209 96.9481 121.275 96.9466 121.341C96.9451 121.407 96.9303 121.472 96.9029 121.532C96.8755 121.592 96.8363 121.646 96.7874 121.691C96.7386 121.735 96.6812 121.769 96.6187 121.791C96.5562 121.813 96.4899 121.823 96.4237 121.818C96.3586 121.822 96.2934 121.812 96.2328 121.788C96.1723 121.764 96.1178 121.726 96.0734 121.679C96.029 121.631 95.9957 121.574 95.9759 121.512C95.9561 121.451 95.9503 121.385 95.959 121.321C95.9546 121.256 95.9642 121.191 95.9872 121.131C96.0101 121.07 96.0459 121.015 96.092 120.97C96.1381 120.924 96.1935 120.889 96.2545 120.867C96.3155 120.844 96.3811 120.835 96.4459 120.84Z" fill="#F6F2ED"/>
<path d="M98.9808 121.325C98.9462 121.648 98.7862 121.822 98.4788 121.817C98.4087 121.824 98.3379 121.815 98.2721 121.79C98.2062 121.765 98.1473 121.725 98.0999 121.673C98.0525 121.621 98.0181 121.559 97.9994 121.491C97.9808 121.424 97.9784 121.353 97.9924 121.284C97.9917 121.219 98.0053 121.155 98.0324 121.096C98.0595 121.037 98.0993 120.985 98.1491 120.943C98.1988 120.901 98.2572 120.871 98.3201 120.854C98.383 120.838 98.4488 120.835 98.5128 120.846C98.5755 120.846 98.6376 120.858 98.6955 120.882C98.7533 120.906 98.8056 120.941 98.8492 120.986C98.8928 121.031 98.9267 121.084 98.9488 121.142C98.971 121.201 98.981 121.263 98.9781 121.325" fill="#F6F2ED"/>
<path d="M94.4255 120.841C94.4896 120.836 94.5541 120.845 94.6145 120.867C94.6749 120.889 94.7298 120.924 94.7756 120.969C94.8215 121.014 94.8571 121.068 94.8801 121.128C94.9032 121.187 94.9131 121.251 94.9092 121.315C94.9184 121.379 94.9133 121.445 94.8942 121.507C94.8752 121.568 94.8426 121.625 94.7989 121.673C94.7551 121.721 94.7013 121.759 94.6413 121.784C94.5812 121.808 94.5164 121.82 94.4515 121.817C94.3823 121.829 94.3112 121.824 94.2441 121.803C94.177 121.783 94.1156 121.747 94.065 121.698C94.0144 121.65 93.976 121.59 93.9528 121.524C93.9297 121.458 93.9224 121.388 93.9316 121.318C93.9349 121.011 94.117 120.86 94.4255 120.841Z" fill="#F6F2ED"/>
<path d="M27.3096 40.6025C32.7888 40.6025 37.2305 36.1796 37.2305 30.7237C37.2305 25.2678 32.7888 20.845 27.3096 20.845C21.8304 20.845 17.3887 25.2678 17.3887 30.7237C17.3887 36.1796 21.8304 40.6025 27.3096 40.6025Z" fill="#596F66"/>
<g opacity="0.696">
<path d="M27.1743 44.4293C26.6917 44.4293 26.2092 44.3857 25.7271 44.3422L25.8584 42.9431C26.2972 42.9867 26.7355 43.0303 27.1743 43.0303H27.3034V44.4293H27.1743ZM28.7954 44.3422L28.6198 42.9431C29.0586 42.8995 29.4969 42.8124 29.9356 42.7247L30.2426 44.0785L28.7954 44.3422ZM24.234 44.1237C23.7538 44.0394 23.2832 43.9078 22.829 43.7309L23.2678 42.4206C23.7066 42.5514 24.1011 42.6827 24.5399 42.7699L24.234 44.1237ZM31.6465 43.6868L31.1639 42.3765C31.5584 42.2452 31.9972 42.0709 32.3922 41.896L33.0061 43.1627C32.5689 43.3392 32.0864 43.5146 31.6476 43.6884L31.6465 43.6868ZM21.471 43.1627C21.0323 42.9442 20.594 42.7257 20.1552 42.4632L20.8577 41.2842C21.2522 41.5027 21.6472 41.7211 22.0417 41.8955L21.471 43.1627ZM34.2782 42.4201L33.5325 41.2412C33.9146 41.019 34.281 40.7709 34.6289 40.4986L35.5059 41.5904C35.1125 41.854 34.7181 42.1597 34.2793 42.4217L34.2782 42.4201ZM18.9275 41.6792C18.533 41.3735 18.1817 41.0679 17.7872 40.7181L18.7524 39.7135C19.0686 40.0135 19.4057 40.2907 19.7613 40.5433L18.9275 41.6792ZM36.6029 40.631L35.6378 39.6264C35.9527 39.3272 36.2458 39.006 36.5148 38.6653L37.5675 39.5386C37.2827 39.933 36.96 40.2989 36.604 40.631H36.6029ZM16.8248 39.6699C16.4979 39.3037 16.2044 38.9091 15.9478 38.491L17.0864 37.7032L17.8759 38.7514L16.8248 39.6699ZM38.4894 38.3602L37.3492 37.5741C37.6101 37.2212 37.8307 36.8403 38.0068 36.4387L39.2351 37.0936C39.0127 37.5305 38.7637 37.9535 38.4894 38.3602ZM15.1566 37.2685C14.9372 36.8315 14.7179 36.3951 14.5428 35.9582L15.8586 35.4341C16.0342 35.8269 16.2093 36.2203 16.4287 36.6131L15.1566 37.2685ZM39.8523 35.7833L38.5364 35.2592C38.7138 34.8525 38.846 34.4278 38.9309 33.9926L40.2905 34.3418C40.1699 34.8299 40.0226 35.3111 39.8496 35.7833H39.8523ZM14.0602 34.5608C13.9289 34.0803 13.8408 33.5998 13.7533 33.1198L15.1129 32.9013C15.1894 33.3294 15.2919 33.7523 15.4198 34.168L14.0602 34.5608ZM40.5931 32.9465L39.2335 32.7281C39.3211 32.2911 39.3211 31.8548 39.3648 31.4178L40.7698 31.4614C40.7266 31.9839 40.6828 32.4644 40.5969 32.9449L40.5931 32.9465ZM13.5776 31.6767V30.1915L14.9826 30.2787V31.5889L13.5776 31.6767ZM39.3232 30.1044C39.2795 29.6674 39.2357 29.231 39.1476 28.7941L40.5072 28.5757C40.5948 29.0562 40.6385 29.5367 40.6828 30.0166L39.3232 30.1044ZM15.114 28.969L13.7543 28.7505C13.8419 28.27 13.93 27.7895 14.0613 27.3095L15.4209 27.6587C15.2767 28.0853 15.1736 28.5246 15.1129 28.9706L15.114 28.969ZM38.8861 27.528C38.7664 27.1113 38.6198 26.7028 38.4473 26.3049L39.7193 25.7808C39.9065 26.2378 40.0676 26.7048 40.2019 27.1798L38.8861 27.528ZM15.8143 26.4373L14.4963 25.9132C14.6743 25.4646 14.8793 25.027 15.1102 24.603L16.3385 25.2578C16.1375 25.6389 15.9624 26.0329 15.8143 26.4373ZM37.8755 25.1271C37.6561 24.7342 37.4367 24.3845 37.173 23.9917L38.3132 23.2055C38.5764 23.5983 38.8396 24.0353 39.1028 24.4722L37.8755 25.1271ZM17.042 24.1224L15.9013 23.3363C16.1645 22.9435 16.4714 22.5501 16.7783 22.1573L17.831 23.0721C17.5202 23.384 17.2542 23.7371 17.042 24.1224ZM36.3841 22.9435C36.0771 22.5943 35.7702 22.2886 35.4654 21.9825L36.4305 20.9779C36.7813 21.3271 37.133 21.6774 37.4394 22.0261L36.3841 22.9435ZM18.7113 22.1138L17.7462 21.1091C18.0969 20.7599 18.4919 20.4543 18.8426 20.1481L19.6759 21.2399C19.3673 21.5025 19.0598 21.8081 18.7113 22.1138ZM34.4571 21.1527C34.1091 20.8804 33.7428 20.6323 33.3606 20.4102L34.0631 19.2312C34.4893 19.4824 34.8995 19.7595 35.2914 20.061L34.4571 21.1527ZM20.8166 20.4979L20.0709 19.3189C20.4801 19.06 20.9049 18.8264 21.343 18.6194L21.9536 19.8866C21.5603 20.0641 21.1797 20.2684 20.8145 20.4979H20.8166ZM32.2188 19.7984C31.8202 19.612 31.4099 19.4515 30.9905 19.3179L31.4293 18.0076C31.9118 18.1825 32.3479 18.3568 32.7889 18.5317L32.2188 19.7984ZM23.183 19.4083L22.7442 18.098C23.2002 17.9268 23.6703 17.7953 24.1492 17.7052L24.4561 19.059C24.0215 19.1345 23.5951 19.2515 23.183 19.4083ZM29.7179 19.0155C29.2791 18.9283 28.8408 18.8406 28.402 18.797L28.5333 17.398C29.0159 17.4415 29.4985 17.5287 29.9805 17.6164L29.7179 19.0155ZM25.7731 18.797L25.5974 17.398C26.08 17.3544 26.5626 17.3108 27.0446 17.3108V18.7098C26.6479 18.7507 26.2092 18.7507 25.7704 18.7948L25.7731 18.797Z" fill="#2F4F4F"/>
</g>
<path d="M24.793 23.6736C24.8 23.5791 24.8338 23.4885 24.8904 23.4123C24.947 23.3361 25.0242 23.2775 25.1129 23.2432C25.3877 23.1118 25.6901 23.0477 25.9948 23.0564H28.353C28.658 23.0486 28.9604 23.1135 29.2349 23.2459C29.3237 23.2802 29.4008 23.3388 29.4574 23.415C29.5141 23.4912 29.5478 23.5818 29.5549 23.6763V36.6163C29.5553 36.7416 29.5237 36.8649 29.463 36.9747C29.4023 37.0845 29.3145 37.177 29.2079 37.2437C28.9527 37.4049 28.6552 37.4872 28.353 37.4804H25.9948C25.6926 37.4872 25.3952 37.4049 25.1399 37.2437C25.0333 37.177 24.9455 37.0845 24.8848 36.9747C24.8241 36.8649 24.7925 36.7416 24.793 36.6163V23.6736Z" fill="#2F4F4F" stroke="#F6F2ED"/>
<path d="M28.5505 32.5403H25.794C25.5701 32.5403 25.3887 32.721 25.3887 32.9438V35.8415C25.3887 36.0643 25.5701 36.245 25.794 36.245H28.5505C28.7743 36.245 28.9558 36.0643 28.9558 35.8415V32.9438C28.9558 32.721 28.7743 32.5403 28.5505 32.5403Z" fill="#F6F2ED"/>
<path d="M28.2033 30.7489C28.2033 30.2179 27.771 29.7874 27.2376 29.7874C26.7043 29.7874 26.272 30.2179 26.272 30.7489C26.272 31.28 26.7043 31.7105 27.2376 31.7105C27.771 31.7105 28.2033 31.28 28.2033 30.7489Z" fill="#F6F2ED"/>
<path d="M28.1071 24.6589H26.239C25.8659 24.6589 25.5635 24.9601 25.5635 25.3315V28.4734C25.5635 28.8449 25.8659 29.146 26.239 29.146H28.1071C28.4801 29.146 28.7826 28.8449 28.7826 28.4734V25.3315C28.7826 24.9601 28.4801 24.6589 28.1071 24.6589Z" fill="#F6F2ED"/>
<path d="M27.0752 23.8469H27.3232" stroke="#F6F2ED" stroke-linecap="round" stroke-linejoin="round"/>
<path d="M129.624 85.9417C133.885 85.9417 137.34 82.5017 137.34 78.2583C137.34 74.0149 133.885 70.575 129.624 70.575C125.362 70.575 121.908 74.0149 121.908 78.2583C121.908 82.5017 125.362 85.9417 129.624 85.9417Z" fill="#596F66"/>
<g opacity="0.696">
<path d="M129.519 88.919C129.144 88.919 128.769 88.8851 128.394 88.8512L128.496 87.7643C128.837 87.7982 129.178 87.8321 129.519 87.8321H129.621V88.919H129.519ZM130.781 88.8512L130.645 87.7643C130.986 87.7304 131.327 87.6626 131.668 87.5942L131.907 88.6473L130.781 88.8512ZM127.234 88.6812C126.861 88.6155 126.495 88.5131 126.142 88.3755L126.483 87.3564C126.824 87.4581 127.132 87.5603 127.473 87.6281L127.234 88.6812ZM132.999 88.3416L132.624 87.3225C132.931 87.2208 133.272 87.0847 133.579 86.9491L134.057 87.9343C133.715 88.0704 133.34 88.2055 132.999 88.3416ZM125.085 87.9338C124.744 87.7637 124.402 87.5942 124.061 87.3903L124.607 86.4755C124.914 86.6456 125.221 86.8151 125.526 86.9512L125.085 87.9338ZM135.048 87.3585L134.468 86.4438C134.764 86.2698 135.048 86.0756 135.318 85.8627L136.001 86.7118C135.694 86.9157 135.387 87.1535 135.048 87.3585ZM123.105 86.7796C122.798 86.5417 122.525 86.3039 122.219 86.0322L122.969 85.2509C123.215 85.4843 123.477 85.7 123.754 85.8966L123.105 86.7796ZM136.853 85.9644L136.102 85.1831C136.347 84.9504 136.575 84.7006 136.785 84.4357L137.603 85.1153C137.382 85.4219 137.13 85.7063 136.853 85.9644ZM121.468 85.217C121.214 84.9328 120.985 84.6267 120.785 84.3022L121.672 83.6909L122.286 84.5061L121.468 85.217ZM138.319 84.1978L137.433 83.5866C137.636 83.3121 137.807 83.0159 137.944 82.7036L138.9 83.2131C138.727 83.553 138.533 83.882 138.32 84.1984L138.319 84.1978ZM120.173 83.3487C120.002 83.0092 119.832 82.6691 119.695 82.3296L120.718 81.9217C120.855 82.2274 120.991 82.533 121.162 82.8365L120.173 83.3487ZM139.378 82.194L138.354 81.7867C138.492 81.4703 138.595 81.14 138.661 80.8014L139.719 81.0731C139.625 81.4523 139.511 81.8261 139.377 82.1929L139.378 82.194ZM119.319 81.2432C119.217 80.8698 119.149 80.4958 119.081 80.1223L120.138 79.9523C120.198 80.2852 120.277 80.6143 120.377 80.9375L119.319 81.2432ZM139.957 79.9867L138.9 79.8167C138.968 79.4772 138.968 79.1371 139.002 78.7976L140.093 78.8315C140.06 79.2388 140.026 79.6101 139.957 79.9867ZM118.944 79.001V77.8462L120.036 77.914V78.9332L118.944 79.001ZM138.968 77.7806C138.934 77.4411 138.9 77.101 138.832 76.7614L139.89 76.5914C139.958 76.9649 139.992 77.3388 140.026 77.7123L138.968 77.7806ZM120.138 76.8954L119.081 76.7254C119.149 76.352 119.217 75.978 119.319 75.6046L120.377 75.8763C120.265 76.2077 120.185 76.549 120.138 76.8954ZM138.627 75.7746C138.534 75.4505 138.42 75.1327 138.286 74.8233L139.275 74.4154C139.421 74.7704 139.546 75.1333 139.65 75.5023L138.627 75.7746ZM120.686 74.9255L119.663 74.5176C119.801 74.1687 119.961 73.8283 120.14 73.4985L121.096 74.0081C120.938 74.3042 120.8 74.6105 120.684 74.925L120.686 74.9255ZM137.843 73.9064C137.672 73.6007 137.502 73.329 137.297 73.0234L138.184 72.4121C138.388 72.7177 138.593 73.0578 138.798 73.3973L137.843 73.9064ZM121.639 73.1251L120.752 72.5138C120.957 72.2082 121.196 71.9025 121.435 71.599L122.254 72.3125C122.012 72.5536 121.805 72.8271 121.639 73.1251ZM136.682 72.2103C136.444 71.9386 136.205 71.7007 135.966 71.4629L136.717 70.6816C136.989 70.9533 137.262 71.2251 137.501 71.4968L136.682 72.2103ZM122.935 71.5646L122.187 70.7811C122.46 70.5121 122.766 70.2716 123.039 70.0337L123.688 70.8828C123.447 71.0868 123.209 71.3235 122.936 71.5625L122.935 71.5646ZM135.181 70.8172C134.911 70.6055 134.626 70.4126 134.329 70.2398L134.874 69.3251C135.206 69.5206 135.525 69.7362 135.83 69.9708L135.181 70.8172ZM124.572 70.3076L123.993 69.3864C124.311 69.1852 124.642 69.0037 124.983 68.843L125.46 69.8282C125.154 69.9668 124.857 70.1263 124.573 70.3055L124.572 70.3076ZM133.442 69.7642C133.132 69.6179 132.813 69.4917 132.487 69.3864L132.828 68.3673C133.203 68.5029 133.544 68.639 133.885 68.7752L133.442 69.7642ZM126.417 69.4585L126.076 68.4394C126.43 68.3062 126.795 68.2039 127.167 68.1338L127.406 69.1868C127.068 69.2448 126.736 69.3351 126.415 69.4564L126.417 69.4585ZM131.5 69.1529C131.159 69.0851 130.817 69.0168 130.476 68.9829L130.578 67.8959C130.953 67.9298 131.329 67.9976 131.704 68.066L131.5 69.1529ZM128.43 68.9829L128.293 67.8959C128.668 67.862 129.044 67.8281 129.419 67.8281V68.9151C129.11 68.9468 128.769 68.9468 128.428 68.9807L128.43 68.9829Z" fill="#2F4F4F"/>
</g>
<path d="M125.514 79.9281C125.518 79.6152 125.605 79.3089 125.766 79.0403C126.345 78.0394 126.922 77.0379 127.499 76.0356C127.977 75.2084 128.453 74.3812 128.927 73.5539C128.971 73.4597 129.041 73.3801 129.129 73.3251C129.218 73.27 129.32 73.2418 129.424 73.244C129.509 73.2408 129.593 73.26 129.668 73.2998C129.743 73.3396 129.806 73.3986 129.85 73.4705C129.994 73.6931 130.126 73.9228 130.245 74.1588C130.31 74.2885 130.34 74.4328 130.333 74.5776C130.325 74.7223 130.28 74.8626 130.201 74.9847L129.015 77.0235L126.501 81.3551C126.482 81.3885 126.464 81.4224 126.442 81.4536C126.419 81.4935 126.386 81.5266 126.346 81.5496C126.305 81.5727 126.26 81.5848 126.214 81.5848C126.167 81.5848 126.122 81.5727 126.082 81.5496C126.042 81.5266 126.009 81.4935 125.985 81.4536C125.897 81.3109 125.822 81.1601 125.762 81.0032C125.619 80.6613 125.535 80.2978 125.514 79.9281Z" fill="#F6F2ED"/>
<path d="M131.081 82.3065C131.084 82.549 130.993 82.7833 130.826 82.9602C130.741 83.0517 130.651 83.1383 130.561 83.225C130.43 83.3655 130.256 83.4588 130.067 83.4903C129.877 83.5217 129.682 83.4895 129.513 83.3988C128.986 83.1529 128.46 82.9043 127.935 82.6567C127.83 82.6078 127.725 82.561 127.623 82.5077C127.515 82.4557 127.419 82.3822 127.341 82.2917C127.264 82.2012 127.205 82.0957 127.17 81.9817C127.135 81.8678 127.124 81.7479 127.138 81.6295C127.152 81.5111 127.19 81.3968 127.25 81.2938C127.482 80.8798 127.72 80.4692 127.964 80.0621C128.017 79.9658 128.093 79.8834 128.184 79.8218C128.275 79.7602 128.38 79.7211 128.489 79.7078C128.599 79.6944 128.71 79.7072 128.813 79.745C128.917 79.7829 129.01 79.8447 129.084 79.9254C129.652 80.4856 130.219 81.0495 130.782 81.6112C130.876 81.7011 130.951 81.8089 131.003 81.9283C131.054 82.0477 131.08 82.1761 131.08 82.3059" fill="#F6F2ED"/>
<path d="M131.414 79.1312C131.8 79.1312 132.185 79.1258 132.571 79.1312C132.738 79.1299 132.903 79.1723 133.049 79.254C133.195 79.3357 133.317 79.454 133.403 79.5971C133.495 79.7347 133.537 79.8995 133.521 80.0638C133.505 80.2282 133.432 80.382 133.316 80.4995C133.041 80.782 132.761 81.0607 132.475 81.3314C132.4 81.4053 132.311 81.4633 132.213 81.5021C132.115 81.5409 132.01 81.5596 131.905 81.5572C131.799 81.5547 131.695 81.5311 131.599 81.4878C131.503 81.4445 131.417 81.3823 131.346 81.305C131.005 80.9725 130.67 80.634 130.332 80.2983C130.196 80.1627 130.057 80.0292 129.923 79.8904C129.858 79.8277 129.813 79.7464 129.795 79.6576C129.777 79.5687 129.787 79.4765 129.823 79.3934C129.86 79.3103 129.921 79.2404 129.998 79.193C130.076 79.1456 130.166 79.1231 130.257 79.1285C130.643 79.1285 131.028 79.1285 131.414 79.1285" fill="#F6F2ED"/>
<path d="M130.743 78.5226C130.472 78.5226 130.202 78.5253 129.932 78.5226C129.779 78.5249 129.63 78.4699 129.515 78.3684C129.4 78.2669 129.328 78.1263 129.312 77.9743C129.297 77.8347 129.329 77.6942 129.405 77.5755C129.605 77.2315 129.805 76.8871 130.004 76.5424C130.071 76.4262 130.136 76.3089 130.207 76.1943C130.268 76.0861 130.358 75.9962 130.465 75.9338C130.573 75.8713 130.696 75.8385 130.821 75.8389C130.945 75.8392 131.068 75.8726 131.175 75.9356C131.283 75.9986 131.371 76.089 131.432 76.1975C131.681 76.6133 131.924 77.0322 132.161 77.4545C132.228 77.5624 132.265 77.6866 132.266 77.8136C132.268 77.9407 132.235 78.0658 132.171 78.1756C132.107 78.2854 132.014 78.3758 131.902 78.4369C131.79 78.498 131.663 78.5276 131.536 78.5226C131.271 78.5226 131.006 78.5226 130.741 78.5226" fill="#F6F2ED"/>
<path d="M46.7768 124.958C50.4907 124.958 53.5014 121.96 53.5014 118.262C53.5014 114.564 50.4907 111.566 46.7768 111.566C43.0629 111.566 40.0522 114.564 40.0522 118.262C40.0522 121.96 43.0629 124.958 46.7768 124.958Z" fill="#596F66"/>
<g opacity="0.696">
<path d="M46.686 127.553C46.3591 127.553 46.0321 127.524 45.7052 127.494L45.7944 126.547C46.0916 126.577 46.3888 126.606 46.686 126.606H46.7752V127.553H46.686ZM47.7862 127.494L47.6673 126.547C47.9646 126.517 48.2618 126.458 48.559 126.399L48.767 127.316L47.7862 127.494ZM44.6941 127.346C44.369 127.288 44.0504 127.198 43.7431 127.077L44.0403 126.189C44.3375 126.278 44.605 126.367 44.9049 126.426L44.6941 127.346ZM49.7197 127.05L49.3928 126.162C49.663 126.073 49.9575 125.955 50.225 125.837L50.6411 126.698C50.3423 126.813 50.0153 126.932 49.7181 127.05H49.7197ZM42.8228 126.695C42.5256 126.547 42.2284 126.399 41.9311 126.221L42.4067 125.422C42.6769 125.57 42.9417 125.718 43.2092 125.837L42.8228 126.695ZM51.5035 126.192L50.9983 125.393C51.2573 125.242 51.5055 125.074 51.7413 124.89L52.3357 125.629C52.0666 125.807 51.7991 126.012 51.5019 126.192H51.5035ZM41.0968 125.689C40.8266 125.482 40.5915 125.275 40.324 125.038L40.9779 124.357C41.1922 124.561 41.4206 124.749 41.6615 124.92L41.0968 125.689ZM53.0777 124.979L52.4238 124.298C52.6372 124.096 52.8359 123.878 53.0182 123.647L53.7315 124.239C53.5382 124.506 53.3192 124.754 53.0777 124.979ZM39.6696 124.328C39.4481 124.08 39.2491 123.812 39.0752 123.529L39.848 122.996L40.3829 123.706L39.6696 124.328ZM54.3557 123.44L53.5829 122.907C53.7598 122.668 53.9093 122.41 54.0288 122.138L54.861 122.582C54.7102 122.877 54.5414 123.163 54.3557 123.438V123.44ZM38.5402 122.699C38.3916 122.403 38.243 122.107 38.1241 121.811L39.0158 121.456C39.1347 121.725 39.2535 121.988 39.4021 122.255L38.5402 122.699ZM55.2776 121.692L54.386 121.337C54.5073 121.06 54.5979 120.772 54.6561 120.476L55.5775 120.712C55.4955 121.044 55.3953 121.371 55.2776 121.692ZM37.7967 120.863C37.7075 120.538 37.6481 120.212 37.5886 119.886L38.51 119.739C38.5617 120.029 38.6312 120.317 38.718 120.599L37.7967 120.863ZM55.7829 119.77L54.8615 119.622C54.9209 119.326 54.9209 119.03 54.9507 118.734L55.9017 118.764C55.872 119.116 55.8428 119.442 55.7829 119.77ZM37.4697 118.909V117.903L38.4208 117.962V118.85L37.4697 118.909ZM54.9209 117.843C54.8912 117.547 54.8615 117.251 54.8021 116.956L55.7234 116.808C55.7829 117.133 55.8126 117.459 55.8423 117.785L54.9209 117.843ZM38.5105 117.074L37.5892 116.926C37.6486 116.6 37.708 116.275 37.7972 115.949L38.7186 116.186C38.6211 116.474 38.5515 116.772 38.5105 117.074ZM54.6237 116.097C54.5426 115.815 54.4434 115.538 54.3265 115.269L55.1911 114.913C55.3179 115.223 55.427 115.539 55.5181 115.861L54.6237 116.097ZM38.986 115.358L38.0944 115.003C38.2151 114.699 38.354 114.402 38.5105 114.115L39.3427 114.559C39.206 114.817 39.0869 115.084 38.986 115.358ZM53.9401 114.47C53.7915 114.201 53.6429 113.967 53.4646 113.701L54.2373 113.168C54.4157 113.437 54.594 113.73 54.7723 114.029L53.9401 114.47ZM39.8182 113.788L39.0455 113.255C39.2238 112.986 39.4319 112.722 39.6399 112.456L40.3532 113.078C40.1425 113.288 39.9624 113.527 39.8182 113.788ZM52.9291 112.99C52.721 112.754 52.513 112.546 52.3049 112.339L52.9588 111.659C53.1966 111.895 53.4343 112.132 53.6424 112.369L52.9291 112.99ZM40.9482 112.428L40.2943 111.747C40.5321 111.511 40.7996 111.303 41.0374 111.096L41.6021 111.836C41.394 112.012 41.186 112.219 40.9482 112.426V112.428ZM51.6208 111.777C51.385 111.592 51.1368 111.424 50.8778 111.274L51.3533 110.475C51.642 110.645 51.92 110.833 52.1855 111.037L51.6208 111.777ZM42.3748 111.333L41.8695 110.534C42.1477 110.359 42.4365 110.2 42.7342 110.06L43.1503 110.921C42.8826 111.04 42.6236 111.177 42.3748 111.331V111.333ZM50.1023 110.86C49.8323 110.733 49.5543 110.625 49.2701 110.534L49.5673 109.646C49.8943 109.765 50.1915 109.883 50.4887 110.001L50.1023 110.86ZM43.9781 110.59L43.6842 109.703C43.9928 109.586 44.311 109.496 44.6352 109.434L44.8433 110.351C44.5486 110.403 44.2596 110.484 43.9803 110.591L43.9781 110.59ZM48.4093 110.321C48.1121 110.262 47.8149 110.203 47.5177 110.173L47.6068 109.226C47.9338 109.256 48.2607 109.315 48.5876 109.374L48.4093 110.321ZM45.7338 110.173L45.615 109.226C45.9419 109.197 46.2688 109.167 46.5958 109.167V110.114C46.3288 110.147 46.0316 110.147 45.7344 110.177L45.7338 110.173Z" fill="#2F4F4F"/>
</g>
<path d="M46.4049 120.106L44.9167 118.632H42.0132L46.4049 122.99V120.106Z" fill="#F6F2ED"/>
<path d="M46.9497 123.014L51.3393 118.632H48.4422L46.9497 120.12V123.014Z" fill="#F6F2ED"/>
<path d="M46.9497 113.712V116.597L48.452 118.09H51.3582L46.9497 113.712Z" fill="#F6F2ED"/>
<path d="M46.4006 113.71L42.0132 118.09H44.9102L46.4006 116.601V113.71Z" fill="#F6F2ED"/>
<g opacity="0.4">
<path d="M71.8433 21.8835V39.1023" stroke="#2F4F4F" stroke-width="2" stroke-dasharray="2 2"/>
<path d="M84.272 49.326L108.589 36.95" stroke="#2F4F4F" stroke-width="2" stroke-dasharray="2 2"/>
<path d="M85.8931 63.8545L115.074 76.2305" stroke="#2F4F4F" stroke-width="2" stroke-dasharray="2 2"/>
<path d="M81.5703 92.9111L90.2165 103.135" stroke="#2F4F4F" stroke-width="2" stroke-dasharray="2 2"/>
<path d="M63.7374 91.835L52.9297 107.978" stroke="#2F4F4F" stroke-width="2" stroke-dasharray="2 2"/>
<path d="M28.6123 75.1543L56.172 63.3164" stroke="#2F4F4F" stroke-width="2" stroke-dasharray="2 2"/>
<path d="M40.501 40.1785L56.1722 49.326" stroke="#2F4F4F" stroke-width="2" stroke-dasharray="2 2"/>
</g>
<path fill-rule="evenodd" clip-rule="evenodd" d="M83.2001 65C83.2001 73.4 72 79 72 79C72 79 60.8 73.4 60.8 65V55.2L72 51L83.2001 55.2V65ZM71.7737 64.1758L67.065 60.8522C67.0068 60.8111 66.9721 60.7442 66.9721 60.6729V59.022C66.9721 58.8425 67.1759 58.739 67.3208 58.8448L71.8952 62.184C71.9721 62.2402 72.0764 62.2403 72.1535 62.1843L76.7387 58.8517C76.8837 58.7463 77.087 58.8499 77.087 59.0291V60.6351C77.087 60.7061 77.0527 60.7726 76.9949 60.8138L72.2758 64.1758L72.141 64.26C72.0699 64.3045 71.9796 64.3045 71.9085 64.26L71.7737 64.1758ZM67.1918 67.9759C67.0708 67.9761 66.9728 68.0742 66.9728 68.1952V69.5106C66.9728 69.6317 67.071 69.7299 67.1922 69.7299L76.8577 69.73C76.9788 69.73 77.077 69.6318 77.077 69.5106V68.1873C77.077 68.0661 76.9788 67.9679 76.8577 67.9679L73.0631 67.968C72.8519 67.968 72.7627 67.6989 72.932 67.5727L76.9981 64.5433C77.0537 64.5019 77.0865 64.4367 77.0865 64.3674V62.7584C77.0865 62.5791 76.8831 62.4756 76.7381 62.5809L72.1529 65.9136C72.0759 65.9695 71.9715 65.9694 71.8946 65.9133L67.3203 62.5741C67.1753 62.4683 66.9716 62.5718 66.9716 62.7513V64.4051C66.9716 64.4748 67.0046 64.5403 67.0607 64.5816L71.1136 67.5733C71.2838 67.6989 71.1952 67.9688 70.9838 67.9692L67.1918 67.9759Z" fill="#2F4F4F"/>
<path d="M141.275 29.8874C141.275 41.6993 131.699 51.2748 119.887 51.2748C108.075 51.2748 98.5 41.6993 98.5 29.8874C98.5 18.0755 108.075 8.5 119.887 8.5C131.699 8.5 141.275 18.0755 141.275 29.8874Z" fill="#E54545" stroke="#F6F2ED"/>
<path d="M119.887 50.4065C131.22 50.4065 140.407 41.2197 140.407 29.8871C140.407 18.5545 131.22 9.36768 119.887 9.36768C108.555 9.36768 99.3677 18.5545 99.3677 29.8871C99.3677 41.2197 108.555 50.4065 119.887 50.4065Z" stroke="#F6F2ED" stroke-width="2.5"/>
<path d="M117.23 33.4833L116.643 17.9014H122.21L121.619 33.4833H117.23ZM117.248 37.6876H121.6V42.1397H117.248V37.6876Z" fill="#F6F2ED" stroke="#F6F2ED"/>
</g>
<defs>
<clipPath id="clip0_461_6056">
<rect width="147" height="143" fill="white"/>
</clipPath>
</defs>
</svg>
