<svg width="19" height="19" viewBox="0 0 19 19" fill="none" xmlns="http://www.w3.org/2000/svg">
<g clip-path="url(#clip0_1407_534)">
<path d="M2.16387 19C2.12735 18.9798 2.09218 18.9582 2.05431 18.9407C1.90725 18.8864 1.78083 18.7879 1.6926 18.6587C1.60438 18.5295 1.55874 18.3761 1.56205 18.2199C1.56205 17.1071 1.54988 15.9943 1.56205 14.8815C1.5638 14.5085 1.71267 14.1511 1.97656 13.8865C2.24044 13.6218 2.59818 13.4712 2.9726 13.4669C4.09646 13.4521 5.2203 13.4575 6.3428 13.4669C6.44561 13.4674 6.54733 13.4883 6.642 13.5282C6.73668 13.5681 6.82245 13.6263 6.89439 13.6995C6.96633 13.7727 7.023 13.8593 7.0611 13.9545C7.0992 14.0496 7.11802 14.1513 7.1164 14.2537C7.11694 14.3561 7.0972 14.4576 7.05833 14.5523C7.01945 14.6471 6.96219 14.7333 6.88984 14.806C6.81748 14.8787 6.73145 14.9365 6.63666 14.976C6.54186 15.0156 6.44018 15.0361 6.33742 15.0364C5.59224 15.0445 4.84976 15.0364 4.10323 15.0364H3.85032C3.9274 15.1186 3.97204 15.1712 4.02207 15.2183C5.79644 16.8539 7.88728 17.5989 10.2946 17.3739C12.0424 17.2078 13.6849 16.4666 14.963 15.2673C16.2411 14.0681 17.0819 12.479 17.3528 10.7509C17.3839 10.5569 17.3961 10.3589 17.4285 10.1635C17.4578 9.96544 17.5631 9.78644 17.7223 9.66428C17.8815 9.54212 18.0822 9.48636 18.2819 9.50875C18.3832 9.51573 18.482 9.54266 18.5728 9.58801C18.6635 9.63335 18.7444 9.6962 18.8106 9.77291C18.8767 9.84961 18.9269 9.93863 18.9583 10.0348C18.9897 10.131 19.0015 10.2325 18.9932 10.3333C18.9424 10.9111 18.8396 11.4833 18.6862 12.0429C17.5069 15.8353 14.9441 18.1135 11.0357 18.8828C10.7273 18.9434 10.4108 18.965 10.0971 19.0054H8.94216C8.89513 18.9922 8.84722 18.9823 8.79879 18.9757C6.75854 18.8266 4.82168 18.023 3.27825 16.6855C3.24309 16.6558 3.20387 16.6316 3.14301 16.5857V18.2024C3.14662 18.3299 3.11793 18.4563 3.05954 18.5698C3.00115 18.6833 2.91496 18.7803 2.80897 18.8518C2.72185 18.9069 2.63153 18.9569 2.53849 19.0013L2.16387 19Z" fill="#F7F2EC"/>
<path d="M15.8571 2.41296C15.8571 2.33078 15.8652 2.27824 15.8652 2.21223C15.8652 1.74339 15.8652 1.26917 15.8652 0.803029C15.8619 0.69724 15.8801 0.59187 15.9188 0.493291C15.9575 0.394712 16.0158 0.304965 16.0902 0.229436C16.1646 0.153907 16.2536 0.0941728 16.3519 0.053829C16.4501 0.0134851 16.5555 -0.00663363 16.6617 -0.00530976C16.766 -0.0051529 16.8692 0.0157098 16.9653 0.0560656C17.0614 0.0964213 17.1484 0.155454 17.2213 0.229716C17.2942 0.303978 17.3516 0.391983 17.39 0.488571C17.4283 0.585159 17.447 0.688387 17.4448 0.792241C17.4448 1.88754 17.4543 2.98284 17.4448 4.07679C17.4475 4.26792 17.4118 4.45766 17.3398 4.63483C17.2677 4.81199 17.1608 4.97298 17.0253 5.10833C16.8898 5.24368 16.7285 5.35065 16.5508 5.42292C16.3732 5.49519 16.1828 5.53129 15.991 5.52911C14.8928 5.54123 13.7933 5.52911 12.6952 5.52911C12.5889 5.53278 12.4829 5.51487 12.3838 5.47648C12.2847 5.43809 12.1944 5.38002 12.1185 5.30579C12.0426 5.23157 11.9826 5.14276 11.9423 5.04473C11.9019 4.94671 11.882 4.84153 11.8837 4.73559C11.884 4.63171 11.9051 4.52895 11.9458 4.4333C11.9865 4.33765 12.0459 4.25103 12.1206 4.17852C12.1952 4.10602 12.2837 4.04908 12.3807 4.01102C12.4777 3.97297 12.5814 3.95456 12.6857 3.95689C13.4241 3.95689 14.1638 3.95689 14.9023 3.95689C14.9801 3.96138 15.0579 3.94609 15.1281 3.91243L14.8915 3.69553C10.4163 -0.416219 3.16471 1.7865 1.76361 7.68603C1.68112 8.03361 1.64325 8.39198 1.5905 8.7463C1.52829 9.16663 1.27944 9.44013 0.903468 9.48997C0.732683 9.51078 0.559687 9.47697 0.409455 9.39342C0.259223 9.30987 0.13954 9.18091 0.0676878 9.02517C-0.0553814 8.76515 0.00683865 8.5011 0.0433537 8.24109C0.318612 6.08622 1.33856 4.09411 2.92802 2.60697C4.40705 1.1773 6.3247 0.283094 8.37418 0.0674295C11.1466 -0.239739 13.5999 0.529528 15.7313 2.32269C15.7678 2.35233 15.803 2.38063 15.8571 2.41296Z" fill="#F7F2EC"/>
</g>
<defs>
<clipPath id="clip0_1407_534">
<rect width="19" height="19" fill="white"/>
</clipPath>
</defs>
</svg>
