<svg width="18" height="22" viewBox="0 0 18 22" fill="none" xmlns="http://www.w3.org/2000/svg">
<path d="M10.06 0.628715C9.90586 0.544656 9.72688 0.5 9.54411 0.5C9.36133 0.5 9.18236 0.544656 9.02823 0.628715L7.16361 1.58089C6.80379 1.76217 6.4201 1.90627 6.02057 2.01015L1.71935 3.1075C1.4913 3.16423 1.29438 3.28868 1.16396 3.45849C1.03354 3.62829 0.978168 3.83232 1.0078 4.03392L2.28494 12.7659C2.37359 13.3769 2.61502 13.9644 2.99282 14.4884C3.37062 15.0124 3.87591 15.4607 4.47432 15.8027L8.95617 18.3587C9.11991 18.4509 9.31162 18.5 9.50762 18.5C9.70361 18.5 9.89532 18.4509 10.0591 18.3587L14.5409 15.7941C15.1344 15.4498 15.6353 15.0012 16.0102 14.4782C16.385 13.9552 16.6253 13.3699 16.7148 12.7612L17.9919 4.01987C18.0221 3.81696 17.9671 3.61148 17.8369 3.43998C17.7066 3.26848 17.5094 3.14209 17.2804 3.08331L12.9746 1.97503C12.5731 1.87183 12.1889 1.72467 11.8316 1.53719L9.97058 0.577203L10.06 0.628715Z" fill="#2F4F4F"/>
</svg>
