<svg width="26" height="17" viewBox="0 0 26 17" fill="none" xmlns="http://www.w3.org/2000/svg">
<path d="M13.1775 0C18.5284 0.219292 22.7751 2.55486 25.614 7.21536C26.1296 8.06059 26.1259 8.94556 25.6206 9.79505C23.3872 13.5422 20.0868 15.8983 15.721 16.7365C9.61239 17.911 3.42412 15.0815 0.378245 9.8057C-0.116846 8.9484 -0.133668 8.07407 0.374587 7.22458C2.64016 3.43724 5.98537 1.11539 10.4102 0.259036C10.7402 0.19227 11.0737 0.142759 11.4092 0.110715C11.9343 0.0610369 12.4623 0.040452 13.1775 0ZM13.0312 15.4108C13.6894 15.3469 14.3958 15.3249 15.0833 15.2036C19.022 14.5066 22.0243 12.4866 24.09 9.14356C24.3598 8.70852 24.3598 8.31962 24.0965 7.8782C21.4054 3.37738 16.2138 0.943878 10.9046 1.8175C6.9073 2.47538 3.8841 4.58101 1.83207 7.98678C1.61268 8.35156 1.63316 8.70427 1.85474 9.06479C4.377 13.1561 8.1315 15.1872 13.0312 15.4108Z" fill="#2D6759"/>
<path d="M7.94429 8.50538C7.94603 7.53549 8.24418 6.5879 8.80102 5.78249C9.35786 4.97708 10.1484 4.35005 11.0725 3.98074C11.9966 3.61143 13.0129 3.51644 13.9927 3.70778C14.9725 3.89911 15.8718 4.36817 16.5768 5.05563C17.2818 5.74308 17.7609 6.61803 17.9534 7.56976C18.1458 8.5215 18.0431 9.50726 17.6581 10.4023C17.2732 11.2974 16.6233 12.0615 15.7907 12.598C14.9581 13.1345 13.9802 13.4193 12.9808 13.4164C12.3177 13.4152 11.6613 13.2872 11.0493 13.0396C10.4372 12.7921 9.88143 12.43 9.41368 11.9739C8.94594 11.5178 8.5754 10.9767 8.32328 10.3815C8.07115 9.7864 7.94236 9.14886 7.94429 8.50538ZM16.3916 8.50538C16.3916 6.69995 14.85 5.20464 12.9939 5.20606C12.0945 5.21351 11.2343 5.56417 10.5992 6.18223C9.96404 6.8003 9.60511 7.6361 9.59995 8.50893C9.59995 10.3122 11.1423 11.8104 12.9976 11.8097C14.8529 11.809 16.3952 10.3087 16.3952 8.50467L16.3916 8.50538Z" fill="#2D6759"/>
</svg>
