<svg width="203" height="157" viewBox="0 0 203 157" fill="none" xmlns="http://www.w3.org/2000/svg">
<path opacity="0.2" d="M189.957 77.1112C190.809 77.1112 191.642 76.8584 192.351 76.3846C193.059 75.9108 193.611 75.2374 193.937 74.4495C194.263 73.6617 194.349 72.7947 194.182 71.9583C194.016 71.122 193.606 70.3537 193.003 69.7507C192.401 69.1477 191.633 68.737 190.798 68.5706C189.962 68.4043 189.096 68.4897 188.309 68.816C187.522 69.1423 186.849 69.695 186.375 70.4041C185.902 71.1131 185.649 71.9467 185.649 72.7995C185.649 73.9431 186.103 75.0398 186.911 75.8484C187.719 76.657 188.815 77.1112 189.957 77.1112Z" fill="#073B36"/>
<path d="M40.1853 147.296H38.855V149.88H40.1853V147.296Z" fill="#596F66"/>
<path d="M40.1853 154.416H38.855V157H40.1853V154.416Z" fill="#596F66"/>
<path d="M44.3684 151.483H41.7866V152.814H44.3684V151.483Z" fill="#596F66"/>
<path d="M37.2546 151.483H34.6729V152.814H37.2546V151.483Z" fill="#596F66"/>
<path d="M2.63727 36.8076C4.0938 36.8076 5.27455 35.6258 5.27455 34.168C5.27455 32.7101 4.0938 31.5283 2.63727 31.5283C1.18075 31.5283 0 32.7101 0 34.168C0 35.6258 1.18075 36.8076 2.63727 36.8076Z" fill="#596F66"/>
<path d="M12.0147 75.7292C13.17 75.7292 14.1066 74.7918 14.1066 73.6355C14.1066 72.4791 13.17 71.5417 12.0147 71.5417C10.8594 71.5417 9.92285 72.4791 9.92285 73.6355C9.92285 74.7918 10.8594 75.7292 12.0147 75.7292Z" fill="#596F66"/>
<path d="M200.663 83.6569C201.954 83.6569 203 82.6095 203 81.3176C203 80.0256 201.954 78.9783 200.663 78.9783C199.372 78.9783 198.326 80.0256 198.326 81.3176C198.326 82.6095 199.372 83.6569 200.663 83.6569Z" fill="#596F66"/>
<path d="M164.614 16.4299C165.77 16.4299 166.706 15.4925 166.706 14.3362C166.706 13.1798 165.77 12.2424 164.614 12.2424C163.459 12.2424 162.522 13.1798 162.522 14.3362C162.522 15.4925 163.459 16.4299 164.614 16.4299Z" fill="#596F66"/>
<path d="M21.5035 44.1797H19.8052V47.0853H21.5035V44.1797Z" fill="#B2D0CB"/>
<path d="M21.5035 52.1843H19.8052V55.09H21.5035V52.1843Z" fill="#B2D0CB"/>
<path d="M26.1042 48.7854H23.2012V50.4852H26.1042V48.7854Z" fill="#B2D0CB"/>
<path d="M18.1071 48.7854H15.2041V50.4852H18.1071V48.7854Z" fill="#B2D0CB"/>
<path d="M175.722 90.0586H174.024V92.9643H175.722V90.0586Z" fill="#B2D0CB"/>
<path d="M175.722 98.064H174.024V100.969H175.722V98.064Z" fill="#B2D0CB"/>
<path d="M180.323 94.6643H177.42V96.3641H180.323V94.6643Z" fill="#B2D0CB"/>
<path d="M172.326 94.6643H169.423V96.3641H172.326V94.6643Z" fill="#B2D0CB"/>
<path d="M87.328 121.699H85.6304V124.605H87.328V121.699Z" fill="#B2D0CB"/>
<path d="M87.328 129.705H85.6304V132.61H87.328V129.705Z" fill="#B2D0CB"/>
<path d="M91.9304 126.305H89.0273V128.004H91.9304V126.305Z" fill="#B2D0CB"/>
<path d="M83.9323 126.305H81.0293V128.004H83.9323V126.305Z" fill="#B2D0CB"/>
<path d="M169.798 57.0398C171.289 57.0398 172.498 55.8301 172.498 54.338C172.498 52.8459 171.289 51.6362 169.798 51.6362C168.308 51.6362 167.099 52.8459 167.099 54.338C167.099 55.8301 168.308 57.0398 169.798 57.0398Z" fill="#F6F2ED"/>
<path d="M18.107 97.2154C21.2519 97.2154 23.8014 94.6637 23.8014 91.5159C23.8014 88.3682 21.2519 85.8164 18.107 85.8164C14.9621 85.8164 12.4126 88.3682 12.4126 91.5159C12.4126 94.6637 14.9621 97.2154 18.107 97.2154Z" fill="#B2D0CB"/>
<path d="M82.7029 24.5014C83.6501 24.5014 84.418 23.7328 84.418 22.7848C84.418 21.8367 83.6501 21.0681 82.7029 21.0681C81.7557 21.0681 80.9878 21.8367 80.9878 22.7848C80.9878 23.7328 81.7557 24.5014 82.7029 24.5014Z" fill="#B2D0CB"/>
<path d="M68.338 73.354H66.6396C66.6396 73.9335 66.6564 74.5232 66.6886 75.0991L68.384 75.0048C68.3548 74.4582 68.338 73.9028 68.338 73.354ZM69.0681 79.9085L67.4114 80.2812C67.5385 80.8469 67.683 81.4161 67.8422 81.9737L69.4748 81.5082C69.3229 80.9806 69.1857 80.4427 69.0652 79.9085H69.0681ZM68.5227 76.6513L66.8353 76.8391C66.8996 77.4179 66.9814 77.9989 67.0755 78.5682L68.7505 78.2876C68.6578 77.7497 68.5811 77.2002 68.5205 76.6521L68.5227 76.6513ZM68.519 70.0559L66.831 69.871C66.7682 70.4468 66.7207 71.0322 66.6893 71.6103L68.3854 71.7023C68.4117 71.1557 68.457 70.5981 68.5168 70.0559H68.519ZM69.0593 66.7994L67.4019 66.4274C67.2756 66.9923 67.1632 67.5689 67.069 68.1412L68.7439 68.4196C68.8315 67.8795 68.9389 67.3336 69.0572 66.7979L69.0593 66.7994ZM69.9589 63.6219L68.3526 63.0687C68.1642 63.6168 67.9875 64.1773 67.8305 64.7342L69.4646 65.1975C69.6121 64.6706 69.7778 64.1415 69.956 63.6219H69.9589ZM75.6445 95.4117C76.0512 95.8283 76.4732 96.2375 76.8974 96.6256L78.0452 95.373C77.6436 95.0076 77.2421 94.618 76.8595 94.2227L75.6445 95.4117ZM74.6851 91.7394L73.3489 92.7874C73.7045 93.2427 74.0791 93.695 74.4609 94.1313L75.7387 93.0117C75.3736 92.5952 75.0188 92.1669 74.6822 91.7365L74.6851 91.7394ZM72.7969 89.0355L71.3535 89.9307C71.6587 90.424 71.9806 90.9136 72.3114 91.3872L73.7038 90.4145C73.3884 89.9607 73.0832 89.4959 72.794 89.0296L72.7969 89.0355ZM71.2198 86.14L69.6865 86.8708C69.9333 87.3904 70.1976 87.913 70.478 88.4245L71.969 87.6111C71.7017 87.12 71.4498 86.626 71.2169 86.1342L71.2198 86.14ZM69.9713 83.0897L68.365 83.6451C68.5534 84.1895 68.76 84.7413 68.9798 85.2755L70.551 84.6317C70.3422 84.1179 70.1465 83.599 69.9684 83.0838L69.9713 83.0897ZM87.816 45.3146L87.2238 43.7215C86.6821 43.9232 86.1388 44.1431 85.6095 44.3741L86.2892 45.9321C86.7879 45.7071 87.3012 45.4995 87.8138 45.3124L87.816 45.3146ZM90.9673 44.3353L90.5511 42.6815C89.9867 42.8233 89.4223 42.9819 88.8718 43.1522L89.3741 44.7753C89.894 44.6138 90.4306 44.4632 90.9651 44.3295L90.9673 44.3353ZM97.4955 43.4584L97.456 41.7585C96.8719 41.7724 96.2878 41.8024 95.7146 41.8477L95.8475 43.5417C96.3878 43.4913 96.9427 43.4628 97.4933 43.4503L97.4955 43.4584ZM84.7983 46.6366L84.0338 45.1188C83.5176 45.3797 83.0014 45.6581 82.5005 45.9475L83.349 47.42C83.8199 47.1394 84.3076 46.8741 84.7961 46.6279L84.7983 46.6366ZM94.2054 43.7178L93.9813 42.0333C93.4103 42.1064 92.8306 42.2036 92.2589 42.3132L92.5787 43.9824C93.1168 43.8706 93.6644 43.7777 94.2018 43.7098L94.2054 43.7178ZM72.7853 57.6556L71.3403 56.7626C71.0351 57.2573 70.7401 57.766 70.4641 58.2732L71.9551 59.0865C72.2157 58.6064 72.4954 58.1248 72.7853 57.6556ZM74.6741 54.9473L73.338 53.8979C72.9824 54.3524 72.6334 54.8245 72.2997 55.3025L73.6928 56.2752C74.0075 55.8228 74.3375 55.3763 74.6741 54.9473ZM71.2052 60.5598L69.6719 59.829C69.423 60.3552 69.1857 60.8938 68.9673 61.428L70.5393 62.0704C70.7445 61.5676 70.9687 61.0582 71.2023 60.5598H71.2052ZM81.9383 48.2736L81.0096 46.8508C80.5233 47.1687 80.0421 47.5026 79.577 47.8425L80.5803 49.2134C81.0227 48.8933 81.4791 48.5747 81.9405 48.2736H81.9383ZM76.8456 52.4589L75.6306 51.2714C75.2254 51.6865 74.8275 52.1176 74.4471 52.5532L75.7248 53.672C76.087 53.2606 76.4644 52.8521 76.8478 52.4589H76.8456ZM79.2777 50.2263L78.2 48.9109C77.7517 49.2763 77.3085 49.6643 76.8857 50.0546L78.0343 51.3072C78.4366 50.9396 78.8557 50.5742 79.2806 50.2263H79.2777ZM81.0234 99.8309C81.5119 100.149 82.0121 100.456 82.5115 100.744L83.3592 99.2711C82.886 98.9985 82.41 98.7076 81.95 98.4065L81.0234 99.8309ZM113.309 99.1658L114.167 100.633C114.668 100.341 115.166 100.028 115.648 99.7073L114.709 98.2925C114.257 98.5943 113.786 98.8888 113.313 99.1658H113.309ZM112.606 45.2028L111.831 46.7141C112.322 46.9662 112.808 47.2337 113.276 47.5099L114.137 46.0483C113.644 45.7509 113.129 45.4688 112.61 45.2021L112.606 45.2028ZM107.291 101.84L107.802 103.461C108.349 103.289 108.904 103.095 109.452 102.889L108.85 101.3C108.334 101.496 107.81 101.678 107.295 101.841L107.291 101.84ZM109.419 43.7821L108.817 45.3709C109.328 45.5645 109.839 45.7765 110.343 45.9994L111.033 44.4472C110.505 44.2104 109.962 43.9875 109.422 43.7829L109.419 43.7821ZM110.374 100.672L111.062 102.226C111.589 101.993 112.118 101.739 112.637 101.473L111.862 99.9602C111.375 100.212 110.875 100.451 110.378 100.672H110.374ZM115.615 46.9677L114.676 48.384C115.131 48.6865 115.585 49.0066 116.025 49.334L117.041 47.9733C116.58 47.6269 116.101 47.2856 115.619 46.9677H115.615ZM120.867 92.8269L122.157 93.9311C122.533 93.4926 122.901 93.0344 123.253 92.5718L121.903 91.5406C121.575 91.9784 121.225 92.411 120.87 92.8276L120.867 92.8269ZM123.765 88.8075C123.482 89.2752 123.181 89.7436 122.872 90.196L124.275 91.1533C124.601 90.6739 124.918 90.1799 125.218 89.6859L123.765 88.8075ZM118.587 95.2158L119.749 96.4582C120.171 96.0614 120.588 95.647 120.99 95.2283L119.761 94.059C119.385 94.4507 118.991 94.8417 118.589 95.218L118.587 95.2158ZM118.41 49.0548L117.32 50.3586C117.739 50.7101 118.156 51.0784 118.557 51.4548L119.716 50.2124C119.295 49.8171 118.856 49.4276 118.413 49.0563L118.41 49.0548ZM116.058 97.3381L117.074 98.6988C117.537 98.3532 117.997 97.9878 118.443 97.6143L117.352 96.312C116.934 96.6672 116.499 97.0129 116.061 97.3403L116.058 97.3381ZM94.0163 104.653C94.5873 104.73 95.1707 104.792 95.7519 104.836L95.8826 103.142C95.3335 103.1 94.7823 103.041 94.2419 102.97L94.0163 104.653ZM90.5905 104.001C91.1556 104.141 91.7288 104.267 92.2939 104.375L92.6115 102.705C92.0771 102.604 91.5346 102.486 91.0001 102.351L90.5905 104.001ZM78.2117 97.7671C78.6593 98.1325 79.1229 98.4979 79.5902 98.8377L80.5941 97.4667C80.1524 97.1422 79.7128 96.8017 79.2894 96.4538L78.2117 97.7671ZM97.529 103.225L97.4925 104.924C97.7311 104.929 97.9701 104.931 98.2095 104.931C98.552 104.931 98.8944 104.925 99.2317 104.914L99.1784 103.216C98.6323 103.234 98.0788 103.237 97.529 103.225ZM87.2538 102.97C87.7955 103.171 88.349 103.361 88.9083 103.532L89.4099 101.909C88.8827 101.746 88.3563 101.567 87.8437 101.376L87.2538 102.97ZM84.0521 101.573C84.5712 101.835 85.1028 102.085 85.6328 102.316L86.3119 100.758C85.8103 100.539 85.3065 100.302 84.8151 100.055L84.0521 101.573ZM102.671 42.0523L102.434 43.7332C102.976 43.8062 103.524 43.902 104.062 44.0087L104.392 42.341C103.824 42.2314 103.245 42.1334 102.671 42.0523ZM99.196 41.76L99.1441 43.4584C99.6939 43.4745 100.249 43.5066 100.793 43.5534L100.939 41.8609C100.366 41.8082 99.7794 41.7746 99.1989 41.7571L99.196 41.76ZM106.094 42.7312L105.673 44.3777C106.202 44.5137 106.735 44.6657 107.259 44.8323L107.77 43.2121C107.22 43.0338 106.655 42.8723 106.096 42.729L106.094 42.7312ZM104.094 102.661L104.424 104.329C104.994 104.216 105.566 104.086 106.124 103.943L105.704 102.297C105.179 102.43 104.637 102.552 104.097 102.659L104.094 102.661ZM100.827 103.124L100.973 104.816C101.557 104.766 102.137 104.7 102.704 104.62L102.467 102.939C101.934 103.011 101.382 103.073 100.83 103.119L100.827 103.124Z" fill="#B2D0CB"/>
<path d="M96.9185 64.9587H93.3247V71.4051H96.9185C97.7642 71.3924 98.5709 71.0472 99.1644 70.4441C99.7579 69.841 100.091 69.0285 100.091 68.1819C100.091 67.3354 99.7579 66.5228 99.1644 65.9198C98.5709 65.3167 97.7642 64.9715 96.9185 64.9587Z" fill="#2F4F4F"/>
<path d="M98.3846 74.7302H93.3247V81.7152H98.3846C99.31 81.7152 100.198 81.3473 100.852 80.6923C101.506 80.0373 101.874 79.149 101.874 78.2227C101.874 77.2964 101.506 76.4081 100.852 75.7532C100.198 75.0982 99.31 74.7302 98.3846 74.7302Z" fill="#2F4F4F"/>
<path d="M112.495 87.7836V64.3754H115.552V58.5231C115.552 56.053 118.008 53.6852 118.008 53.6852C113.918 49.5591 108.644 46.8137 102.92 45.8322C97.1971 44.8508 91.3103 45.6822 86.0817 48.2106C80.8532 50.7389 76.5437 54.8379 73.7546 59.9357C70.9656 65.0334 69.8362 70.8755 70.524 76.6466C71.2118 82.4177 73.6825 87.8299 77.5914 92.1279C81.5003 96.4259 86.6522 99.3953 92.3283 100.622C98.0043 101.848 103.921 101.27 109.253 98.9686C114.586 96.6671 119.067 92.7569 122.072 87.7836H112.495ZM106.569 83.4953C105.949 84.1181 105.211 84.6119 104.399 84.9483C103.587 85.2847 102.717 85.457 101.838 85.4553H98.6401V90.69H95.3866V85.4575H93.3261V90.6922H90.0719V85.5036H83.4612V81.9913H85.9006C86.1035 82.0241 86.3112 82.0088 86.5071 81.9467C86.703 81.8845 86.8817 81.7773 87.0286 81.6335C87.1756 81.4897 87.2869 81.3134 87.3534 81.1188C87.42 80.9242 87.4401 80.7167 87.412 80.5129V66.217C87.4401 66.0132 87.42 65.8057 87.3534 65.6111C87.2869 65.4165 87.1756 65.2402 87.0286 65.0965C86.8817 64.9527 86.703 64.8454 86.5071 64.7833C86.3112 64.7211 86.1035 64.7058 85.9006 64.7386H83.4612V61.2264H90.0719V55.9865H93.3261V61.2264H95.3866V55.9865H98.6408V61.2264H100.911C102.274 61.2241 103.588 61.7317 104.596 62.6497C105.604 63.5676 106.233 64.8296 106.36 66.1879C106.486 67.5461 106.1 68.9025 105.279 69.9908C104.457 71.0791 103.258 71.8207 101.918 72.07C103.234 72.0853 104.517 72.4889 105.604 73.2301C106.692 73.9714 107.537 75.0175 108.034 76.2372C108.531 77.4571 108.657 78.7964 108.397 80.0876C108.136 81.3788 107.501 82.5644 106.571 83.496L106.569 83.4953Z" fill="#2F4F4F"/>
<path d="M136.392 67.686H115.802V84.4681H136.392V67.686Z" fill="#2F4F4F"/>
<path d="M126.096 52.8806C124.034 52.8831 122.057 53.7043 120.598 55.1641C119.14 56.6239 118.32 58.603 118.317 60.6673V65.834H120.015V60.6673C120.015 59.0531 120.656 57.5049 121.796 56.3635C122.936 55.2221 124.483 54.5808 126.096 54.5808C127.709 54.5808 129.255 55.2221 130.396 56.3635C131.536 57.5049 132.177 59.0531 132.177 60.6673V65.834H133.875V60.6673C133.873 58.6029 133.053 56.6237 131.595 55.1639C130.136 53.7041 128.159 52.8829 126.096 52.8806Z" fill="#2F4F4F"/>
<path d="M40.104 79.8706C39.8788 79.8706 39.6628 79.9602 39.5036 80.1195C39.3443 80.2789 39.2549 80.4951 39.2549 80.7205V110.308H40.9532V81.5704H62.3799V79.8713L40.104 79.8706Z" fill="#2F4F4F"/>
<path d="M40.9532 67.3579V38.6206H39.2549V68.2078C39.2549 68.4332 39.3443 68.6494 39.5036 68.8088C39.6628 68.9682 39.8788 69.0577 40.104 69.0577H62.3799V67.3579H40.9532Z" fill="#2F4F4F"/>
<path d="M31.313 114.966C29.5967 114.966 27.9189 115.475 26.4918 116.43C25.0648 117.384 23.9525 118.741 23.2957 120.328C22.639 121.915 22.4672 123.661 22.8021 125.346C23.1369 127.031 23.9635 128.579 25.1772 129.793C26.3908 131.008 27.9371 131.835 29.6205 132.17C31.3039 132.505 33.0487 132.333 34.6343 131.676C36.22 131.018 37.5752 129.905 38.5286 128.476C39.4821 127.048 39.9909 125.369 39.9907 123.651C39.9876 121.348 39.0724 119.141 37.4456 117.513C35.8189 115.885 33.6135 114.969 31.313 114.966ZM31.313 130.637C29.9327 130.637 28.5834 130.227 27.4357 129.459C26.2881 128.692 25.3936 127.601 24.8654 126.324C24.3373 125.048 24.1991 123.643 24.4684 122.288C24.7378 120.933 25.4025 119.689 26.3785 118.712C27.3546 117.735 28.5981 117.069 29.9519 116.8C31.3057 116.53 32.709 116.669 33.9843 117.197C35.2596 117.726 36.3496 118.621 37.1166 119.77C37.8836 120.919 38.293 122.269 38.2932 123.651C38.2912 125.503 37.5552 127.279 36.2466 128.589C34.938 129.898 33.1637 130.635 31.313 130.637Z" fill="#3E524D" fill-opacity="0.5"/>
<path d="M28.8238 120.768C28.2541 120.768 27.6971 120.937 27.2234 121.254C26.7497 121.571 26.3805 122.021 26.1625 122.548C25.9446 123.075 25.8876 123.655 25.9988 124.214C26.11 124.773 26.3844 125.287 26.7873 125.69C27.1902 126.093 27.7035 126.368 28.2623 126.479C28.8211 126.59 29.4003 126.533 29.9266 126.315C30.4529 126.096 30.9027 125.727 31.2191 125.252C31.5355 124.778 31.7043 124.221 31.7042 123.651C31.7032 122.886 31.3994 122.154 30.8594 121.613C30.3194 121.073 29.5873 120.769 28.8238 120.768ZM28.8238 124.834C28.59 124.834 28.3614 124.764 28.167 124.634C27.9726 124.504 27.8211 124.32 27.7317 124.103C27.6422 123.887 27.6188 123.649 27.6644 123.42C27.71 123.19 27.8226 122.979 27.9879 122.814C28.1532 122.648 28.3639 122.536 28.5932 122.49C28.8225 122.445 29.0601 122.468 29.2761 122.557C29.4921 122.647 29.6768 122.799 29.8067 122.993C29.9365 123.188 30.0059 123.417 30.0059 123.651C30.0055 123.964 29.8808 124.265 29.6592 124.487C29.4376 124.709 29.1372 124.833 28.8238 124.834Z" fill="#3E524D" fill-opacity="0.5"/>
<path d="M62.0957 124.458L58.821 120.471C58.7473 120.381 58.656 120.307 58.5526 120.254C58.4492 120.201 58.3361 120.17 58.2201 120.162C58.1043 120.155 57.9883 120.172 57.8791 120.211C57.7699 120.251 57.6699 120.312 57.5849 120.391L56.1976 121.692H53.3048L52.0168 120.408C51.8577 120.249 51.6421 120.16 51.4174 120.16H45.4872C45.3489 120.16 45.2128 120.194 45.0905 120.259C44.9683 120.323 44.8636 120.417 44.7855 120.531L44.1379 121.481L43.4041 120.5C43.325 120.395 43.2224 120.309 43.1044 120.25C42.9864 120.19 42.8563 120.16 42.7243 120.16H38.6844C38.5482 120.159 38.4139 120.192 38.2929 120.254C38.1718 120.316 38.0675 120.407 37.9887 120.518C37.91 120.629 37.8591 120.758 37.8404 120.893C37.8217 121.028 37.8357 121.165 37.8813 121.294C38.1506 122.05 38.2882 122.848 38.288 123.651C38.2913 124.735 38.0389 125.804 37.5512 126.772C37.486 126.901 37.455 127.046 37.4612 127.191C37.4674 127.335 37.5106 127.476 37.5867 127.6C37.6628 127.723 37.7692 127.825 37.8958 127.896C38.0224 127.967 38.1649 128.004 38.3099 128.003H61.4371C61.6623 128.003 61.8783 127.914 62.0376 127.754C62.1968 127.595 62.2863 127.379 62.2863 127.153V124.997C62.2868 124.801 62.2195 124.61 62.0957 124.458ZM60.5909 126.305H39.5759C39.8513 125.448 39.9905 124.552 39.9885 123.651C39.9885 123.049 39.9264 122.449 39.803 121.86H42.2994L43.4902 123.451C43.5731 123.557 43.6791 123.643 43.8002 123.702C43.9214 123.761 44.0543 123.791 44.189 123.791C44.324 123.788 44.4563 123.753 44.575 123.688C44.6937 123.624 44.7954 123.532 44.8716 123.421L45.9355 121.86H51.0669L52.3549 123.144C52.514 123.302 52.7296 123.391 52.9543 123.391H56.532C56.749 123.392 56.958 123.31 57.1161 123.161L58.0872 122.25L60.5931 125.302L60.5909 126.305Z" fill="#3E524D" fill-opacity="0.5"/>
<path d="M58.5122 115.635L55.0805 118.86H54.4767L52.9434 117.325H40.9281C39.834 115.66 38.3268 114.307 36.554 113.4C34.7811 112.492 32.8033 112.06 30.8139 112.147C28.8245 112.234 26.8917 112.836 25.2043 113.894C23.517 114.952 22.133 116.431 21.1876 118.185C20.2422 119.939 19.7678 121.909 19.8108 123.902C19.8538 125.894 20.4127 127.842 21.4329 129.553C22.4531 131.265 23.8996 132.682 25.631 133.667C27.3624 134.651 29.3194 135.169 31.3107 135.17C33.0401 135.18 34.7491 134.796 36.3074 134.045C37.8657 133.294 39.2321 132.197 40.3024 130.837H65.1163V123.676L58.5122 115.635ZM63.4209 129.138H39.454L39.1999 129.485C38.2956 130.727 37.1089 131.737 35.7377 132.43C34.3666 133.123 32.8504 133.479 31.3144 133.47C29.5985 133.47 27.9124 133.021 26.4244 132.165C24.9365 131.31 23.6987 130.079 22.8347 128.595C21.9706 127.111 21.5105 125.427 21.5003 123.709C21.4901 121.992 21.9301 120.302 22.7765 118.808C23.6228 117.314 24.8458 116.068 26.3235 115.195C27.8012 114.322 29.4818 113.852 31.1976 113.832C32.9133 113.813 34.6043 114.244 36.1016 115.082C37.599 115.921 38.8503 117.138 39.7307 118.613L39.9775 119.027H52.2366L53.7699 120.562H55.7464L58.3493 118.118L63.4187 124.29L63.4209 129.138Z" fill="#2F4F4F"/>
<path d="M31.313 17.45C29.5968 17.45 27.9192 17.9593 26.4922 18.9135C25.0652 19.8678 23.953 21.2241 23.2961 22.811C22.6392 24.3979 22.4672 26.1442 22.8018 27.8289C23.1364 29.5137 23.9626 31.0613 25.1759 32.2761C26.3892 33.4909 27.9351 34.3184 29.6183 34.6538C31.3014 34.9893 33.0461 34.8177 34.6318 34.1608C36.2175 33.5038 37.573 32.391 38.5269 30.9631C39.4807 29.5351 39.9902 27.8562 39.9907 26.1384C39.9886 23.8353 39.0738 21.627 37.4469 19.9981C35.8201 18.3693 33.6141 17.4529 31.313 17.45ZM31.313 33.122C29.9325 33.122 28.5829 32.7122 27.435 31.9445C26.2871 31.1768 25.3925 30.0857 24.8642 28.8091C24.3359 27.5325 24.1976 26.1278 24.467 24.7725C24.7363 23.4173 25.4011 22.1724 26.3773 21.1953C27.3535 20.2183 28.5972 19.5529 29.9512 19.2833C31.3053 19.0137 32.7087 19.1521 33.9842 19.6809C35.2596 20.2097 36.3498 21.1051 37.1168 22.254C37.8838 23.403 38.2932 24.7537 38.2932 26.1355C38.292 27.9883 37.5563 29.765 36.2476 31.0754C34.9389 32.3859 33.1642 33.1229 31.313 33.1249V33.122Z" fill="#596F66"/>
<path d="M28.8238 23.2563C28.2541 23.2563 27.6971 23.4255 27.2234 23.7423C26.7497 24.0591 26.3805 24.5094 26.1625 25.0362C25.9446 25.5631 25.8876 26.1428 25.9988 26.7021C26.11 27.2613 26.3844 27.775 26.7873 28.1782C27.1902 28.5814 27.7035 28.8559 28.2623 28.9671C28.8211 29.0782 29.4003 29.021 29.9266 28.8027C30.4529 28.5844 30.9027 28.2147 31.2191 27.7405C31.5355 27.2663 31.7043 26.7089 31.7042 26.1386C31.7032 25.3744 31.3994 24.6417 30.8594 24.1014C30.3194 23.561 29.5873 23.2571 28.8238 23.2563ZM28.8238 27.3218C28.59 27.3218 28.3614 27.2524 28.167 27.1224C27.9726 26.9924 27.8211 26.8076 27.7317 26.5914C27.6422 26.3752 27.6188 26.1373 27.6644 25.9078C27.71 25.6783 27.8226 25.4675 27.9879 25.302C28.1532 25.1365 28.3639 25.0238 28.5932 24.9782C28.8225 24.9325 29.0601 24.956 29.2761 25.0455C29.4921 25.1351 29.6768 25.2867 29.8067 25.4813C29.9365 25.6759 30.0059 25.9046 30.0059 26.1386C30.0055 26.4523 29.8808 26.753 29.6592 26.9748C29.4376 27.1966 29.1372 27.3214 28.8238 27.3218Z" fill="#B2D0CB"/>
<path d="M28.8238 23.2563C28.2541 23.2563 27.6971 23.4255 27.2234 23.7423C26.7497 24.0591 26.3805 24.5094 26.1625 25.0362C25.9446 25.5631 25.8876 26.1428 25.9988 26.7021C26.11 27.2613 26.3844 27.775 26.7873 28.1782C27.1902 28.5814 27.7035 28.8559 28.2623 28.9671C28.8211 29.0782 29.4003 29.021 29.9266 28.8027C30.4529 28.5844 30.9027 28.2147 31.2191 27.7405C31.5355 27.2663 31.7043 26.7089 31.7042 26.1386C31.7032 25.3744 31.3994 24.6417 30.8594 24.1014C30.3194 23.561 29.5873 23.2571 28.8238 23.2563ZM28.8238 27.3218C28.59 27.3218 28.3614 27.2524 28.167 27.1224C27.9726 26.9924 27.8211 26.8076 27.7317 26.5914C27.6422 26.3752 27.6188 26.1373 27.6644 25.9078C27.71 25.6783 27.8226 25.4675 27.9879 25.302C28.1532 25.1365 28.3639 25.0238 28.5932 24.9782C28.8225 24.9325 29.0601 24.956 29.2761 25.0455C29.4921 25.1351 29.6768 25.2867 29.8067 25.4813C29.9365 25.6759 30.0059 25.9046 30.0059 26.1386C30.0055 26.4523 29.8808 26.753 29.6592 26.9748C29.4376 27.1966 29.1372 27.3214 28.8238 27.3218Z" fill="#596F66"/>
<path d="M62.0957 26.946L58.821 22.9581C58.7473 22.8682 58.6559 22.7945 58.5525 22.7414C58.4492 22.6884 58.336 22.6571 58.2201 22.6497C58.1043 22.6432 57.9884 22.6602 57.8793 22.6995C57.7702 22.7388 57.6701 22.7996 57.5849 22.8784L56.1976 24.18H53.3048L52.0176 22.8959C51.8584 22.7371 51.6428 22.648 51.4181 22.6482H45.4872C45.3489 22.6482 45.2128 22.682 45.0905 22.7466C44.9683 22.8111 44.8636 22.9045 44.7855 23.0187L44.1379 23.9687L43.4041 22.9917C43.3249 22.8861 43.2223 22.8004 43.1043 22.7414C42.9863 22.6824 42.8562 22.6518 42.7243 22.6518H38.6844C38.5482 22.6513 38.4138 22.6837 38.2926 22.7461C38.1714 22.8085 38.0671 22.8992 37.9883 23.0105C37.9095 23.1218 37.8587 23.2504 37.8401 23.3856C37.8214 23.5207 37.8356 23.6583 37.8813 23.7868C38.1505 24.5431 38.2881 25.34 38.288 26.1429C38.2913 27.2271 38.0389 28.2967 37.5512 29.2649C37.486 29.3944 37.455 29.5385 37.4612 29.6834C37.4674 29.8284 37.5106 29.9693 37.5867 30.0928C37.6628 30.2162 37.7692 30.3182 37.8958 30.3888C38.0224 30.4594 38.1649 30.4964 38.3099 30.4963H61.4371C61.6623 30.4963 61.8783 30.4067 62.0376 30.2473C62.1968 30.0879 62.2863 29.8717 62.2863 29.6463V27.489C62.2877 27.2914 62.2203 27.0994 62.0957 26.946ZM60.5909 28.7928H39.5759C39.8512 27.9353 39.9904 27.0399 39.9885 26.1392C39.9885 25.5374 39.9264 24.9371 39.803 24.348H42.2994L43.4902 25.9397C43.5702 26.0491 43.6756 26.1374 43.7974 26.1967C43.9192 26.2561 44.0536 26.2848 44.189 26.2803C44.324 26.2771 44.4563 26.2419 44.575 26.1775C44.6937 26.113 44.7954 26.0213 44.8717 25.9098L45.9355 24.3488H51.0669L52.3549 25.6328C52.514 25.7916 52.7296 25.8807 52.9543 25.8805H56.532C56.749 25.8813 56.958 25.7989 57.1161 25.6503L58.0872 24.739L60.5931 27.7908V28.7935L60.5909 28.7928Z" fill="#596F66"/>
<path d="M158.919 79.8706H141.499V81.5697H158.07V110.307H159.768V80.7198C159.768 80.4945 159.678 80.2785 159.519 80.1193C159.36 79.96 159.144 79.8706 158.919 79.8706Z" fill="#2F4F4F"/>
<path d="M158.07 38.6206V67.3579H141.499V69.0577H158.919C159.144 69.0577 159.36 68.9682 159.519 68.8088C159.678 68.6494 159.768 68.4332 159.768 68.2078V38.6206H158.07Z" fill="#2F4F4F"/>
<path d="M144.746 114.966C143.029 114.966 141.352 115.475 139.924 116.43C138.497 117.384 137.385 118.741 136.728 120.328C136.072 121.915 135.9 123.661 136.235 125.346C136.57 127.031 137.396 128.579 138.61 129.793C139.823 131.008 141.37 131.835 143.053 132.17C144.736 132.505 146.481 132.333 148.067 131.676C149.653 131.018 151.008 129.905 151.961 128.476C152.915 127.048 153.423 125.369 153.423 123.651C153.42 121.348 152.505 119.141 150.878 117.513C149.252 115.885 147.046 114.969 144.746 114.966ZM144.746 130.637C143.365 130.637 142.016 130.227 140.868 129.459C139.721 128.692 138.826 127.601 138.298 126.324C137.77 125.048 137.632 123.643 137.901 122.288C138.17 120.933 138.835 119.689 139.811 118.712C140.787 117.735 142.031 117.069 143.385 116.8C144.738 116.53 146.142 116.669 147.417 117.197C148.692 117.726 149.782 118.621 150.549 119.77C151.316 120.919 151.726 122.269 151.726 123.651C151.724 125.503 150.988 127.279 149.679 128.589C148.371 129.898 146.596 130.635 144.746 130.637Z" fill="#2F4F4F"/>
<path d="M142.255 120.768C141.685 120.768 141.128 120.937 140.654 121.254C140.18 121.571 139.811 122.021 139.593 122.548C139.375 123.075 139.318 123.654 139.429 124.214C139.54 124.773 139.814 125.287 140.217 125.69C140.62 126.093 141.133 126.368 141.692 126.479C142.251 126.59 142.83 126.533 143.357 126.315C143.883 126.096 144.333 125.727 144.649 125.253C144.966 124.778 145.135 124.221 145.134 123.651C145.133 122.886 144.83 122.154 144.29 121.614C143.75 121.073 143.018 120.769 142.255 120.768ZM142.255 124.834C142.021 124.834 141.792 124.765 141.598 124.635C141.403 124.505 141.251 124.32 141.162 124.104C141.072 123.887 141.049 123.649 141.095 123.42C141.14 123.19 141.253 122.979 141.418 122.814C141.584 122.648 141.795 122.536 142.024 122.49C142.253 122.444 142.491 122.468 142.707 122.558C142.923 122.648 143.108 122.799 143.237 122.994C143.367 123.189 143.436 123.418 143.436 123.652C143.435 123.965 143.311 124.266 143.089 124.487C142.868 124.709 142.568 124.833 142.255 124.834Z" fill="#2F4F4F"/>
<path d="M175.529 124.458L172.254 120.471C172.181 120.381 172.089 120.307 171.986 120.254C171.883 120.201 171.769 120.17 171.654 120.162C171.538 120.155 171.422 120.172 171.312 120.211C171.203 120.25 171.103 120.311 171.018 120.391L169.631 121.695H166.739L165.451 120.411C165.292 120.252 165.076 120.163 164.851 120.163H158.921C158.782 120.163 158.646 120.197 158.524 120.262C158.402 120.326 158.297 120.42 158.219 120.534L157.571 121.484L156.837 120.503C156.758 120.398 156.655 120.312 156.537 120.253C156.419 120.194 156.289 120.163 156.158 120.163H152.117C151.981 120.162 151.846 120.194 151.725 120.257C151.604 120.319 151.5 120.41 151.421 120.521C151.342 120.633 151.291 120.761 151.273 120.896C151.254 121.031 151.268 121.169 151.314 121.298C151.584 122.054 151.721 122.851 151.721 123.654C151.724 124.738 151.471 125.807 150.984 126.775C150.919 126.904 150.888 127.049 150.894 127.193C150.901 127.338 150.944 127.479 151.02 127.602C151.096 127.726 151.202 127.828 151.329 127.898C151.455 127.969 151.598 128.006 151.743 128.006H174.87C175.095 128.006 175.311 127.917 175.47 127.757C175.629 127.598 175.719 127.382 175.719 127.156V125C175.72 124.803 175.653 124.611 175.529 124.458ZM174.024 126.305H153.009C153.285 125.448 153.424 124.552 153.422 123.651C153.422 123.049 153.36 122.449 153.236 121.86H155.733L156.924 123.451C157.005 123.559 157.111 123.647 157.232 123.706C157.354 123.765 157.488 123.794 157.623 123.791C157.758 123.788 157.89 123.753 158.009 123.688C158.127 123.624 158.229 123.532 158.305 123.421L159.37 121.86H164.498L165.786 123.144C165.945 123.302 166.161 123.391 166.386 123.391H169.963C170.18 123.392 170.389 123.31 170.547 123.161L171.518 122.25L174.024 125.302V126.305Z" fill="#2F4F4F"/>
<path d="M144.746 17.45C143.029 17.45 141.352 17.9593 139.925 18.9137C138.497 19.8681 137.385 21.2246 136.728 22.8117C136.072 24.3988 135.9 26.1451 136.235 27.83C136.569 29.5148 137.396 31.0624 138.61 32.2771C139.823 33.4918 141.369 34.319 143.053 34.6542C144.736 34.9893 146.481 34.8173 148.066 34.1599C149.652 33.5025 151.007 32.3893 151.961 30.9609C152.914 29.5326 153.423 27.8534 153.423 26.1355C153.42 23.8328 152.505 21.6253 150.879 19.9971C149.252 18.3689 147.046 17.4529 144.746 17.45ZM144.746 33.122C143.365 33.1221 142.015 32.7125 140.867 31.9449C139.719 31.1773 138.825 30.0862 138.296 28.8096C137.768 27.533 137.63 26.1283 137.899 24.773C138.168 23.4177 138.833 22.1727 139.809 21.1956C140.785 20.2185 142.029 19.553 143.383 19.2834C144.737 19.0137 146.14 19.152 147.416 19.6808C148.691 20.2096 149.782 21.105 150.549 22.254C151.316 23.4029 151.725 24.7537 151.725 26.1355C151.724 27.9882 150.988 29.7648 149.68 31.0752C148.371 32.3856 146.597 33.1228 144.746 33.1249V33.122Z" fill="#3E524D" fill-opacity="0.5"/>
<path d="M142.255 23.2563C141.685 23.2562 141.128 23.4252 140.654 23.7419C140.18 24.0587 139.811 24.5089 139.593 25.0357C139.375 25.5626 139.318 26.1423 139.429 26.7016C139.54 27.2609 139.814 27.7747 140.217 28.1779C140.62 28.5812 141.133 28.8558 141.692 28.967C142.251 29.0782 142.83 29.0211 143.357 28.8028C143.883 28.5845 144.333 28.2148 144.649 27.7406C144.966 27.2664 145.135 26.7089 145.134 26.1386C145.133 25.3745 144.83 24.6419 144.29 24.1016C143.75 23.5613 143.018 23.2573 142.255 23.2563ZM142.255 27.3218C142.021 27.3218 141.792 27.2524 141.598 27.1224C141.404 26.9924 141.252 26.8076 141.163 26.5914C141.073 26.3752 141.05 26.1373 141.095 25.9078C141.141 25.6783 141.253 25.4675 141.419 25.302C141.584 25.1365 141.795 25.0238 142.024 24.9782C142.253 24.9325 142.491 24.956 142.707 25.0455C142.923 25.1351 143.108 25.2867 143.238 25.4813C143.367 25.6759 143.437 25.9046 143.437 26.1386C143.436 26.4523 143.312 26.753 143.09 26.9748C142.869 27.1966 142.568 27.3214 142.255 27.3218Z" fill="#3E524D" fill-opacity="0.5"/>
<path d="M175.529 26.946L172.254 22.9581C172.181 22.8682 172.089 22.7945 171.986 22.7414C171.883 22.6884 171.769 22.6571 171.653 22.6497C171.538 22.6431 171.422 22.66 171.313 22.6993C171.203 22.7386 171.103 22.7995 171.018 22.8784L169.631 24.18H166.739L165.451 22.8959C165.292 22.7371 165.076 22.648 164.851 22.6482H158.921C158.782 22.6482 158.646 22.682 158.524 22.7466C158.402 22.8111 158.297 22.9045 158.219 23.0187L157.571 23.9687L156.837 22.9917C156.758 22.8862 156.655 22.8006 156.537 22.7416C156.419 22.6826 156.289 22.6519 156.158 22.6518H152.117C151.981 22.6513 151.846 22.6837 151.725 22.7461C151.604 22.8085 151.5 22.8992 151.421 23.0105C151.342 23.1218 151.291 23.2504 151.273 23.3856C151.254 23.5207 151.268 23.6583 151.314 23.7868C151.584 24.543 151.721 25.34 151.721 26.1429C151.724 27.227 151.471 28.2967 150.984 29.2649C150.919 29.3944 150.888 29.5385 150.894 29.6833C150.901 29.8282 150.944 29.969 151.02 30.0924C151.096 30.2158 151.202 30.3177 151.329 30.3884C151.455 30.4591 151.598 30.4962 151.743 30.4963H174.87C175.095 30.4963 175.311 30.4067 175.47 30.2473C175.629 30.0879 175.719 29.8717 175.719 29.6463V27.489C175.72 27.2915 175.653 27.0996 175.529 26.946ZM174.024 28.7928H153.009C153.467 27.3555 153.546 25.8239 153.236 24.3473H155.733L156.924 25.939C157.005 26.0472 157.111 26.1344 157.232 26.1936C157.354 26.2528 157.487 26.2821 157.622 26.2792C157.757 26.2762 157.89 26.2411 158.008 26.1768C158.127 26.1124 158.229 26.0206 158.305 25.909L159.37 24.348H164.498L165.786 25.6321C165.945 25.7909 166.161 25.88 166.386 25.8798H169.963C170.18 25.8806 170.389 25.7982 170.547 25.6496L171.518 24.7383L174.024 27.7901V28.7928Z" fill="#3E524D" fill-opacity="0.5"/>
<path d="M171.945 18.1224L168.513 21.3474H167.909L166.376 19.8127H154.361C153.266 18.1478 151.759 16.7956 149.986 15.8885C148.213 14.9813 146.235 14.5502 144.246 14.6372C142.257 14.7243 140.324 15.3266 138.637 16.3852C136.95 17.4438 135.566 18.9225 134.621 20.6767C133.676 22.4309 133.202 24.4005 133.245 26.393C133.288 28.3856 133.847 30.3328 134.868 32.0442C135.888 33.7557 137.335 35.1728 139.066 36.1571C140.797 37.1414 142.754 37.6591 144.746 37.6596C146.475 37.6702 148.184 37.2851 149.742 36.5338C151.3 35.7825 152.666 34.6848 153.736 33.3245H178.55V26.1626L171.945 18.1224ZM176.853 31.6254H152.886L152.631 31.9725C151.727 33.2156 150.541 34.2255 149.169 34.9185C147.798 35.6114 146.282 35.9676 144.746 35.9576C143.03 35.9583 141.344 35.5085 139.856 34.6531C138.368 33.7978 137.13 32.5667 136.266 31.0829C135.402 29.5991 134.942 27.9144 134.932 26.197C134.921 24.4796 135.361 22.7895 136.208 21.2955C137.054 19.8015 138.277 18.5558 139.755 17.6828C141.232 16.8097 142.913 16.3399 144.629 16.3201C146.345 16.3004 148.035 16.7314 149.533 17.5702C151.03 18.409 152.281 19.6262 153.162 21.1004L153.409 21.5147H165.669L167.203 23.0494H169.179L171.782 20.6056L176.851 26.7772V31.6283L176.853 31.6254Z" fill="#2F4F4F"/>
<path d="M58.5122 18.1224L55.0805 21.3474H54.4774L52.9441 19.8127H40.9282C39.8337 18.1479 38.3264 16.7957 36.5536 15.8886C34.7807 14.9814 32.803 14.5502 30.8138 14.6372C28.8246 14.7242 26.8919 15.3263 25.2049 16.3847C23.5178 17.4432 22.134 18.9217 21.1888 20.6757C20.2435 22.4297 19.7692 24.3992 19.8123 26.3917C19.8553 28.3841 20.4141 30.3313 21.4341 32.0428C22.4542 33.7543 23.9005 35.1716 25.6316 36.1562C27.3628 37.1407 29.3196 37.6587 31.3107 37.6596C33.0402 37.6707 34.7493 37.2862 36.3076 36.5353C37.866 35.7845 39.2323 34.6873 40.3024 33.3274H65.1163V26.1656L58.5122 18.1224ZM63.4209 31.6254H39.4533L39.1985 31.9725C38.2945 33.2156 37.1078 34.2254 35.7366 34.9184C34.3654 35.6113 32.849 35.9676 31.3129 35.9576C29.597 35.9583 27.9109 35.5085 26.423 34.6531C24.9351 33.7978 23.6973 32.5667 22.8332 31.0829C21.9692 29.5991 21.5091 27.9144 21.4989 26.197C21.4887 24.4796 21.9287 22.7895 22.775 21.2955C23.6213 19.8015 24.8444 18.5558 26.3221 17.6828C27.7997 16.8097 29.4803 16.3399 31.1961 16.3201C32.9119 16.3004 34.6028 16.7314 36.1002 17.5702C37.5975 18.409 38.8488 19.6262 39.7293 21.1004L39.9761 21.5147H52.2366L53.7699 23.0494H55.7464L58.3494 20.6056L63.418 26.7772V31.6283L63.4209 31.6254Z" fill="#3E524D" fill-opacity="0.5"/>
<path d="M171.945 115.635L168.514 118.86H167.91L166.376 117.325H154.361C153.267 115.659 151.76 114.306 149.987 113.398C148.214 112.49 146.236 112.058 144.247 112.144C142.257 112.231 140.324 112.832 138.636 113.891C136.948 114.949 135.564 116.428 134.619 118.183C133.673 119.937 133.199 121.907 133.242 123.9C133.285 125.893 133.845 127.84 134.865 129.552C135.886 131.264 137.333 132.681 139.065 133.665C140.797 134.649 142.754 135.167 144.746 135.167C146.475 135.178 148.184 134.793 149.743 134.042C151.301 133.292 152.667 132.194 153.737 130.834H178.552V123.673L171.945 115.635ZM176.853 129.138H152.886L152.632 129.485C151.728 130.728 150.541 131.738 149.17 132.431C147.798 133.124 146.282 133.48 144.746 133.47C143.03 133.47 141.344 133.021 139.856 132.165C138.368 131.31 137.13 130.079 136.266 128.595C135.402 127.111 134.942 125.427 134.932 123.709C134.922 121.992 135.362 120.302 136.208 118.808C137.054 117.314 138.277 116.068 139.755 115.195C141.233 114.322 142.913 113.852 144.629 113.832C146.345 113.813 148.036 114.244 149.533 115.082C151.031 115.921 152.282 117.138 153.162 118.613L153.409 119.027H165.67L167.203 120.562H169.179L171.782 118.118L176.851 124.29V129.14L176.853 129.138Z" fill="#3E524D" fill-opacity="0.5"/>
<path d="M57.044 25.7197H39.1416V27.4196H57.044V25.7197Z" fill="#596F66"/>
<path d="M170.477 25.7197H152.575V27.4196H170.477V25.7197Z" fill="#3E524D" fill-opacity="0.5"/>
<path d="M170.477 122.801H152.575V124.501H170.477V122.801Z" fill="#2F4F4F"/>
<path d="M57.044 122.801H39.1416V124.501H57.044V122.801Z" fill="#3E524D" fill-opacity="0.5"/>
<path d="M129.351 80.5057L128.237 76.2481C128.696 75.8294 129.018 75.2814 129.161 74.6763C129.303 74.0711 129.259 73.4369 129.035 72.8571C128.811 72.2774 128.416 71.779 127.904 71.4276C127.391 71.0762 126.785 70.8882 126.164 70.8882C125.542 70.8882 124.936 71.0762 124.423 71.4276C123.911 71.779 123.517 72.2774 123.292 72.8571C123.068 73.4369 123.024 74.0711 123.167 74.6763C123.309 75.2814 123.631 75.8294 124.09 76.2481L122.977 80.5057C122.944 80.6314 122.94 80.763 122.966 80.8904C122.992 81.0177 123.046 81.1374 123.126 81.2403C123.205 81.3432 123.307 81.4264 123.423 81.4837C123.54 81.5409 123.668 81.5706 123.798 81.5705H128.529C128.659 81.5706 128.787 81.5409 128.904 81.4837C129.02 81.4264 129.122 81.3432 129.202 81.2403C129.281 81.1374 129.336 81.0177 129.361 80.8904C129.387 80.763 129.384 80.6314 129.351 80.5057Z" fill="#F6F2ED"/>
</svg>
